<svg width="70" height="59" viewBox="0 0 70 59" fill="none" xmlns="http://www.w3.org/2000/svg">
<path d="M44.2396 45.2567C47.501 43.8844 50.2223 41.5779 53.6068 40.4411C53.683 40.4414 53.7593 40.4417 53.8355 40.442C55.4433 40.845 57.2506 40.9484 58.8751 40.9265C60.5577 40.902 62.2559 40.6283 63.761 39.9119C64.8646 39.3865 65.885 38.552 66.5793 37.5491C67.0235 37.0693 67.2857 36.4443 67.4495 35.8274C67.604 35.2529 67.769 34.4604 67.5653 33.8562C67.5966 33.5815 67.2726 33.2177 67.1022 33.0584C66.8797 32.8507 66.6067 32.7108 66.3119 32.6473C66.3235 32.6332 66.3319 32.6106 66.3328 32.5907C66.3837 32.5909 66.4377 32.5996 66.4811 32.6026C66.5426 32.6086 66.5538 32.5264 66.4891 32.512C66.435 32.5033 66.3778 32.4861 66.3163 32.4802C66.2818 32.3667 66.17 32.2728 66.0253 32.3374C65.9809 32.3542 65.9472 32.3767 65.9134 32.3993C64.0125 32.049 62.0409 31.7353 60.4209 30.6751C58.4522 29.3869 57.6805 27.2167 56.7426 25.2556C55.1809 21.9832 52.6718 19.1575 49.5801 17.049C46.4671 14.9291 42.7821 13.5321 38.9515 13.1346C36.0533 12.8314 33.1077 13.1398 30.3271 13.9504C30.2975 13.9616 30.2753 13.97 30.2425 13.9727C27.6557 14.6027 25.1063 15.6663 22.9641 17.179C20.8819 18.6495 18.5977 20.7028 17.505 22.976C15.4897 23.3505 13.4433 23.4642 11.3334 23.2321C9.68238 23.0499 8.05371 22.7036 6.45331 22.2978C4.92499 21.9037 3.37938 21.263 1.80973 21.0501C1.81579 20.9991 1.82927 20.9453 1.84273 20.8915C1.88311 20.7302 1.62531 20.6527 1.52859 20.777C1.05978 21.3927 1.07333 22.0981 1.37766 22.7225C1.46798 22.9608 1.59948 23.1738 1.78786 23.336C1.84325 23.3929 1.89124 23.4526 1.95403 23.5066C1.93318 23.5632 1.94836 23.6256 2.02366 23.6457C2.06293 23.6601 2.10637 23.6631 2.14563 23.6774C2.29246 23.7969 2.44346 23.9052 2.60603 23.9993C4.16477 24.8978 6.22721 24.9824 7.97423 25.2839C11.1481 25.8234 14.3405 26.2779 17.5152 26.7975C18.5022 27.3481 19.1592 28.345 19.5537 29.3636C20.1814 30.9751 20.3057 32.7092 20.9556 34.3123C22.106 37.1468 24.2727 39.5378 26.8101 41.3891C29.3444 43.2319 32.348 44.7508 35.4105 45.6439C38.3798 46.514 41.3703 46.4805 44.2239 45.2822L44.2396 45.2567ZM66.893 33.3323C66.893 33.3323 66.9111 33.3352 66.9078 33.3267C66.9033 33.27 66.8913 33.2162 66.8752 33.1736C66.8923 33.1963 66.9167 33.2163 66.937 33.2475C67.0501 33.3896 67.141 33.5401 67.2023 33.7018C67.6393 36.4173 65.784 38.8434 63.1265 39.8895C61.6313 40.4757 59.9983 40.676 58.3832 40.6555C57.4723 40.6405 56.5704 40.5152 55.6675 40.4096C55.9841 40.3967 56.308 40.381 56.632 40.3653C57.2291 40.3336 57.823 40.2935 58.4243 40.2505C58.8361 40.221 59.3255 40.2399 59.7111 40.0743C60.0301 39.9339 60.1029 39.7019 60.2857 39.4477C60.5074 39.1398 60.8028 39.1155 61.1142 39.1337C61.4122 39.2057 61.608 39.3651 61.9727 39.2561C62.0467 39.228 62.1281 39.1972 62.1965 39.1323C62.2557 39.1099 62.3149 39.0875 62.3741 39.065C62.6201 38.9329 62.8215 38.5937 63.0671 38.3936C63.1748 38.343 63.2816 38.3123 63.3994 38.3552C63.4387 38.3695 63.4757 38.3555 63.5052 38.3443C63.6299 38.4723 63.7949 38.4389 63.8778 38.3005C63.9334 38.2015 63.9487 38.1081 63.9788 38.0091C64.2726 37.7128 64.762 37.7317 65.1038 37.4951C65.35 37.5867 65.6918 37.3501 65.5335 37.0889C65.5036 37.0321 65.4662 36.9781 65.4362 36.9214C65.5006 36.3324 65.1363 35.5944 65.6405 35.2282C65.6615 35.3954 65.6942 35.5485 65.749 35.6932C65.7651 35.7357 65.8414 35.736 65.8581 35.6908C65.8933 35.5606 65.9106 35.4275 65.913 35.3001C66.0665 35.2808 66.2163 35.1851 66.2239 35.0265C66.2248 34.6271 65.9201 34.3143 65.9145 33.8978C65.9102 33.6854 65.945 33.4872 66.0085 33.2976C66.5214 32.9767 66.8148 32.9921 66.8879 33.3634L66.893 33.3323ZM56.5515 25.5324C57.3704 27.2467 58.1032 29.0909 59.5815 30.38C58.8172 29.8812 58.1117 29.2921 57.4808 28.587C56.1463 27.0974 55.6834 25.2287 55.3402 23.3634C55.7901 24.0592 56.1914 24.7832 56.5482 25.5239L56.5515 25.5324ZM39.8838 45.4378C38.7737 45.4108 37.6601 45.3072 36.5692 45.1075C36.4611 45.09 36.3497 45.0641 36.249 45.0439C36.1959 45.0153 36.146 44.9953 36.1003 44.964C36.0684 44.9468 36.0411 44.9864 36.055 45.0006C35.1166 44.8014 34.1843 44.5513 33.276 44.2531C32.2893 43.9263 31.3711 43.3788 30.3992 43.0463C29.3369 42.4756 28.3176 41.8398 27.3659 41.159C24.7171 39.2817 22.4673 36.8055 21.3448 33.8436C20.5254 31.6818 20.4679 28.472 18.4819 26.9373C19.2494 27.065 20.02 27.2011 20.794 27.3458C22.0503 27.5803 23.295 27.8288 24.5378 28.117C26.0293 29.6639 26.9298 31.5711 27.84 33.5038C28.3472 34.5965 28.8723 35.692 29.5284 36.7087C30.1203 37.6232 30.879 38.6205 31.841 39.2391C31.8285 39.273 31.8192 39.3155 31.8353 39.358C31.9025 39.6246 32.3522 39.5612 32.285 39.2946C32.2353 39.1188 32.0191 39.0839 31.9062 39.1657C30.963 38.3064 30.1575 37.4534 29.4937 36.3715C28.8234 35.2725 28.2945 34.1005 27.7509 32.9341C26.9897 31.3051 26.1663 29.5341 24.8686 28.1863C26.9376 28.6675 28.9912 29.2422 30.9924 29.9243C31.6842 31.2585 32.5155 32.5592 33.3044 33.837C34.0794 35.1007 34.8979 36.3673 35.9051 37.4846C37.5677 39.3268 39.7927 41.1797 42.4381 41.5301C42.4741 41.5359 42.4876 41.4822 42.4515 41.4764C39.7401 40.6838 37.565 39.2305 35.813 37.1302C34.8405 35.9705 34.0211 34.7237 33.2545 33.4374C32.5819 32.3101 31.9861 31.0953 31.228 30.0102C31.678 30.1706 32.1247 30.3225 32.5778 30.4915C32.806 30.5802 33.0449 30.6746 33.2731 30.7633C33.8505 30.9922 34.4247 31.2126 35.0021 31.4415C38.4338 32.8177 41.835 34.2248 45.4526 35.1314C49.5728 36.159 54.3805 36.4783 58.3249 34.7205L58.3397 34.7149C58.6716 34.6086 59.0036 34.5022 59.3258 34.3704C59.348 34.362 59.3351 34.3279 59.3129 34.3363C59.018 34.4287 58.7198 34.5124 58.4216 34.5963C58.4338 34.4943 58.3378 34.375 58.1866 34.4225C56.9638 34.8568 55.7402 35.1551 54.5116 35.3287C53.2013 35.4652 51.8787 35.4798 50.5363 35.3753C47.5728 35.1455 44.6492 34.4626 41.8283 33.6044C41.4347 33.4811 41.0411 33.3577 40.6475 33.2343C38.8283 32.5416 37.0458 31.7669 35.2613 31.0318C31.6606 29.5445 28.0597 28.213 24.2411 27.334C24.0831 27.2965 23.9176 27.2619 23.7596 27.2244C23.7001 27.1789 23.6331 27.1361 23.5768 27.0991C23.5204 27.062 23.47 27.1298 23.5041 27.1752C23.256 27.1233 23.0047 27.0628 22.7492 27.0136C21.8764 26.8091 20.9953 26.6271 20.1049 26.4876C17.7471 26.0477 15.3643 25.6757 12.9921 25.3094C11.312 25.0507 9.61947 24.8259 7.94225 24.5076C7.4853 24.418 7.02511 24.3199 6.56816 24.2302C6.48545 24.2129 6.40274 24.1956 6.32003 24.1783C4.60639 23.7863 1.53177 23.3747 1.8378 21.1465C3.05071 21.7575 4.47376 22.0747 5.78584 22.434C7.1552 22.8105 8.54126 23.1417 9.95423 23.3654C10.4768 23.4497 11.011 23.5198 11.5313 23.5756C12.5458 23.9309 13.6433 23.9919 14.7159 23.965C15.7155 23.9463 16.7901 23.8797 17.7466 23.5464C17.8287 23.6515 17.9868 23.6889 18.0696 23.5505C18.1053 23.4883 18.1483 23.4233 18.1872 23.3696C18.2316 23.3528 18.2686 23.3388 18.3097 23.3135C18.3171 23.3107 18.3139 23.3022 18.3033 23.2965C18.2811 23.3049 18.2524 23.2962 18.2302 23.3046C18.2576 23.2651 18.2816 23.217 18.3089 23.1775C18.3787 23.1608 18.4559 23.1413 18.5257 23.1245C24.2365 21.7194 29.1329 18.277 34.9985 17.2804C37.8985 16.7847 40.8213 16.9521 43.5254 18.127C43.5752 18.1471 43.6225 18.0708 43.5768 18.0395C39.2435 15.6909 33.7672 16.9781 29.4495 18.6437C26.5225 19.7823 23.708 21.1507 20.7081 22.1417C20.0073 22.3684 19.3073 22.5752 18.5987 22.7367C21.7351 18.1996 26.8198 14.9195 32.4346 13.7746C37.2342 13.0457 42.2427 14.0286 46.5244 16.2409C46.535 16.2466 46.5465 16.2325 46.5359 16.2268C45.2756 15.4683 44.0784 14.8319 42.6407 14.3644C41.3495 13.9486 40.0009 13.6713 38.6465 13.513C37.9026 13.4251 37.1461 13.3711 36.3919 13.3454C37.0209 13.3309 37.6522 13.3447 38.2783 13.3897C45.1807 13.8787 51.5809 17.6631 55.2088 23.1504C54.9183 26.8036 58.1098 30.6263 61.798 31.6522C62.0081 31.738 62.2225 31.8125 62.4442 31.8842C61.1372 32.4087 59.8533 32.9051 58.4937 33.3133C58.4642 33.3245 58.4761 33.3784 58.5131 33.3644C59.8957 33.0837 61.3089 32.6162 62.5324 31.9383C62.5472 31.9327 62.5546 31.9299 62.5556 31.9101C63.189 32.1081 63.8506 32.2467 64.5173 32.3541C64.1911 32.3415 63.868 32.3374 63.5427 32.3049C63.5279 32.3105 63.527 32.3304 63.5376 32.3361C63.9618 32.4284 64.384 32.5604 64.8072 32.6725C65.0225 32.7272 65.2188 32.7988 65.4267 32.8563C65.2439 33.1105 65.1355 33.4047 65.1065 33.7077C65.0695 34.1013 65.1451 34.7248 65.4636 35.0518C65.3517 35.1137 65.256 35.2181 65.1773 35.3453C65.1657 35.3594 65.1615 35.3707 65.1606 35.3906C64.6586 35.941 64.4608 36.7362 64.9717 37.3699L64.9569 37.3755C64.6188 37.6887 64.5586 37.3513 64.3141 37.3758L64.2485 37.3813C64.2485 37.3813 64.2124 37.3754 64.187 37.3753C64.0345 37.3747 63.8834 37.4223 63.7557 37.5096C63.5985 37.6081 63.4481 37.7917 63.4068 37.9728C63.3813 37.9727 63.3485 37.9754 63.3231 37.9753C63.185 37.9011 63.0376 37.8694 62.8366 37.8969C62.6683 37.9218 62.5374 38.0005 62.3918 38.0849C61.9876 38.3355 61.6866 38.4788 61.1727 38.4399C59.9459 38.3501 59.6782 39.3178 58.6429 39.7783C58.5986 39.7951 58.5712 39.8347 58.562 39.8772C57.7023 39.9304 56.8529 39.9214 55.991 39.9463C55.9328 39.9489 55.9174 40.0423 55.9821 40.0568C56.0468 40.0712 56.1189 40.0828 56.1836 40.0972C55.5832 40.1203 54.9797 40.1349 54.3803 40.1382C53.7021 39.8891 52.9517 39.7842 52.2355 39.7247C51.3201 39.6531 50.3081 39.5499 49.4587 39.9205C49.3996 39.9429 49.3787 39.9995 49.3875 40.0449C48.432 40.2026 47.5769 40.8479 46.8996 41.4939C46.8385 41.556 46.7774 41.6181 46.7164 41.6802C45.8945 42.235 45.124 42.858 44.3321 43.4696C43.2461 44.3095 41.9065 45.0605 40.5021 45.4176C40.2946 45.4281 40.0871 45.4386 39.8879 45.4265L39.8838 45.4378ZM46.8035 35.0575C47.8339 35.2315 48.8694 35.3744 49.9225 35.4522C50.4872 35.4912 51.0667 35.5247 51.6365 35.5326C50.0384 35.5348 48.4266 35.367 46.7961 35.0603L46.8035 35.0575ZM46.858 42.7459C46.5291 43.0165 46.2109 43.2929 45.882 43.5635C45.8955 43.5098 45.8613 43.4643 45.8115 43.4443C46.1639 43.2134 46.5088 42.9853 46.858 42.7459ZM45.2471 44.3882C46.0107 43.836 46.7018 43.2042 47.2523 42.6256C47.1662 42.7556 47.1014 42.897 47.0366 43.0384C46.9884 43.1345 47.1583 43.2258 47.2139 43.1269C47.5454 42.5729 47.9281 42.0872 48.3949 41.667C48.9466 41.2924 49.5196 40.9292 50.1184 40.6342C50.761 40.4101 51.397 40.3248 52.068 40.2651C52.1041 40.2709 52.1369 40.2682 52.173 40.274C52.5024 40.2951 52.8384 40.3333 53.1711 40.3629C50.3394 41.3291 47.9616 43.1355 45.3131 44.4508C45.1906 44.507 45.0713 44.5716 44.9561 44.625C45.0648 44.5546 45.1597 44.47 45.2503 44.3967L45.2471 44.3882Z" fill="#F3F3F3"/>
<path d="M35.7412 25.2334C37.5071 24.6774 39.3368 24.267 41.176 23.9946C44.8107 23.4475 48.5171 23.496 52.1267 24.0342C48.5388 23.3274 44.8111 23.268 41.1427 23.7713C39.3378 24.0213 37.5604 24.4118 35.8213 24.9482C34.9315 25.2194 34.0467 25.5264 33.185 25.8719C32.4325 26.1666 31.4423 26.4664 30.8359 26.9887C30.7898 27.0251 30.8136 27.1104 30.8871 27.1014C31.7122 26.9303 32.5219 26.4252 33.3013 26.111C34.1031 25.7882 34.9175 25.4984 35.7443 25.2417L35.7412 25.2334Z" fill="#F3F3F3"/>
<path d="M34.3836 25.6354C35.1926 25.3031 36.0229 25.027 36.883 24.8295C38.7251 24.3885 40.6679 24.2563 42.6413 24.4211C42.6413 24.4211 42.6514 24.4044 42.637 24.4098C40.6381 24.1776 38.6969 24.2706 36.8319 24.6947C35.1117 25.0895 33.1902 25.6892 31.8255 26.8492C31.7969 26.86 31.8296 26.9248 31.8654 26.9112C32.719 26.5234 33.5029 25.9949 34.3764 25.6381L34.3836 25.6354Z" fill="#F3F3F3"/>
<path d="M30.1114 28.0471C28.4755 27.0549 26.6984 26.2765 24.8439 25.7066C23.9569 25.43 23.0526 25.2165 22.1392 25.0441C21.2186 24.8745 20.2216 24.6773 19.2833 24.7217C19.2339 24.7216 19.2414 24.7848 19.2867 24.7959C20.1929 24.9709 21.1233 25.0143 22.0336 25.1784C22.9965 25.3509 23.9493 25.5837 24.8786 25.8632C26.7021 26.4166 28.4267 27.1866 30.0663 28.1019C30.1076 28.124 30.1527 28.0691 30.1114 28.0471Z" fill="#F3F3F3"/>
<path d="M18.1766 24.0647C21.8057 21.8758 25.7324 20.1445 29.8046 18.7974C29.8263 18.7892 29.8139 18.7565 29.7922 18.7647C25.6528 19.9783 21.7128 21.696 17.9803 23.7651C17.7468 23.891 17.9389 24.2015 18.1766 24.0647Z" fill="#F3F3F3"/>
<path d="M42.7388 33.6795C47.0156 35.7217 51.8352 36.2971 56.366 35.2605C56.3805 35.255 56.3811 35.2348 56.3561 35.2342C51.9206 36.0646 47.1831 35.4881 43.0022 33.5897C46.5772 33.6059 50.1486 33.1331 53.4299 31.8294C53.4516 31.8212 53.4383 31.7862 53.4166 31.7944C49.9187 32.8099 46.3059 33.4785 42.6043 33.3901C41.224 32.342 39.4494 31.5833 37.9148 30.8038C36.3591 30.0122 34.7618 29.1764 33.1264 28.5451C34.2679 27.9823 35.3923 27.3961 36.5848 26.9241C37.864 26.4192 39.1869 26.008 40.5357 25.6869C43.1828 25.064 45.9153 24.819 48.6655 24.9477C48.6727 24.9449 48.68 24.9422 48.6622 24.9389C45.8876 24.7895 43.1057 25.0131 40.4164 25.612C37.835 26.1901 35.1624 27.0728 32.9466 28.4631L32.9322 28.4686C32.8156 28.4227 32.6991 28.3768 32.5859 28.3396C32.4338 28.2872 32.3674 28.4825 32.5044 28.5606C32.536 28.5787 32.5677 28.5967 32.596 28.606C32.5782 28.6028 32.5643 28.588 32.5466 28.5847C32.4972 28.5634 32.4593 28.6378 32.5015 28.6619C33.8871 29.5279 35.4753 30.187 36.94 30.913C38.493 31.6756 40.0388 32.4409 41.6074 33.1575C41.6147 33.1547 41.6219 33.152 41.6291 33.1493C41.9769 33.3477 42.3287 33.5347 42.6961 33.6757C42.7066 33.6817 42.7244 33.685 42.7316 33.6822L42.7388 33.6795ZM37.1007 30.792C36.6219 30.5531 36.147 30.3028 35.6649 30.0551C36.3346 30.3618 37.0043 30.6684 37.659 31.0008C38.5673 31.4573 39.4749 31.9339 40.3715 32.4249C40.4769 32.485 40.5823 32.5452 40.6877 32.6053C39.4948 31.9865 38.3014 31.3879 37.1007 30.792Z" fill="#F3F3F3"/>
<path d="M36.9946 26.7462C37.954 26.3631 38.9554 26.0906 39.9772 25.9175C40.0072 25.9061 40.0018 25.8692 39.9686 25.8721C38.9573 25.9828 37.9698 26.2014 37.0156 26.5532C36.1172 26.8938 35.0743 27.3279 34.398 27.9834C34.3712 28.0032 34.3906 28.0543 34.4355 28.0373C35.3114 27.6371 36.0918 27.098 36.9914 26.7376L36.9946 26.7462Z" fill="#F3F3F3"/>
<path d="M35.6675 28.4308C36.8853 27.8717 38.009 27.319 39.3424 27.0185C39.3577 27.0127 39.3512 26.9956 39.3359 27.0014C38.0522 27.2246 36.6648 27.6138 35.6187 28.3712C35.5835 28.3943 35.6171 28.4597 35.6599 28.4337L35.6675 28.4308Z" fill="#F3F3F3"/>
<path d="M39.0942 28.0256C40.2144 27.601 41.3669 27.2617 42.5411 27.0021C42.5559 26.9964 42.5569 26.9766 42.5314 26.9765C41.3837 27.2164 40.2511 27.5188 39.151 27.9065C38.0953 28.2774 36.8667 28.6845 35.9793 29.3427C35.9529 29.3625 35.9764 29.4023 36.0168 29.3968C37.0692 29.0174 38.0408 28.4248 39.0942 28.0256Z" fill="#F3F3F3"/>
<path d="M40.4767 28.6103C41.2392 28.3213 42.0153 28.0685 42.7997 27.8373C44.4299 27.3599 46.1011 26.9908 47.7794 26.7512C47.8088 26.7401 47.8051 26.7085 47.7731 26.7124C46.1186 26.9264 44.4731 27.2526 42.8548 27.7172C41.298 28.1669 39.5625 28.6759 38.1719 29.4756C38.1352 29.4895 38.169 29.5345 38.2057 29.5206C38.9764 29.2533 39.7115 28.8921 40.4666 28.6059L40.4767 28.6103Z" fill="#F3F3F3"/>
<path d="M41.9555 28.3487C41.9985 28.3422 41.9891 28.2774 41.9429 28.2754C40.9779 28.329 39.8666 28.5161 39.1152 29.113C39.0686 29.1502 39.1176 29.2194 39.1739 29.2079C40.1179 28.8793 40.9437 28.4786 41.9653 28.3547L41.9555 28.3487Z" fill="#F3F3F3"/>
<path d="M40.6861 29.665C41.2038 29.4786 41.7376 29.3348 42.2844 29.2251C42.3273 29.2089 42.3222 29.1523 42.2728 29.1515C41.3632 29.2523 40.1638 29.4728 39.4631 30.0603C39.4378 30.0796 39.4572 30.1308 39.4858 30.12C39.9053 30.0195 40.2795 29.7996 40.6861 29.665Z" fill="#F3F3F3"/>
<path d="M42.5531 29.8341C42.5531 29.8341 42.5595 29.8029 42.5435 29.8089C41.9285 30.042 41.2991 30.2614 40.708 30.5334C40.684 30.5425 40.6967 30.576 40.7207 30.567C41.3421 30.3506 41.9524 30.0809 42.5531 29.8341Z" fill="#F3F3F3"/>
<path d="M44.3408 30.5172C45.4903 30.1972 46.69 29.9868 47.9141 29.9085C47.9364 29.9 47.9311 29.8635 47.897 29.8635C46.6825 29.8996 45.5138 30.0341 44.3706 30.3259C43.2648 30.6037 42.0555 30.9462 41.1286 31.6061C41.0807 31.6371 41.1414 31.7298 41.1861 31.7128C42.2547 31.3592 43.2477 30.8286 44.3408 30.5172Z" fill="#F3F3F3"/>
<path d="M44.8315 30.3758C45.8338 30.1222 46.8656 29.9694 47.9224 29.9054C47.9375 29.8996 47.9282 29.8751 47.9131 29.8809C46.8377 29.8959 45.7873 29.9996 44.7636 30.2193C43.8475 30.4263 42.8162 30.649 42.0453 31.1935C41.9894 31.2287 42.0615 31.3276 42.1191 31.3198C43.0439 31.0674 43.8945 30.6188 44.8315 30.3758Z" fill="#F3F3F3"/>
<path d="M44.2771 31.5713C44.2771 31.5713 44.2847 31.5196 44.2577 31.5201C43.6338 31.6688 42.9359 31.748 42.3605 32.0246C42.3188 32.0404 42.342 32.1194 42.396 32.1184C43.0431 32.0487 43.6726 31.7711 44.2771 31.5713Z" fill="#F3F3F3"/>
<path d="M48.2745 30.8413C48.2745 30.8413 48.2898 30.7886 48.2558 30.7921C47.223 31.0898 46.1791 31.3353 45.1243 31.5287C44.2207 31.7023 43.255 31.7587 42.3794 32.0062C42.3177 32.0296 42.3334 32.1175 42.3935 32.1134C43.3687 32.1284 44.4232 31.8413 45.3715 31.6226C46.3506 31.3923 47.3172 31.1291 48.2822 30.8384L48.2745 30.8413Z" fill="#F3F3F3"/>
<path d="M50.28 33.2895C50.28 33.2895 50.2878 33.2643 50.2701 33.2636C49.4203 33.519 48.5659 33.7168 47.6947 33.847C46.8991 33.9707 46.1022 33.9763 45.3091 34.1064C45.251 34.1136 45.2555 34.1712 45.3008 34.1763C46.0794 34.2369 46.9989 34.0736 47.7998 33.9183C48.6336 33.7579 49.4553 33.5428 50.2699 33.2859L50.28 33.2895Z" fill="#F3F3F3"/>
<path d="M52.5053 33.5156C52.5053 33.5156 52.5123 33.4935 52.4957 33.4901C51.1583 33.8219 49.8208 33.9108 48.4335 33.9894C48.4201 33.9945 48.4163 34.0251 48.4364 34.0175C49.8116 34.1088 51.2079 33.8518 52.5053 33.5156Z" fill="#F3F3F3"/>
<path d="M53.582 33.5844C52.9307 33.6755 52.2578 33.7359 51.6074 33.8558C51.5722 33.8692 51.5763 33.9066 51.6148 33.9017C52.2701 33.848 52.9292 33.7247 53.5893 33.6303C53.6245 33.617 53.6205 33.5796 53.582 33.5844Z" fill="#F3F3F3"/>
<path d="M54.9129 22.9354C53.1401 22.2421 51.2227 21.8619 49.228 21.9261C49.1942 21.9297 49.1911 21.9678 49.2202 21.9752C51.1826 22.0339 53.0986 22.3409 54.8944 22.9793C54.9235 22.9867 54.9374 22.9538 54.9129 22.9354Z" fill="#F3F3F3"/>
<path d="M53.9636 23.2678C51.7914 22.15 49.3437 21.594 46.9975 21.7006C46.97 21.7111 46.9697 21.7518 47.004 21.7592C49.3866 21.8318 51.6833 22.3638 53.9425 23.3368C53.987 23.3504 54.0046 23.2929 53.9636 23.2678Z" fill="#F3F3F3"/>
<path d="M53.2818 21.4485C51.2035 20.7673 48.9232 20.5141 46.6317 20.7697C46.6084 20.7786 46.6174 20.8022 46.6407 20.7934C48.9298 20.6017 51.1814 20.8027 53.277 21.4594C53.2848 21.4564 53.2926 21.4535 53.2818 21.4485Z" fill="#F3F3F3"/>
<path d="M52.9137 20.497C50.5902 19.793 47.9474 19.6795 45.3523 20.1852C45.3212 20.197 45.3245 20.2293 45.3584 20.2248C47.9641 19.8409 50.5124 19.9399 52.8987 20.5278C52.9276 20.5336 52.9426 20.5028 52.9137 20.497Z" fill="#F3F3F3"/>
<path d="M51.9751 20.8362C50.1543 20.0919 48.2123 19.7263 46.2912 19.8307C46.2516 19.8354 46.2616 19.8835 46.3047 19.888C48.2274 19.8972 50.1164 20.2103 51.9599 20.8835C51.9885 20.8934 52.0037 20.8461 51.9751 20.8362Z" fill="#F3F3F3"/>
<path d="M51.2544 18.9506C49.8673 18.6317 48.4032 18.4368 46.9066 18.53C46.8467 18.5355 46.828 18.6029 46.8908 18.6049C48.3633 18.6587 49.8029 18.7423 51.2201 19.0239C51.2674 19.0318 51.3045 18.9661 51.2572 18.9581L51.2544 18.9506Z" fill="#F3F3F3"/>
<path d="M49.9844 18.3994C49.2697 18.2045 48.5433 18.1304 47.7867 18.1933C47.7723 18.1987 47.7782 18.2144 47.7956 18.2168C48.5408 18.1672 49.2673 18.2412 49.979 18.4283C49.9963 18.4307 50.0077 18.4174 49.9874 18.4072L49.9844 18.3994Z" fill="#F3F3F3"/>
<path d="M49.9627 18.3761C48.2035 17.5781 46.0846 17.2798 44.3057 17.3749C44.2602 17.3808 44.2657 17.4582 44.3149 17.4623C45.2514 17.5388 46.1911 17.6028 47.1367 17.7667C48.0824 17.9306 49.0106 18.2373 49.9536 18.4363C49.989 18.4456 50.005 18.3827 49.9659 18.3635L49.9627 18.3761Z" fill="#F3F3F3"/>
<path d="M48.6779 17.8038C47.226 17.3453 45.7362 17.2027 44.2889 17.3802C44.2583 17.3918 44.266 17.4353 44.3004 17.4338C45.7632 17.3664 47.2109 17.5134 48.6704 17.8531C48.701 17.8646 48.7124 17.8023 48.6818 17.7907L48.6779 17.8038Z" fill="#F3F3F3"/>
<path d="M38.2501 18.5882C38.2994 18.5807 38.285 18.4966 38.2356 18.5041C35.5965 18.7983 32.8717 19.3716 30.529 20.5396C30.4757 20.5598 30.5091 20.648 30.5661 20.6376C33.0995 19.8119 35.5796 19.0064 38.2462 18.6009L38.2501 18.5882Z" fill="#F3F3F3"/>
<path d="M38.6061 19.5155C38.6457 19.5005 38.6252 19.3984 38.5855 19.4135C36.8459 19.3954 35.1497 19.6355 33.6714 20.3789C33.6238 20.3969 33.6724 20.5249 33.72 20.5069C35.3014 20.0357 36.893 19.6155 38.6121 19.5315L38.6061 19.5155Z" fill="#F3F3F3"/>
<path d="M39.7389 19.6131C39.7389 19.6131 39.7558 19.5678 39.7334 19.5762C37.7467 19.8717 35.7854 20.4593 34.0471 21.4102C34.0173 21.4215 34.0366 21.4725 34.0665 21.4612C35.8927 20.6523 37.7471 20.0078 39.7346 19.6244L39.7389 19.6131Z" fill="#F3F3F3"/>
<path d="M22.3252 21.4137C23.2602 20.9155 24.1285 20.2867 25.0595 19.778C25.9981 19.2664 26.9566 18.8072 27.9465 18.4081C29.9903 17.5735 32.1176 16.9591 34.325 16.602C34.3401 16.5962 34.3322 16.5753 34.3171 16.581C32.1355 16.8924 29.9956 17.4277 27.9701 18.2193C26.942 18.609 25.9382 19.0854 24.9693 19.6084C24.0343 20.1066 23.0654 20.6297 22.2632 21.3413C22.2258 21.3795 22.2727 21.4576 22.314 21.4299L22.3252 21.4137Z" fill="#F3F3F3"/>
<path d="M23.7877 20.412C24.7102 19.9089 25.6544 19.4205 26.614 18.9725C28.429 18.1234 30.3111 17.387 32.2289 16.7446C32.2573 16.7339 32.2446 16.7003 32.2136 16.7044C30.2425 17.3133 28.3294 18.0537 26.4763 18.9095C25.6183 19.3038 24.7775 19.7222 23.9566 20.1715C23.0859 20.6396 22.0701 21.1321 21.3366 21.7478C21.3107 21.7653 21.333 21.8029 21.3686 21.7894C22.2149 21.4072 22.9881 20.8532 23.7948 20.4093L23.7877 20.412Z" fill="#F3F3F3"/>
<path d="M20.9959 20.8595C22.3664 19.9018 23.801 18.9756 25.3034 18.1591C23.7752 18.9535 22.3195 19.824 20.983 20.8484C20.9678 20.8542 20.9909 20.8693 20.9959 20.8595Z" fill="#F3F3F3"/>
<path d="M25.4233 18.4748C26.2937 17.9693 27.1933 17.5211 28.109 17.096C27.1706 17.4809 26.2775 17.9462 25.4233 18.4748Z" fill="#F3F3F3"/>
<path d="M28.3693 16.9972C28.28 17.0311 28.2013 17.0702 28.1151 17.1122C28.2044 17.0784 28.2862 17.0474 28.3755 17.0135L28.3724 17.0054L28.3693 16.9972Z" fill="#F3F3F3"/>
<path d="M37.9477 20.6208C39.1256 20.2912 40.3251 20.041 41.5334 19.8361C41.5629 19.8249 41.5575 19.7881 41.5246 19.7908C40.3604 19.9108 39.22 20.1386 38.1013 20.4458C36.9383 20.7698 35.7118 21.1275 34.6571 21.6928C34.6053 21.7124 34.6417 21.7862 34.6861 21.7694C35.779 21.3941 36.8281 20.9478 37.9509 20.6293L37.9477 20.6208Z" fill="#F3F3F3"/>
<path d="M41.6827 20.6746C41.7377 20.6635 41.7235 20.5813 41.6685 20.5924C39.7586 20.8879 37.8814 21.3366 36.0742 21.9924C36.0446 22.0036 36.0681 22.0433 36.0903 22.0349C37.9376 21.5295 39.7871 21.0524 41.6721 20.6689L41.6827 20.6746Z" fill="#F3F3F3"/>
<path d="M41.8017 21.4376C41.8017 21.4376 41.8299 21.3782 41.7897 21.3837C40.2306 21.7118 38.6617 22.0144 37.1284 22.4106C37.1062 22.419 37.1085 22.4473 37.1413 22.4446C38.7092 22.1619 40.2596 21.7884 41.8091 21.4348L41.8017 21.4376Z" fill="#F3F3F3"/>
<path d="M41.8101 22.0377C40.8422 22.2293 39.8807 22.438 38.9183 22.6664C38.9035 22.6721 38.9058 22.7004 38.928 22.692C39.9024 22.5174 40.8596 22.32 41.8285 22.1086C41.8729 22.0918 41.8651 22.0266 41.8175 22.0349L41.8101 22.0377Z" fill="#F3F3F3"/>
<path d="M38.9156 23.4173C40.2409 23.1195 41.5891 22.9491 42.9383 22.759C42.9785 22.7535 42.9739 22.6968 42.9305 22.6938C41.4969 22.7505 40.0718 23.0083 38.68 23.3314C37.3653 23.635 36.0151 24.0008 34.7972 24.5597C34.7528 24.5765 34.7828 24.6333 34.823 24.6278C36.1868 24.2082 37.5131 23.7347 38.9114 23.4287L38.9156 23.4173Z" fill="#F3F3F3"/>
<path d="M33.586 24.6677C33.586 24.6677 33.5922 24.617 33.57 24.6254C32.9107 24.8947 32.2375 25.1498 31.5984 25.45C31.5763 25.4584 31.5891 25.4923 31.6113 25.4839C32.277 25.2316 32.9299 24.9454 33.586 24.6677Z" fill="#F3F3F3"/>
<path d="M43.3164 42.5503C41.598 42.2574 40.0038 41.6449 38.444 40.9221C38.4047 40.9078 38.3732 40.9586 38.4083 40.9843C39.8918 41.8626 41.5868 42.3396 43.3145 42.59C43.3399 42.5901 43.3376 42.5618 43.3196 42.5589L43.3164 42.5503Z" fill="#F3F3F3"/>
<path d="M42.2029 43.1183C40.2624 42.6857 38.5261 41.8546 36.9186 40.7604C36.8974 40.749 36.8742 40.7772 36.8955 40.7887C38.423 41.9618 40.2817 42.7368 42.1978 43.1495C42.2264 43.1581 42.2283 43.1184 42.1997 43.1098L42.2029 43.1183Z" fill="#F3F3F3"/>
<path d="M42.9239 43.7502C40.0779 43.4953 37.507 42.2699 35.4525 40.4205C35.4248 40.392 35.3614 40.4258 35.3998 40.4599C37.2743 42.5041 40.0736 43.6624 42.9179 43.8012C42.9539 43.807 42.96 43.756 42.9239 43.7502Z" fill="#F3F3F3"/>
<path d="M40.4173 44.3011C37.6909 43.2903 35.3001 41.7143 33.1398 39.8758C33.1153 39.8559 33.088 39.8954 33.1018 39.9097C35.1275 41.9063 37.689 43.33 40.4132 44.3124C40.4132 44.3124 40.428 44.3068 40.4173 44.3011Z" fill="#F3F3F3"/>
<path d="M39.6101 45.074C37.4364 44.0485 35.4108 42.8111 33.425 41.5001C33.3932 41.483 33.3585 41.5254 33.3903 41.5425C35.2405 43.0313 37.3632 44.2125 39.5851 45.1419C39.635 45.1619 39.66 45.0941 39.6175 45.0712L39.6101 45.074Z" fill="#F3F3F3"/>
<path d="M26.5522 39.5499C23.4487 36.3168 21.2063 32.5431 20.0195 28.3402C20.0098 28.3147 19.977 28.3174 19.9825 28.3543C21.0284 32.5424 23.3122 36.5145 26.5438 39.5726C26.547 39.5811 26.566 39.5641 26.566 39.5641L26.5522 39.5499Z" fill="#F3F3F3"/>
<path d="M28.3788 40.8239C28.3788 40.8239 28.3698 40.8174 28.373 40.8261C28.373 40.8261 28.3821 40.8326 28.3788 40.8239Z" fill="#F3F3F3"/>
<path d="M32.8817 42.8548C31.7286 42.1335 30.4768 41.5762 29.3361 40.821C28.1497 40.0344 27.0781 39.1265 26.1286 38.0945C26.1254 38.086 26.1064 38.1029 26.1064 38.1029C27.0199 39.1292 28.0314 40.0793 29.1387 40.925C30.2003 41.7394 31.4961 42.5915 32.8188 42.9565C32.8835 42.9709 32.9381 42.8918 32.8744 42.8576L32.8817 42.8548Z" fill="#F3F3F3"/>
<path d="M61.78 31.806C61.78 31.806 61.7893 31.7634 61.7671 31.7718C60.2998 32.2304 58.8144 32.6861 57.3827 33.2385C57.3457 33.2525 57.3725 33.3009 57.4021 33.2897C58.8823 32.8652 60.3354 32.3243 61.7833 31.8145L61.78 31.806Z" fill="#F3F3F3"/>
<path d="M60.5785 31.7162C60.6155 31.7022 60.5929 31.6425 60.5559 31.6565C59.819 31.8772 59.1005 32.1691 58.3604 32.3813C57.6203 32.5935 56.8746 32.7688 56.1313 32.9725C56.0943 32.9865 56.1137 33.0377 56.1539 33.0322C57.6452 32.8377 59.2683 32.3884 60.5859 31.7134L60.5785 31.7162Z" fill="#F3F3F3"/>
<path d="M59.7629 31.3047C59.7629 31.3047 59.768 31.2735 59.7532 31.2791C58.7009 31.7169 57.6141 32.041 56.5124 32.3707C56.4828 32.382 56.499 32.4246 56.5286 32.4134C57.6575 32.2002 58.7416 31.7795 59.7596 31.2961L59.7629 31.3047Z" fill="#F3F3F3"/>
<path d="M58.7686 30.8038C58.7686 30.8038 58.7823 30.7506 58.7527 30.7619C57.8439 31.0871 56.9457 31.4179 56.0433 31.76C56.0285 31.7656 56.0381 31.7907 56.0529 31.7851C56.9648 31.4683 57.863 31.1375 58.7686 30.8038Z" fill="#F3F3F3"/>
<path d="M62.9312 32.6335C62.9312 32.6335 62.9354 32.6225 62.928 32.6253C62.6174 32.743 62.3141 32.858 62.0065 32.9839L62.0096 32.9921C62.3203 32.8744 62.6236 32.7594 62.9343 32.6417L62.9312 32.6335Z" fill="#F3F3F3"/>
<path d="M64.3023 32.679L64.2959 32.6619C63.2459 33.1281 62.2677 33.5379 61.1175 33.7397C61.088 33.7509 61.0935 33.7878 61.1263 33.7851C62.2431 33.674 63.4211 33.3446 64.313 32.6847L64.3023 32.679Z" fill="#F3F3F3"/>
<path d="M64.8808 33.1808C64.9178 33.1668 64.8984 33.1156 64.8582 33.1211C63.8379 33.42 62.8251 33.7161 61.8177 34.0491C61.7955 34.0575 61.8126 34.0803 61.8274 34.0747C62.8542 33.7929 63.8638 33.4883 64.8776 33.1723L64.8808 33.1808Z" fill="#F3F3F3"/>
<path d="M64.9604 33.7926C64.9604 33.7926 64.9697 33.7501 64.9475 33.7585C64.0081 34.1146 63.0331 34.3768 62.0355 34.5793C62.0207 34.5849 62.0272 34.6019 62.042 34.5963C63.0525 34.4279 64.0168 34.16 64.9678 33.7898L64.9604 33.7926Z" fill="#F3F3F3"/>
<path d="M64.576 34.6968C64.576 34.6968 64.5802 34.6856 64.5728 34.6884C63.5319 34.8882 62.4932 35.1164 61.4578 35.3531C61.4504 35.3559 61.4494 35.3757 61.4642 35.3701C62.5019 35.1617 63.5438 34.9421 64.576 34.6968Z" fill="#F3F3F3"/>
<path d="M64.3968 35.4953C62.8266 35.7497 61.2488 35.7831 59.6657 35.6239C59.6297 35.6181 59.631 35.6663 59.6596 35.6749C61.2422 35.9219 62.8496 35.8773 64.4078 35.569C64.4521 35.5522 64.4476 35.4955 64.3968 35.4953Z" fill="#F3F3F3"/>
<path d="M63.3158 36.4597C61.5537 36.4754 59.8422 36.2675 58.1132 35.9689C58.0845 35.9603 58.0711 36.0141 58.0965 36.0142C59.7912 36.4231 61.5647 36.5491 63.313 36.5192C63.3458 36.5165 63.3487 36.457 63.3085 36.4625L63.3158 36.4597Z" fill="#F3F3F3"/>
<path d="M25.7038 22.2437C27.0909 21.6401 28.5167 21.1387 29.9231 20.5861C29.9749 20.5665 29.9384 20.4927 29.894 20.5096C28.4 20.9201 26.9482 21.5092 25.539 22.1212C24.2079 22.6938 22.7847 23.2916 21.6012 24.1198C21.5716 24.131 21.5984 24.1793 21.628 24.168C23.0206 23.6013 24.3316 22.8416 25.7112 22.2409L25.7038 22.2437Z" fill="#F3F3F3"/>
<path d="M28.6741 21.5077C28.7185 21.4909 28.6852 21.4255 28.6514 21.448C27.0925 22.1559 25.4813 22.8153 23.9792 23.6285C23.9422 23.6425 23.9649 23.7022 24.0019 23.6882C25.5973 23.0543 27.1281 22.2497 28.6773 21.5163L28.6741 21.5077Z" fill="#F3F3F3"/>
<path d="M29.3055 21.813C29.3055 21.813 29.3106 21.7818 29.2958 21.7875C28.1941 22.2733 27.0721 22.7278 26.0046 23.2592C25.9824 23.2676 25.9953 23.3018 26.0175 23.2933C27.1321 22.8416 28.2177 22.3131 29.3055 21.813Z" fill="#F3F3F3"/>
<path d="M28.7732 23.3095C29.618 22.8823 30.4992 22.5288 31.3997 22.2264C31.4367 22.2124 31.41 22.1642 31.3804 22.1754C30.3601 22.4744 29.3518 22.8274 28.3832 23.2626C27.6374 23.594 26.7732 23.9702 26.2046 24.5458C26.1625 24.591 26.2254 24.645 26.2771 24.6254C27.1597 24.3201 27.9432 23.7312 28.7732 23.3095Z" fill="#F3F3F3"/>
<path d="M28.2772 24.5008C28.5662 24.3035 28.8551 24.1062 29.1473 23.9174C29.1621 23.9118 29.1418 23.8805 29.1376 23.8918C28.8316 24.0663 28.519 24.2238 28.2065 24.3813C27.9573 24.505 27.6836 24.6087 27.4996 24.815C27.4649 24.8574 27.512 24.9371 27.5638 24.9175C27.8398 24.8422 28.0589 24.6615 28.2878 24.5065L28.2772 24.5008Z" fill="#F3F3F3"/>
<path d="M40.6677 40.4975C37.4818 38.2301 34.8716 35.3162 32.9582 32.0311C32.955 32.0225 32.9328 32.031 32.936 32.0395C34.78 35.4093 37.4227 38.2525 40.6519 40.523C40.6658 40.5372 40.6815 40.5118 40.6677 40.4975Z" fill="#F3F3F3"/>
<path d="M29.4622 36.1788C28.6366 33.8442 27.5137 31.5735 26.4102 29.3539L26.4028 29.3567C27.3172 31.6577 28.2403 34.0041 29.4326 36.19C29.4423 36.2156 29.4761 36.193 29.4696 36.176L29.4622 36.1788Z" fill="#F3F3F3"/>
<path d="M45.9562 40.1187C44.4658 39.3112 43.1544 38.3287 41.9217 37.219C41.8833 37.1849 41.8232 37.2271 41.8574 37.2726C42.9596 38.5291 44.381 39.4893 45.9437 40.1527C45.965 40.1641 45.9807 40.1387 45.9636 40.1159L45.9562 40.1187Z" fill="#F3F3F3"/>
<path d="M44.3408 40.0111C43.3517 39.2764 42.3853 38.4454 41.311 37.8207C41.2547 37.7837 41.2001 37.8628 41.249 37.9027C42.1655 38.7136 43.2781 39.3724 44.2829 40.0817C44.3286 40.1131 44.3865 40.0425 44.3408 40.0111Z" fill="#F3F3F3"/>
<path d="M46.9992 39.412C46.5864 39.0817 46.1569 38.7968 45.6895 38.5456C45.6544 38.52 45.6155 38.5737 45.6506 38.5993C46.075 38.9154 46.5234 39.1835 46.995 39.4233C46.995 39.4233 47.0098 39.4177 47.0024 39.4205L46.9992 39.412Z" fill="#F3F3F3"/>
<path d="M54.524 39.0909C54.524 39.0909 54.5471 39.0626 54.5291 39.0597C52.7576 38.7383 50.7626 38.7644 49.1008 39.4915C49.0639 39.5055 49.079 39.5679 49.1267 39.5596C50.9392 39.0965 52.6415 38.8115 54.524 39.0909Z" fill="#F3F3F3"/>
<path d="M51.9638 38.2517C52.0156 38.2321 52.0045 38.1582 51.9527 38.1778C50.9986 38.3834 49.9613 38.5034 49.0547 38.8568C49.0177 38.8708 49.0371 38.922 49.0773 38.9165C50.0513 38.8302 51.03 38.4886 51.9712 38.2489L51.9638 38.2517Z" fill="#F3F3F3"/>
<path d="M24.1896 34.5857C23.3939 33.2228 22.7247 31.9482 22.45 30.3976C22.4293 30.2984 22.2685 30.3204 22.2818 30.4224C22.4091 31.9413 22.9402 33.5213 24.0735 34.6589C24.1257 34.7072 24.2367 34.6652 24.2002 34.5914L24.1896 34.5857Z" fill="#F3F3F3"/>
<path d="M3.65954 22.6939C3.65954 22.6939 3.568 22.6318 3.52224 22.6008C3.48711 22.5754 3.4479 22.6289 3.49046 22.6515C3.54045 22.6713 3.59366 22.6995 3.63621 22.722C3.65749 22.7333 3.68082 22.7051 3.65633 22.6854L3.65954 22.6939Z" fill="#F3F3F3"/>
<path d="M7.40769 23.9219C6.66297 23.698 5.90251 23.4995 5.14622 23.2897C5.13143 23.2954 5.14622 23.2897 5.14622 23.2897C5.89512 23.5023 6.64724 23.7234 7.40031 23.9247C7.4077 23.9219 7.41508 23.9191 7.40446 23.9134L7.40769 23.9219Z" fill="#F3F3F3"/>
<path d="M18.7245 25.3655C15.5016 24.942 12.2767 24.5582 9.05475 24.1149C9.01871 24.1091 9.01264 24.16 9.04868 24.1658C12.1969 24.861 15.4804 25.3102 18.7162 25.3881C18.731 25.3825 18.7393 25.3599 18.7213 25.357L18.7245 25.3655Z" fill="#F3F3F3"/>
<path d="M27.591 27.6702C25.4803 26.9225 23.3321 26.2767 21.1871 25.6393C21.1118 25.6192 21.0594 25.7266 21.1454 25.7525C23.2769 26.4436 25.4159 27.1319 27.5818 27.7127C27.6104 27.7213 27.6229 27.6874 27.6017 27.676L27.591 27.6702Z" fill="#F3F3F3"/>
</svg>
