<svg width="112" height="166" viewBox="0 0 112 166" fill="none" xmlns="http://www.w3.org/2000/svg">
<path d="M1.26189 22.1184C1.84892 24.6878 2.45053 27.2958 3.61624 29.5754C5.24335 32.7459 8.00591 35.0545 10.5028 37.0498C15.4005 40.9712 20.6008 42.6289 26.103 43.9608C30.6947 45.0741 35.392 45.8744 39.7452 48.4608C43.0273 50.4052 45.9447 53.1835 48.6412 56.2569C50.5615 58.1801 52.3275 60.3292 53.9179 62.668C56.4549 65.7491 58.9689 68.9533 60.2595 72.9912C61.6124 77.2344 62.0271 81.8596 62.1746 86.3923C62.3924 89.0489 62.4283 91.6951 62.2785 94.3412C62.2721 99.6721 61.922 104.851 62.231 110.239C62.3137 111.722 62.4521 113.475 62.3504 115.126C62.4249 115.159 62.4994 115.193 62.5749 115.208C63.1303 117.041 63.8138 118.64 64.9554 120.101C66.6043 122.206 67.7488 122.777 67.4154 125.898C66.92 130.551 67.3739 135.443 68.6736 140.076C70.4997 146.588 75.5273 157.506 82.1221 155.659C83.2491 155.346 82.8626 153.388 81.7031 153.431C74.1512 153.712 70.2701 138.247 70.005 131.301C69.9309 129.33 70.4421 127.005 70.4218 124.829C70.6359 124.985 70.8615 125.111 71.0967 125.18C73.3062 125.867 76.2476 123.81 78.3707 122.186C78.4677 122.299 78.5965 122.373 78.7242 122.404C80.7869 112.375 81.6027 101.831 82.6355 91.4523C83.3392 84.3687 83.1221 77.2642 82.1574 70.1876C81.2139 66.9429 80.5729 63.6189 79.7298 60.2922C78.1714 54.1188 75.0822 49.3358 71.6281 44.427C65.5903 35.8647 58.4125 29.6016 49.5215 27.4931C46.2489 26.7166 42.8834 26.3892 39.5698 26.3416C33.0274 27.8171 26.3671 30.6145 19.54 27.6445C13.9908 25.2295 7.02751 20.1446 1.27926 22.103L1.26189 22.1184ZM71.6396 122.755C71.6844 122.016 71.792 121.279 71.9055 120.558C72.0142 119.865 72.1993 119.17 72.2393 118.459C73.8867 119.05 75.5198 119.726 77.1435 120.519C76.1442 121.251 74.8645 122.079 73.6875 122.525C73.8282 122.304 73.9341 122.053 73.9992 121.755C74.0988 121.304 74.1664 120.441 73.7209 120.143C73.5543 120.03 73.3898 120.005 73.2402 120.141C72.9757 120.382 73.0282 120.908 72.972 121.29C72.9205 121.644 72.7985 122.017 72.6474 122.312C72.5588 122.486 72.5698 122.658 72.6388 122.799C72.2781 122.848 71.9329 122.855 71.6358 122.765L71.6396 122.755ZM68.8731 117.374C69.6608 117.595 70.4477 117.834 71.2268 118.094C70.7856 119.318 70.8229 120.845 70.9054 122.267C70.0599 121.302 69.4475 119.094 68.8731 117.374ZM66.0107 116.68C66.3222 116.747 66.6338 116.814 66.9483 116.888C67.0401 117.294 67.1495 117.746 67.2608 118.223C66.8283 117.735 66.3997 117.237 66.0039 116.683L66.0107 116.68ZM3.46175 22.7995C3.83296 22.2889 4.36998 21.9709 5.01315 21.9737C7.67481 21.9954 9.98541 23.7442 12.4008 25.198C12.5935 25.3187 12.7968 25.4266 12.9896 25.5473C14.0485 25.9122 15.1103 26.2848 16.1759 26.6472C21.9786 31.2825 31.3504 28.6993 37.1072 28.825C42.6222 28.9454 48.6403 29.1482 54.0863 31.3117C59.3766 33.4109 64.0939 37.9378 68.0914 42.7905C76.873 53.4483 80.8934 67.6281 81.4979 81.8782C81.7688 88.3899 81.3994 94.8448 80.7105 101.192C80.0747 107.025 78.6757 112.866 78.2576 118.785C74.877 116.887 71.4248 115.412 67.8923 114.338C67.8419 114.286 67.7915 114.235 67.7382 114.176C67.6095 114.163 67.4809 114.15 67.3522 114.137C67.2729 114.132 67.2012 114.106 67.1287 114.099C67.1287 114.099 67.0793 114.091 67.0465 114.086C66.9448 114.063 66.85 114.037 66.7552 114.011C65.7419 113.726 64.7171 113.471 63.6905 113.253C63.677 113.258 63.6605 113.255 63.6508 113.25C63.5419 111.248 63.5965 109.29 63.7295 107.355C63.7605 107.396 63.7916 107.437 63.8197 107.47C63.8125 107.288 63.8053 107.106 63.8049 106.921C63.7894 106.9 63.77 106.89 63.7545 106.87C63.7619 106.726 63.7761 106.58 63.7932 106.441C63.6878 96.9778 65.3966 87.4435 63.0031 78.046C60.6134 68.6383 54.2462 61.5748 48.3388 55.1121C41.4958 47.63 34.2377 44.7882 25.8366 42.0537C24.7246 41.6913 23.6462 41.2545 22.5841 40.7587C22.5289 40.7356 22.4699 40.7227 22.4079 40.7022C22.2289 40.6379 22.0536 40.5634 21.8746 40.4992C17.7577 40.2099 13.4757 38.7502 9.88586 35.8304C6.92872 33.4371 3.07042 29.4212 2.87449 24.8628C2.85814 24.4727 2.90374 24.1031 2.99098 23.7618C2.79955 23.3587 2.6178 22.9608 2.43697 22.545C2.77468 22.6195 3.10468 22.7146 3.44531 22.7969L3.46175 22.7995Z" fill="#F3F3F3"/>
<path d="M44.4176 31.6822C52.4353 32.5275 61.0543 35.8575 66.7594 43.9294C66.9573 44.2067 66.6465 44.5094 66.4409 44.2527C60.147 36.6682 52.4481 34.3369 44.4092 32.2314C44.1247 32.1543 44.1245 31.6435 44.4244 31.6796L44.4176 31.6822Z" fill="#F3F3F3"/>
<path d="M55.9196 37.5572C56.0658 37.6163 55.9987 37.8883 55.8525 37.8292C53.2223 36.7476 50.5727 36.0432 47.8874 35.3875C47.7664 35.3541 47.7707 35.1411 47.8926 35.1565C50.6063 35.5196 53.2913 36.4396 55.9158 37.5675L55.9196 37.5572Z" fill="#F3F3F3"/>
<path d="M37.1831 30.822C37.2392 30.8272 37.2337 30.935 37.1775 30.9298C34.2938 30.6488 31.3816 30.5988 28.5012 30.0612C28.2845 30.02 28.2942 29.6376 28.509 29.6531C31.3866 29.7955 34.2953 30.4281 37.1764 30.8246L37.1831 30.822Z" fill="#F3F3F3"/>
<path d="M77.553 104.414C77.4942 107.545 77.0603 110.686 76.6183 113.725C76.5851 113.984 76.2395 113.869 76.2496 113.61C76.3635 110.501 76.63 107.265 77.3604 104.355C77.3939 104.219 77.5633 104.278 77.5627 104.419L77.553 104.414Z" fill="#F3F3F3"/>
<path d="M78.0327 83.6144C78.172 88.3704 78.0733 93.0493 77.6437 97.7127C77.6427 97.7306 77.6098 97.7255 77.6108 97.7075C77.8653 93.0312 78.0085 88.3267 77.9737 83.6015C77.9726 83.5579 78.0287 83.563 78.0327 83.6144Z" fill="#F3F3F3"/>
<path d="M71.1943 55.4685C75.2654 59.9234 76.1725 66.3172 76.9714 72.3645C76.9783 72.4236 76.9115 72.4313 76.8979 72.3748C75.8945 66.1759 74.5892 60.6905 71.0449 55.6661C70.9585 55.5403 71.0877 55.3504 71.1914 55.4608L71.1943 55.4685Z" fill="#F3F3F3"/>
<path d="M75.4985 58.1087C78.9829 66.1591 80.1933 74.5782 79.6439 83.171C79.6346 83.3507 79.3976 83.3172 79.4137 83.135C79.9151 74.7012 78.3793 66.1589 75.4338 58.142C75.4133 58.0881 75.4781 58.0548 75.4985 58.1087Z" fill="#F3F3F3"/>
<path d="M69.1038 47.973C69.5663 48.9075 69.9792 49.711 70.7215 50.3632C70.9531 50.5661 70.7326 50.9844 70.501 50.7815C69.7586 50.1292 69.0321 49.1716 68.783 48.0858C68.7264 47.8342 69.0047 47.7728 69.1038 47.973Z" fill="#F3F3F3"/>
<path d="M78.2845 106.427C78.6168 109.692 78.3993 113.2 77.3971 116.108C77.3355 116.272 77.1516 116.174 77.1705 116C77.5811 112.797 77.9756 109.714 78.0659 106.421C78.0733 106.278 78.2696 106.265 78.2815 106.419L78.2845 106.427Z" fill="#F3F3F3"/>
<path d="M71.4145 51.0694C73.1391 52.8642 74.1856 55.4621 74.9041 57.9905C75.0075 58.3653 74.5011 58.5396 74.3909 58.1674C73.6299 55.6287 72.4134 53.562 71.1974 51.2926C71.1129 51.1308 71.2914 50.9487 71.4145 51.0694Z" fill="#F3F3F3"/>
<path d="M54.3797 32.8825C54.4765 32.9339 54.4344 33.1084 54.3337 33.0673C48.7216 30.6497 43.199 29.7131 37.4948 30.1752C37.3681 30.1879 37.3173 29.9518 37.4478 29.9288C43.1071 28.8583 48.864 29.8823 54.3826 32.8902L54.3797 32.8825Z" fill="#F3F3F3"/>
<path d="M64.5321 44.6856L64.7276 44.8321C64.8268 44.9093 64.727 45.0972 64.6385 45.0071C64.5782 44.9506 64.5149 44.8863 64.4546 44.8297C64.3788 44.7525 64.4456 44.6213 64.5321 44.6856Z" fill="#F3F3F3"/>
<path d="M80.651 88.708C80.6905 93.7925 79.6651 98.8842 78.7504 103.696C78.693 103.973 78.3638 103.799 78.4009 103.529C79.1065 98.594 79.3454 93.448 80.1942 88.5641C80.2505 88.2433 80.6474 88.3923 80.651 88.708Z" fill="#F3F3F3"/>
<path d="M2.2452 22.5736C2.2452 22.5736 2.28764 22.5222 2.32146 22.5094C4.77914 21.2785 7.35374 22.1523 9.85888 23.5367C13.2539 25.4118 16.509 26.9789 20.1335 27.6221C26.8105 28.8082 33.1598 27.4763 39.6703 26.8759C40.0068 26.8453 40.0876 27.528 39.7686 27.6049C33.9593 29.0756 27.632 29.8532 21.5449 29.06C18.6726 28.6866 15.7974 27.918 13.038 26.577C9.78672 24.9997 6.21979 21.9567 2.84906 23.5953C2.75052 23.6415 2.64798 23.6363 2.56283 23.6157C7.88159 43.1603 28.1924 40.7821 40.5195 46.7317C46.1526 49.4496 50.7219 56.1376 54.6582 61.7269C58.5421 67.2391 62.4534 73.7625 63.3583 80.9059C63.4095 81.3268 62.9307 81.2881 62.8188 80.9518C59.8108 72.2805 55.7856 65.4566 50.3822 58.6091C47.9138 55.4845 45.3735 51.8234 42.2874 49.6815C38.8941 47.3213 34.8243 46.4418 31.1557 45.4983C20.0753 42.6343 4.59901 39.6837 1.26067 23.0172C1.09931 22.224 1.94007 21.9318 2.23936 22.5582L2.2452 22.5736Z" fill="#F3F3F3"/>
<path d="M43.8884 46.2122C47.2984 49.1473 50.4765 52.5931 53.3901 56.28C56.2542 59.8976 59.1764 63.9336 61.2433 68.2849C61.2667 68.3465 61.2039 68.4056 61.167 68.3491C58.6223 64.3902 56.2592 60.3802 53.3931 56.7369C50.4183 52.9498 47.1709 49.6272 43.7614 46.4893C43.6189 46.3584 43.7324 46.0864 43.8816 46.2148L43.8884 46.2122Z" fill="#F3F3F3"/>
<path d="M44.4365 44.5954C49.426 47.5749 53.7747 52.9461 57.0946 58.3991C57.1558 58.4992 57.0265 58.6275 56.9557 58.5222C53.3712 52.8613 49.0835 48.8144 44.3691 44.7443C44.2868 44.6698 44.3503 44.5312 44.4403 44.5852L44.4365 44.5954Z" fill="#F3F3F3"/>
<path d="M54.4853 52.5358C54.5464 52.6359 54.4142 52.7565 54.3531 52.6564C52.1277 49.2547 49.3838 47.0359 46.2693 45.1866C46.1695 45.1275 46.232 44.9453 46.3297 44.9787C49.5957 46.207 52.4118 49.147 54.4853 52.5358Z" fill="#F3F3F3"/>
<path d="M3.7144 25.9183C4.04872 26.6371 4.40518 27.3123 4.78286 27.9618C8.54377 32.9658 12.9048 36.4916 18.1285 38.6601C24.3618 41.2474 30.8797 41.7892 37.2372 42.3566C37.3987 42.3746 37.4129 42.6775 37.2475 42.6697C34.6068 42.4992 31.9429 42.3286 29.2902 42.0041C33.9735 43.0122 38.6768 43.8895 43.3279 45.2005C43.4489 45.2339 43.4359 45.4854 43.3111 45.4622C39.1258 44.8291 34.9416 43.8519 30.7654 42.9775C26.9665 42.1802 23.1399 41.4727 19.3874 40.2263C13.5385 38.286 7.14455 34.3768 3.9761 27.4661C3.89743 27.3198 3.80816 27.1863 3.72949 27.0399C3.69938 26.9809 3.70893 26.9244 3.72431 26.8834C3.62123 26.6318 3.50753 26.3931 3.40829 26.1312C3.30613 25.8617 3.59195 25.6565 3.71732 25.926L3.7144 25.9183Z" fill="#F3F3F3"/>
<path d="M5.14051 27.4565C7.3772 30.3167 9.80842 32.8125 12.6453 34.6437C15.6624 36.5828 18.7332 37.4799 21.9755 38.0742C22.0906 38.0922 22.0968 38.2924 21.9837 38.3C15.8424 38.3641 8.94333 33.8978 4.94569 27.6977C4.82922 27.5128 4.99698 27.2819 5.14051 27.4565Z" fill="#F3F3F3"/>
<path d="M7.78264 28.3046C8.45518 28.8952 9.01499 29.6782 9.67983 30.2894C10.3447 30.9005 11.0606 31.4219 11.7966 31.8739C11.9187 31.9509 11.8457 32.2076 11.7198 32.1408C10.2974 31.3676 8.49974 30.217 7.55891 28.5919C7.45212 28.4122 7.64601 28.189 7.78556 28.3123L7.78264 28.3046Z" fill="#F3F3F3"/>
<path d="M58.6763 52.6735C58.7742 52.7685 58.6943 52.9661 58.5897 52.8737C56.7202 51.1866 54.8325 49.5329 52.8447 48.0844C50.7067 46.5256 48.5032 45.5288 46.2241 44.455C46.0914 44.3907 46.0956 44.1161 46.2437 44.1393C50.8024 44.7983 55.0427 49.2507 58.6763 52.6735Z" fill="#F3F3F3"/>
<path d="M57.6769 49.0363C57.7874 49.1441 57.7029 49.3699 57.5788 49.2672C54.3094 46.499 50.9006 44.955 47.1546 44.032C47.0269 44.0011 47.0467 43.747 47.1753 43.7599C50.8957 44.0849 54.6239 46.1244 57.6799 49.044L57.6769 49.0363Z" fill="#F3F3F3"/>
<path d="M30.0077 40.3055C31.7751 40.4988 33.5434 40.6125 35.3059 40.7724C38.7545 41.0947 42.1437 41.6685 45.4542 43.3203C45.5771 43.3794 45.5419 43.6129 45.4121 43.5564C41.8341 42.0149 38.1521 41.5872 34.4927 41.3008C31.256 41.0478 27.6131 41.2131 24.4492 39.7436C24.3262 39.6845 24.3383 39.451 24.4698 39.4716C26.3117 39.6366 28.161 40.1071 30.0077 40.3055Z" fill="#F3F3F3"/>
<path d="M38.3225 39.8933C38.4899 39.9268 38.51 40.245 38.3319 40.2244C35.2149 39.8381 32.1132 39.7982 29.0069 39.4607C28.8221 39.4426 28.8185 39.1269 28.9916 39.1142C32.027 38.8973 35.2525 39.3658 38.3225 39.8933Z" fill="#F3F3F3"/>
<path d="M41.3742 32.7386C41.4932 32.7464 41.5402 32.9928 41.4135 33.0056C37.7585 33.4044 33.8337 33.7646 30.1133 33.4396C29.9517 33.4216 29.8978 33.1161 30.0621 33.0803C33.6526 32.3888 37.6742 32.4676 41.3742 32.7386Z" fill="#F3F3F3"/>
<path d="M60.9435 69.35C64.2574 74.2768 65.1467 80.9504 65.2702 86.8486C65.4266 94.4869 64.2954 101.953 65.1647 109.656C65.1883 109.84 64.935 109.866 64.9114 109.681C62.7899 96.1028 67.4026 82.4734 60.6201 69.6399C60.4871 69.3909 60.7834 69.1113 60.9435 69.35Z" fill="#F3F3F3"/>
<path d="M58.942 57.0471C64.267 63.0347 67.9167 73.6031 67.2294 81.9751C67.2191 82.1112 67.0458 82.0623 67.0359 81.934C66.6517 77.5526 66.1926 73.3406 64.8088 69.1179C63.3617 64.7078 61.2053 60.9981 58.7472 57.2883C58.6239 57.106 58.7946 56.8828 58.942 57.0471Z" fill="#F3F3F3"/>
<path d="M58.4988 53.9389C61.5482 56.9226 63.8458 61.4947 65.4782 65.7201C65.5686 65.9588 65.3041 66.1384 65.2068 65.9022C63.3825 61.4766 60.8939 57.972 58.3214 54.1646C58.2011 53.9901 58.3631 53.8053 58.5056 53.9363L58.4988 53.9389Z" fill="#F3F3F3"/>
<path d="M60.5161 53.5265C61.7918 54.3817 62.7809 56.42 63.4487 57.9372C63.5644 58.2016 63.2621 58.4042 63.1397 58.1424C62.7267 57.2773 62.2481 56.4634 61.7038 55.7009C61.2459 55.0642 60.6875 54.5096 60.2788 53.819C60.1565 53.6187 60.3689 53.4237 60.5161 53.5265Z" fill="#F3F3F3"/>
<path d="M65.2095 111.162C66.3722 112.087 67.4425 113.257 68.5388 114.313C68.6871 114.459 68.5591 114.754 68.4108 114.608C67.3049 113.547 66.1159 112.554 65.0823 111.378C64.9853 111.265 65.0981 111.072 65.2095 111.162Z" fill="#F3F3F3"/>
<path d="M64.9149 109.099C66.7989 110.824 68.6002 112.74 70.4544 114.529C70.5552 114.632 70.4821 114.827 70.3639 114.74C68.432 113.235 66.3756 111.381 64.78 109.335C64.6869 109.211 64.7976 108.993 64.9178 109.106L64.9149 109.099Z" fill="#F3F3F3"/>
<path d="M64.4051 106.508C66.8911 108.842 69.2769 111.382 71.7514 113.747C71.8522 113.849 71.7724 114.047 71.661 113.957C69.1203 111.846 66.46 109.42 64.274 106.734C64.1771 106.621 64.2907 106.411 64.408 106.516L64.4051 106.508Z" fill="#F3F3F3"/>
<path d="M64.2981 103.837C66.7011 106.237 68.9921 108.751 71.5252 110.944C71.6299 111.037 71.5462 111.244 71.4347 111.155C68.9106 109.046 66.3076 106.73 64.2123 103.957C64.1502 103.875 64.2351 103.772 64.301 103.844L64.2981 103.837Z" fill="#F3F3F3"/>
<path d="M64.8489 101.514C66.3727 103.024 67.7973 104.721 69.2632 106.323C69.3572 106.428 69.2299 106.582 69.1359 106.477C67.6661 104.885 66.1307 103.344 64.7255 101.657C64.6382 101.55 64.7578 101.416 64.846 101.506L64.8489 101.514Z" fill="#F3F3F3"/>
<path d="M65.0802 99.3299C66.9246 101.053 68.6602 103.02 70.4255 104.861C70.5419 104.984 70.3895 105.174 70.2664 105.053C68.5001 103.23 66.6441 101.476 64.9501 99.5378C64.856 99.4325 64.9726 99.2298 65.0802 99.3299Z" fill="#F3F3F3"/>
<path d="M64.8617 96.5681C66.7795 98.2809 68.5011 100.456 70.3419 102.312C70.4398 102.407 70.3233 102.61 70.2225 102.507C68.3779 100.722 66.3196 98.9044 64.7634 96.7375C64.6984 96.6476 64.7764 96.486 64.8617 96.5681Z" fill="#F3F3F3"/>
<path d="M64.4542 94.2476C66.4914 95.7037 68.3736 97.9144 70.2404 99.7169C70.3887 99.8633 70.2607 100.158 70.1124 100.012C68.2118 98.2223 66.0233 96.5505 64.3347 94.4426C64.2445 94.327 64.3457 94.1654 64.4542 94.2476Z" fill="#F3F3F3"/>
<path d="M65.0461 92.6668C66.7605 93.8225 68.3436 95.4684 69.8163 97.068C69.951 97.2195 69.7707 97.4376 69.6321 97.2964C68.1332 95.689 66.5238 94.3614 64.9479 92.8977C64.8306 92.7925 64.9143 92.5846 65.0461 92.6668Z" fill="#F3F3F3"/>
<path d="M65.8641 90.8244C66.552 91.3739 67.187 92.0492 67.8277 92.6783C68.0206 92.8606 70.092 94.9379 70.1835 94.3219C70.1987 94.2193 70.3042 94.2321 70.3402 94.3066C70.3604 94.2989 70.3828 94.3169 70.3809 94.3528L70.3842 94.5453C70.3882 94.5967 70.3253 94.5941 70.3213 94.5427C70.139 95.1843 69.4471 94.5834 69.1118 94.2702C67.9817 93.2276 66.7782 92.1953 65.7417 91.0116C65.6476 90.9064 65.7594 90.7319 65.8611 90.8166L65.8641 90.8244Z" fill="#F3F3F3"/>
<path d="M65.6389 88.4347C67.1104 89.48 68.4771 90.8203 69.8706 92.0273C70.0324 92.1685 69.8977 92.4661 69.7387 92.3326C68.325 91.1334 66.8378 90.006 65.5185 88.6477C65.4148 88.5373 65.5333 88.3602 65.6486 88.4399L65.6389 88.4347Z" fill="#F3F3F3"/>
<path d="M65.1782 85.3595C66.6421 86.4869 68.0071 87.9248 69.3833 89.2087C69.5132 89.3268 69.4044 89.5706 69.2746 89.4524C67.8674 88.1891 66.3608 86.9898 65.0413 85.5699C64.9346 85.4518 65.0609 85.2542 65.1753 85.3518L65.1782 85.3595Z" fill="#F3F3F3"/>
<path d="M64.5739 82.6645C66.6033 84.0796 68.4807 85.8693 70.2895 87.7027C70.4155 87.8311 70.2564 88.0235 70.1304 87.8951C68.3168 86.09 66.4001 84.4825 64.5104 82.8031C64.4309 82.7363 64.4945 82.5977 64.571 82.6568L64.5739 82.6645Z" fill="#F3F3F3"/>
<path d="M63.9924 79.9873C65.5734 81.6075 67.1207 83.2406 68.8145 84.6684C68.9133 84.7454 68.8306 84.9353 68.7356 84.848C67.0438 83.4459 65.3391 81.9077 63.8969 80.1028C63.8348 80.0206 63.9197 79.918 63.9856 79.9899L63.9924 79.9873Z" fill="#F3F3F3"/>
<path d="M62.6017 76.8066C64.9667 78.6581 67.2181 80.7817 69.4993 82.7795C69.604 82.8719 69.5144 83.0644 69.4127 82.9797C67.1171 81.005 64.7375 79.1149 62.5189 76.9965C62.4307 76.9066 62.4961 76.7321 62.5978 76.8168L62.6017 76.8066Z" fill="#F3F3F3"/>
<path d="M62.1993 74.6427C64.67 76.1812 67.0111 78.1739 69.2605 80.2102C69.3651 80.3026 69.2785 80.5028 69.1739 80.4104C66.8839 78.3894 64.4922 76.6713 62.0974 74.8839C61.9666 74.7838 62.0676 74.5605 62.1993 74.6427Z" fill="#F3F3F3"/>
<path d="M69.0419 77.8797C69.164 78.0184 69.0049 78.2108 68.8789 78.0824C66.2459 75.3196 63.4529 73.6655 60.3697 71.9805C60.1925 71.8803 60.2382 71.5723 60.4308 71.6314C63.5724 72.6338 66.5956 75.1606 69.0419 77.8797Z" fill="#F3F3F3"/>
<path d="M66.9089 72.7609C67.0377 72.8353 66.9396 73.0663 66.8108 72.9918C63.7894 71.2657 60.7236 70.0145 57.617 68.6554C57.5357 68.6246 57.5595 68.4834 57.6447 68.504C60.8006 69.4216 63.9292 71.063 66.9119 72.7686L66.9089 72.7609Z" fill="#F3F3F3"/>
<path d="M67.5104 70.6128C67.6363 70.6796 67.5972 70.9234 67.4675 70.8669C63.4265 69.0429 59.3094 67.4061 55.2924 65.5025C55.1501 65.4332 55.1931 65.1791 55.3431 65.2279C59.4214 66.4565 63.6206 68.4937 67.5133 70.6205L67.5104 70.6128Z" fill="#F3F3F3"/>
<path d="M66.2378 68.092C66.3822 68.187 66.2939 68.4847 66.1457 68.3999C62.3197 66.2654 58.5914 65.001 54.5856 63.7801C54.4385 63.739 54.463 63.4567 54.6081 63.4721C58.5115 63.9127 62.66 65.7753 66.2311 68.0945L66.2378 68.092Z" fill="#F3F3F3"/>
<path d="M66.3639 65.3844C66.5015 65.482 66.3927 65.7258 66.2552 65.6282C62.1257 62.7544 57.79 61.8876 53.3527 60.6101C53.222 60.5715 53.2389 60.3097 53.3734 60.338C57.7728 61.1278 62.3814 62.4901 66.3707 65.3819L66.3639 65.3844Z" fill="#F3F3F3"/>
<path d="M63.7156 61.6409C63.8356 61.6923 63.7974 61.9181 63.6774 61.8667C59.7529 60.2275 55.8259 59.2146 51.8491 58.0091C51.7349 57.9732 51.7499 57.7473 51.865 57.7653C55.8356 58.383 59.8819 59.9761 63.7223 61.6383L63.7156 61.6409Z" fill="#F3F3F3"/>
<path d="M63.6635 60.4011C63.8137 60.5115 63.7002 60.7835 63.5433 60.6757C59.2887 57.6555 54.4643 57.5199 49.8851 56.3579C49.7051 56.3116 49.7245 55.9343 49.9151 55.9678C54.4323 56.6601 59.5482 57.381 63.6635 60.4011Z" fill="#F3F3F3"/>
<path d="M62.0801 56.8354C62.2862 56.8893 62.2174 57.2589 62.0142 57.2126C58.4919 56.3898 54.9803 56.0033 51.4459 55.414C51.2979 55.3908 51.2789 55.1162 51.4346 55.1188C54.963 55.1819 58.5664 55.974 62.0772 56.8276L62.0801 56.8354Z" fill="#F3F3F3"/>
<path d="M75.6214 116.895C75.7703 116.9 75.7816 117.196 75.6327 117.19C74.4284 117.136 73.1803 116.904 72.0194 116.332C71.9032 116.27 71.9375 116.054 72.0575 116.106C73.2461 116.527 74.4036 116.846 75.6146 116.898L75.6214 116.895Z" fill="#F3F3F3"/>
<path d="M77.5795 115.898C77.6947 115.916 77.7067 116.131 77.5878 116.123C74.2147 115.878 70.7444 114.948 67.5335 113.232C67.4144 113.162 67.4458 112.939 67.5755 112.996C70.8941 114.424 74.1471 115.455 77.5757 115.908L77.5795 115.898Z" fill="#F3F3F3"/>
<path d="M60.3634 53.5931C57.113 54.5696 53.6248 55.143 50.167 54.6128C50.0354 54.5922 50.0213 54.3509 50.1538 54.3536C53.6202 54.3961 56.9721 54.2795 60.3 53.3441C60.4246 53.3057 60.488 53.5547 60.3634 53.5931Z" fill="#F3F3F3"/>
<path d="M61.0146 51.1269C57.0046 52.3648 52.4958 53.2458 48.2109 52.6151C48.0957 52.5971 48.0895 52.3969 48.2026 52.3893C52.5485 52.1601 56.7496 52.0387 60.957 50.8933C61.0749 50.8574 61.1296 51.0833 61.0117 51.1192L61.0146 51.1269Z" fill="#F3F3F3"/>
<path d="M59.2408 48.8751C55.5135 50.2261 51.2469 51.2971 47.1931 50.6845C47.0451 50.6613 47.0378 50.4175 47.1809 50.4073C51.3022 50.0959 55.2392 49.9513 59.1803 48.6337C59.302 48.5876 59.3558 48.8315 59.2408 48.8751Z" fill="#F3F3F3"/>
<path d="M57.3983 47.0546C53.7591 48.4338 49.6937 49.5255 45.7324 49.1773C45.6037 49.1644 45.5509 48.9026 45.6911 48.8847C49.6826 48.4552 53.5078 48.0975 57.3105 46.7003C57.4863 46.6337 57.5674 46.9905 57.3983 47.0546Z" fill="#F3F3F3"/>
<path d="M54.3912 45.4288C50.8386 46.6079 46.9881 47.7766 43.1889 47.6929C43.096 47.6928 43.0724 47.508 43.1594 47.4926C46.8869 46.6524 50.6327 46.2279 54.2917 45.0437C54.484 44.9796 54.5768 45.3673 54.3845 45.4313L54.3912 45.4288Z" fill="#F3F3F3"/>
<path d="M51.8398 43.4718C48.7237 44.8025 45.2931 46.0587 41.8831 46.1445C41.7439 46.1444 41.7113 45.8749 41.8389 45.8442C45.1989 44.9935 48.4926 44.3969 51.7217 42.9969C51.9556 42.8995 52.0766 43.3821 51.8427 43.4795L51.8398 43.4718Z" fill="#F3F3F3"/>
<path d="M48.8864 42.354C45.6893 43.7771 42.2089 44.8407 38.7121 45.0035C38.6125 45.006 38.5956 44.8187 38.6797 44.7956C42.0997 44.0014 45.4453 43.2354 48.758 42.0151C48.9136 41.9562 49.0323 42.2899 48.8864 42.354Z" fill="#F3F3F3"/>
<path d="M45.8992 40.9232C42.8963 42.6954 39.5094 44.0055 36.0345 44.0631C35.8653 44.0656 35.8103 43.7164 35.9844 43.6857C39.4203 43.0969 42.5956 42.2898 45.6777 40.4611C45.9037 40.3226 46.132 40.7821 45.8963 40.9155L45.8992 40.9232Z" fill="#F3F3F3"/>
<path d="M41.6246 40.6055C38.8156 41.7054 35.8919 42.5845 32.8817 42.827C32.7685 42.8347 32.7342 42.6011 32.8482 42.5755C35.8123 42.007 38.7191 41.3897 41.5572 40.3052C41.706 40.2488 41.7735 40.5491 41.6314 40.603L41.6246 40.6055Z" fill="#F3F3F3"/>
<path d="M38.6721 38.8359C35.2017 40.4771 31.4406 41.8409 27.6014 42.0189C27.4718 42.024 27.4354 41.7647 27.563 41.734C31.3079 40.8784 34.96 40.0843 38.5107 38.4919C38.6905 38.415 38.8556 38.7487 38.6788 38.8334L38.6721 38.8359Z" fill="#F3F3F3"/>
<path d="M36.0373 37.0689C34.0371 37.8535 32.0426 38.6534 30.0278 39.3994C28.3444 40.0198 26.5576 40.653 24.7214 40.4417C24.5599 40.4237 24.4972 40.0951 24.6674 40.0747C28.6201 39.6247 32.228 38.0811 35.9553 36.7301C36.1177 36.6686 36.1967 36.9997 36.0373 37.0689Z" fill="#F3F3F3"/>
<path d="M33.8742 36.3828C29.8066 38.2239 25.1794 39.7927 20.6544 39.5084C20.5354 39.5006 20.4914 39.2619 20.6151 39.2414C25.1222 38.458 29.4238 37.867 33.6672 35.9592C33.8846 35.8592 34.0983 36.2802 33.8742 36.3828Z" fill="#F3F3F3"/>
<path d="M28.5561 36.2933C25.0722 37.4904 21.3857 38.5001 17.6661 38.5447C17.6265 38.5421 17.608 38.5139 17.5867 38.4779C16.6216 38.5442 15.6573 38.531 14.7043 38.3638C14.6056 38.3483 14.5568 38.1378 14.6699 38.1302C17.8992 37.6901 21.0725 37.694 24.195 36.6251C24.3167 36.579 24.3831 36.8356 24.2584 36.8741C23.8361 37.0253 23.3973 37.174 22.9557 37.315C24.8059 36.9308 26.6367 36.4747 28.4526 35.8569C28.6691 35.7749 28.7784 36.2267 28.559 36.301L28.5561 36.2933Z" fill="#F3F3F3"/>
<path d="M22.9634 35.4979C19.5978 36.3947 16.0283 37.3865 12.5059 37.4004C12.3435 37.4003 12.3031 37.0897 12.4607 37.0564C15.9059 36.2879 19.4363 35.9891 22.8765 35.1257C23.0679 35.0795 23.1519 35.444 22.9702 35.4953L22.9634 35.4979Z" fill="#F3F3F3"/>
<path d="M19.9936 34.316C17.0776 35.1745 13.8073 35.8943 10.7028 35.5208C10.5345 35.5054 10.466 35.1614 10.6527 35.1435C13.7719 34.7804 16.8327 34.6508 19.8813 33.8565C20.1133 33.795 20.2226 34.2468 19.9936 34.316Z" fill="#F3F3F3"/>
<path d="M17.4411 33.011C14.7286 33.5899 11.7364 34.1251 8.9093 33.6465C8.80093 33.6259 8.74627 33.4 8.87294 33.3872C11.7128 33.1035 14.5293 33.1458 17.3288 32.5515C17.5637 32.4977 17.676 32.9572 17.4411 33.011Z" fill="#F3F3F3"/>
<path d="M16.5795 31.2062C13.5798 31.8234 10.2444 32.3918 7.12107 31.8053C6.93046 31.7718 6.91717 31.451 7.10671 31.4408C10.2582 31.224 13.3515 31.3639 16.4672 30.7467C16.705 30.7006 16.8173 31.1601 16.5795 31.2062Z" fill="#F3F3F3"/>
<path d="M14.4896 29.6115C11.6052 30.3084 8.15877 30.9717 5.13838 30.126C4.99128 30.0848 5.03329 29.8487 5.15996 29.836C6.6085 29.7185 8.09355 29.9219 9.54991 29.8455C11.1891 29.7615 12.7901 29.5158 14.3774 29.1521C14.6055 29.1008 14.7216 29.55 14.4867 29.6038L14.4896 29.6115Z" fill="#F3F3F3"/>
<path d="M3.90145 27.1685C4.65599 28.0979 7.1022 27.7961 7.99685 27.8093C9.2987 27.8356 10.5937 27.8028 11.8826 27.6929C12.0992 27.6725 12.1641 28.1499 11.9475 28.1704C10.0446 28.3543 8.14335 28.4408 6.20973 28.3193C5.37012 28.2676 4.0805 28.5186 3.68221 27.3044C3.62768 27.1401 3.80833 27.0453 3.89854 27.1608L3.90145 27.1685Z" fill="#F3F3F3"/>
<path d="M2.54563 25.4278C2.56874 25.8154 9.44449 25.9133 10.0915 25.9059C10.3536 25.9034 10.3644 26.4014 10.112 26.409C7.93604 26.485 5.7463 26.443 3.55522 26.2342C3.16247 26.1981 1.96236 26.2566 2.15567 25.3378C2.21215 25.0786 2.52372 25.1455 2.54563 25.4278Z" fill="#F3F3F3"/>
<path d="M4.5553 23.3626C5.06916 23.4937 5.59454 23.594 6.11502 23.661C6.42461 23.7022 6.45014 24.3002 6.13379 24.2616C5.21764 24.1508 4.05784 24.0708 3.2016 23.5057C3.00595 23.3773 3.09027 23.0283 3.28856 23.0412C3.71513 23.0645 4.13337 23.2495 4.5553 23.3626Z" fill="#F3F3F3"/>
<path d="M6.04038 23.0551C6.16255 23.1938 6.02475 23.4222 5.88428 23.3169C5.43473 22.9676 4.96119 22.6979 4.4521 22.5386C3.94302 22.3792 3.46051 22.4124 2.94971 22.3506C2.77847 22.3274 2.65971 21.9937 2.83943 21.9168C3.88192 21.4424 5.19008 22.118 6.03653 23.0654L6.04038 23.0551Z" fill="#F3F3F3"/>
</svg>
