<svg width="96" height="101" viewBox="0 0 96 101" fill="none" xmlns="http://www.w3.org/2000/svg">
<path d="M79.442 35.9442C80.4699 37.9335 81.4528 39.9488 82.5256 41.9122C83.6024 43.8652 84.2497 45.8829 84.5237 48.1133C85.247 53.8622 84.391 59.1404 82.3369 64.1689C81.1848 66.9933 79.9544 69.7762 79.298 72.876C78.7093 75.6384 77.034 77.6811 75.2085 79.5134C72.4137 82.319 69.0926 84.335 65.8128 86.3978C63.2296 88.0272 60.2364 87.4599 57.3303 87.3496C55.9174 87.2971 54.4769 87.1926 53.1008 87.4023C46.9752 88.3162 40.9119 87.3711 34.8837 85.094C32.3799 84.1452 30.0775 82.737 27.922 80.9523C25.5224 78.9572 23.7196 76.5131 22.7665 73.3996C22.2264 71.6442 21.4127 70.0548 20.0305 68.8858C16.0801 65.5451 13.7796 61.0444 11.9928 56.1441C10.3783 51.7399 10.03 47.3725 10.9378 42.9745C11.4827 40.3445 11.7819 37.6028 12.556 35.082C13.572 31.7745 14.7926 28.5321 16.2356 25.4637C17.0604 23.7166 18.5301 22.4736 20.3148 21.6279C22.5256 20.5851 24.5072 19.041 26.6462 17.8294C30.4161 15.6968 34.2076 13.6005 38.0413 11.595C39.8375 10.6559 41.878 10.4439 43.9177 10.7667C46.6494 11.2015 49.3774 11.7713 52.0803 12.4397C55.0318 13.1654 57.9563 14.0884 60.8933 14.8998C66.0458 16.3326 70.2732 19.2477 73.474 24.2446C75.8431 27.9352 78.1174 31.6439 79.4361 35.9286L79.442 35.9442ZM78.8736 38.5742C76.9879 33.1857 74.3882 29.2172 71.7591 25.2331C68.8188 20.779 64.9746 18.1107 60.3146 16.8832C56.6082 15.9002 52.8931 14.956 49.1752 14.0665C47.6441 13.7023 46.0889 13.4809 44.5534 13.27C41.6026 12.8559 38.9097 13.5557 36.4081 14.9671C32.4282 17.2062 28.4639 19.466 24.4869 21.7128C22.1133 23.0489 19.9949 24.7072 18.4506 27.1368C17.4718 28.6838 16.4831 30.2257 15.4053 31.6766C14.4211 33.003 14.0459 34.5529 13.8511 36.2483C13.5977 38.4292 13.3472 40.6179 12.9616 42.7599C11.9991 48.0874 12.6382 53.387 14.2528 58.7C15.3567 62.3355 17.2303 65.3586 20.2114 67.5253C22.0705 68.8789 23.4922 70.6476 24.4911 72.8083C25.607 75.2365 27.2706 77.1274 29.2622 78.7069C32.3624 81.1671 35.7564 82.8744 39.3215 84.1249C41.7038 84.9593 44.1106 85.7757 46.5659 85.5846C49.4996 85.3548 52.4234 85.0574 55.3322 84.6588C57.5417 84.356 59.7008 83.7961 61.9063 83.4413C64.8864 82.9623 67.7062 82.143 70.2747 80.4746C74.2148 77.9032 77.5275 74.8122 78.729 69.5991C79.074 68.1141 79.5521 66.6499 80.1811 65.3156C81.9631 61.5307 82.2385 57.3635 82.0478 53.0611C81.8158 47.8032 80.2127 42.7888 78.8727 38.5923L78.8736 38.5742ZM66.117 85.0529C63.6239 85.4543 61.128 85.8479 58.635 86.2493C61.3506 86.9307 63.8624 86.6202 66.117 85.0529Z" fill="#F3F3F3"/>
<path d="M67.2865 37.7357C68.3663 35.0099 69.8616 34.2472 72.3714 35.2115C73.1704 35.5234 73.9687 35.9158 74.7016 36.4043C76.9221 37.906 77.7815 39.8433 77.313 42.4889C76.9535 44.514 76.5803 46.4819 76.771 48.6371C76.8585 49.6731 76.3413 50.7244 76.0631 51.8901C77.4119 52.9916 78.5873 54.4617 79.1659 56.3807C79.3985 57.139 79.4649 57.9335 79.677 58.6996C79.823 59.2501 80.0707 59.7799 80.3719 60.5745C79.4942 61.8516 78.4037 63.3519 77.4073 64.9145C77.1373 65.3376 77.0242 65.9685 77.0225 66.5215C77.0336 68.3884 76.3609 69.9174 75.3444 71.2204C74.4966 72.3079 73.5174 73.276 72.5863 74.2882C71.6689 75.2952 70.7417 76.297 69.8144 77.2989C69.5695 77.561 69.3274 77.8309 69.0667 78.0723C66.9159 80.0992 64.3382 79.8644 62.2428 77.3709C61.5443 76.5398 60.9912 75.5555 60.2432 74.4491C60.2359 75.1111 60.2371 75.6097 60.2147 76.1082C60.133 78.0814 59.2622 79.3559 57.5344 79.8148C56.8607 79.9988 56.1584 80.0868 55.465 80.1981C53.0942 80.571 50.7206 80.9984 48.3349 81.27C47.0662 81.4123 45.7519 81.2689 44.4536 81.2709C43.3431 81.273 42.202 81.1531 41.1223 81.3396C38.7799 81.7462 34.9513 79.9453 33.5833 77.6572C32.558 75.9431 32.6746 74.7228 33.9507 73.5264C36.2695 71.3645 38.1344 68.7689 39.7757 65.9551C40.3936 64.9012 40.8734 63.7304 41.5462 62.718C42.1537 61.8018 42.1307 60.2958 43.5861 60.1095C43.9001 60.0707 44.0714 59.2217 44.4315 58.809C44.4857 60.7486 43.8672 62.3997 42.9695 63.9338C42.7229 64.3569 42.4215 64.7385 42.1974 65.1798C41.5223 66.4959 41.3631 67.8927 42.2959 69.3835C40.9215 69.4945 41.0915 68.0847 40.3603 67.4976C39.7735 68.4684 39.2121 69.4029 38.599 70.4282C38.9073 70.4985 39.1295 70.5479 39.4907 70.6337C38.4638 72.9831 36.0048 74.61 36.8408 77.8481C37.7302 78.0337 38.6261 78.009 39.5283 77.774C38.8278 78.2177 38.137 78.6666 37.3672 79.1544C38.2456 79.9441 39.2979 80.16 40.2894 79.9268C41.9293 79.5458 43.55 79.7334 45.2334 80.0042C46.6272 80.2333 48.0475 80.0781 49.3586 80.089C49.0278 78.7621 48.588 77.6636 48.5494 76.5913C48.5089 75.5553 48.8931 74.5454 49.3743 73.6057C49.3652 74.7586 49.3227 75.9062 49.3537 77.0616C49.3706 77.6432 49.432 78.404 50.1209 78.4458C50.482 78.4694 50.9076 78.0229 51.1641 77.6673C51.4928 77.2131 51.6842 76.6238 52.0718 75.8087C52.3633 77.5069 51.6775 78.4439 50.9485 79.7003C53.0005 79.3948 54.8004 79.2294 56.542 78.8277C58.5858 78.356 59.222 77.1437 58.6669 74.8327C57.7463 70.9584 56.8267 67.0659 55.6783 63.2512C55.2574 61.8515 54.1726 60.6411 53.4153 59.3244C52.7936 58.2414 52.1483 57.1584 51.6301 56.0183C51.2595 55.2055 51.3065 54.3591 51.8469 53.6375C52.7443 52.4331 53.7019 52.3375 54.65 53.6621C57.0341 56.9995 59.286 60.3603 59.5522 64.7588C59.7299 67.6228 60.1464 70.5388 61.2514 73.3096C61.4236 73.7433 61.5645 74.1978 61.7816 74.6055C64.1584 79.0594 67.2962 79.0997 70.0294 75.8631C70.1436 75.7308 70.3232 75.5647 70.318 75.4063C70.2876 73.1993 71.8695 72.2523 73.0477 71.0662C74.6155 69.483 75.7504 67.7075 76.011 65.2566C76.0665 64.701 76.4039 64.2078 76.5592 63.6678C76.8836 62.5827 77.2578 61.5053 77.45 60.3811C77.7484 58.6286 77.2291 56.99 76.1359 55.5511C75.3381 54.4992 74.413 53.8341 73.1213 54.1633C71.4825 54.5884 69.8259 54.9668 68.1565 55.2699C64.8919 55.8657 61.7621 55.0205 58.7922 53.09C58.1691 52.6847 57.6589 52.0406 57.0912 51.534C56.7285 51.2171 56.319 50.9625 55.9709 50.6222C55.5845 50.2429 55.0642 49.861 54.9173 49.391C54.6877 48.6405 54.9942 47.9007 55.6452 47.6361C56.4956 47.2782 57.4163 46.858 58.3263 46.9051C62.7248 47.1536 67.1591 47.2282 71.2773 49.9173C71.3812 49.9849 71.4957 50.0395 71.6103 50.094C73.7946 51.1907 75.0089 50.3474 74.7575 47.743C74.5892 45.9981 74.7107 44.3572 75.1591 42.7528C75.924 40.0217 74.8052 38.4945 72.9864 37.2059C72.9344 37.1721 72.8864 37.1279 72.8344 37.0942C70.1832 35.4261 69.674 34.8261 67.5168 37.4969C67.4485 37.5852 67.3194 37.6162 67.2188 37.6811L67.2609 37.7097L67.2865 37.7357ZM70.3908 51.6254C67.0924 49.3651 59.0249 48.1906 56.8344 49.5554C58.0132 52.9754 65.4624 54.1704 70.3908 51.6254ZM53.4584 53.2227C51.9476 54.4814 51.7715 54.9045 52.5119 56.5484C53.0507 57.743 53.7568 58.8831 54.5281 59.9272C55.6793 61.4778 56.6564 63.0854 57.2955 64.937C57.6225 65.8822 58.0383 66.7938 58.42 67.7183C58.7949 62.1413 56.9283 57.4227 53.4652 53.2202L53.4584 53.2227ZM35.6045 78.0138C35.9355 76.4093 36.2452 74.8931 36.5945 73.1926C36.0794 73.8155 35.6295 74.3424 35.2052 74.8953C34.1906 76.2242 34.2679 76.676 35.6045 78.0138Z" fill="#F3F3F3"/>
<path d="M67.2444 37.7071C65.9103 40.4848 63.5981 42.1273 61.3094 43.7699C59.7348 44.9013 58.1455 46.056 56.1354 46.2654C55.6669 46.3094 55.1935 46.3819 54.7296 46.3349C53.0385 46.1473 51.8617 44.5084 52.4284 42.8236C52.8327 41.619 53.5324 40.4093 54.4279 39.6334C55.6602 38.5694 57.1525 37.7989 58.6175 37.101C60.887 36.0271 62.9758 34.683 65.0137 32.8949C64.5467 32.7779 64.2883 32.7155 63.9241 32.6219C64.2615 32.1287 64.5658 31.6926 64.9062 31.2072C65.1865 31.4306 65.4247 31.6255 65.5952 31.7657C65.8061 31.5789 65.9068 31.514 65.9751 31.4258C67.9384 28.677 65.4591 23.8699 62.6186 22.8794C62.0977 22.7026 61.5572 22.5154 61.0288 22.4841C59.5737 22.4029 58.3814 21.7144 57.2597 20.6338C56.5341 19.9376 55.6652 19.4205 54.6018 18.6386C54.7909 19.5915 54.9047 20.181 55.0215 20.7782C54.9453 20.8249 54.8652 20.882 54.789 20.9287C54.4513 20.4508 54.0658 19.9911 53.7975 19.4691C53.6206 19.1263 52.2881 19.1413 53.4213 18.3732C50.8139 16.6351 47.4974 18.4979 47.6061 21.5929C47.6226 21.9876 47.6187 22.39 47.7095 22.7743C48.6638 26.8408 48.3911 30.8911 48.5176 34.9416C48.549 35.8296 48.3181 36.7279 48.0607 37.5561C47.8509 38.2415 47.349 38.6722 46.3394 38.2797C47.3294 36.9066 47.1134 35.3045 47.0512 33.7155C46.988 32.1446 47.0921 30.5816 47.0524 29.0107C47.0055 27.3178 46.8853 25.6171 46.7885 23.9164C46.7783 23.7242 46.7348 23.5269 46.705 23.3243C46.0823 19.2035 47.3408 17.1762 51.0094 16.5521C51.6725 16.4433 52.4799 16.5293 53.1038 16.8541C54.6456 17.6597 56.2013 18.5224 57.597 19.6239C58.7545 20.5305 59.8223 21.1594 61.2362 21.1937C63.8898 21.2572 65.9926 22.6965 67.4113 25.3039C69.3075 28.7996 68.8536 32.3306 66.0602 34.9128C64.1826 36.6491 62.0528 38.0087 59.6862 38.9502C58.4399 39.4404 57.1995 40.0085 56.0839 40.7609C55.2809 41.3059 54.5753 42.1079 54.0509 42.9748C53.3978 44.0599 53.9461 45.1351 55.1585 45.1745C56.086 45.2061 57.0573 45.0429 57.9097 44.7109C61.0495 43.4764 63.766 41.538 66.0418 38.9114C66.4165 38.4753 66.8804 38.1302 67.3062 37.7461L67.264 37.7175L67.2444 37.7071Z" fill="#F3F3F3"/>
<path d="M43.2106 56.6612C42.8879 57.5854 42.6435 58.5512 42.2394 59.426C40.6104 62.9123 38.9775 66.4091 36.5899 69.3187C35.38 70.7929 33.9927 72.1295 32.5277 73.2817C31.1252 74.3924 29.374 74.4591 27.5998 73.8664C26.2447 73.4088 25.1938 72.5152 24.6162 71.0324C23.8023 68.9263 22.9415 66.8202 22.2401 64.6804C21.6865 62.9925 20.764 61.7562 19.3579 60.8546C18.6143 60.3791 17.8734 59.8491 17.2351 59.2179C15.2376 57.2308 15.8852 53.2611 18.3128 52.5014C18.5445 52.4314 18.8541 52.6081 19.0068 52.6393C18.4082 53.5789 17.7243 54.4173 17.3009 55.4063C16.7403 56.7147 17.0846 57.5821 18.2303 58.4576C18.4303 58.6135 18.6439 58.7641 18.8663 58.8759C21.6724 60.2091 23.301 62.6478 24.4173 65.655C24.9271 67.021 25.6804 68.2858 26.2753 69.6284C27.0591 71.4073 28.4028 72.0206 29.9929 72.0862C32.2091 72.1729 34.0061 71.1532 35.4075 69.544C36.7308 68.0179 37.9421 66.3203 38.938 64.5084C40.3557 61.9308 41.5315 59.1686 42.8101 56.4923C42.9443 56.5572 43.0716 56.6248 43.2058 56.6898L43.2106 56.6612Z" fill="#F3F3F3"/>
<path d="M23.3029 29.9041C23.008 30.6128 22.723 31.3267 22.4505 31.9913C21.7176 30.6564 21.8084 30.1319 23.2667 27.7438L22.7789 26.6012C23.0616 26.5831 23.3453 26.5469 23.627 26.547C23.8785 26.5497 24.1724 26.7056 24.3776 26.6278C25.3024 26.2595 26.1937 25.8237 27.1027 25.4346C28.0909 25.0066 28.6389 24.1397 28.9192 23.0623C30.0037 18.8824 33.0344 17.0299 36.4167 15.7123C38.2721 14.9913 40.1468 15.4569 41.8408 16.9532C45.0485 19.8003 46.4529 23.4645 46.4155 27.7018C46.3989 29.9088 46.1387 32.0923 45.6466 34.2835C45.5712 33.8577 45.4823 33.437 45.4304 33.0112C45.1124 30.3964 44.8346 27.7843 44.4696 25.1695C44.1365 22.7832 42.9306 20.799 41.4814 18.9783C40.0352 17.1653 38.3038 16.4583 36.285 17.1611C33.1428 18.2451 30.4845 19.9654 29.3254 23.5765C28.8017 25.2095 27.6481 26.0476 26.265 26.652C24.8243 27.2693 23.7347 28.2971 23.2679 29.9975L23.299 29.9145L23.3029 29.9041Z" fill="#F3F3F3"/>
<path d="M23.6057 50.1748C21.8094 51.0516 19.9843 51.7701 17.9091 51.7458C15.9748 51.7216 15.2031 51.0072 14.8754 48.8417C14.7374 47.9406 14.6012 47.0033 14.2999 46.1463C13.7337 44.5077 13.6509 42.9264 14.0054 41.322C14.5623 38.7855 15.6031 36.5556 17.1497 34.6686C18.4064 33.1321 19.9615 32.899 21.8609 33.9255C21.2314 34.1641 20.7034 34.3196 20.2147 34.5583C19.5502 34.8903 18.7435 35.1159 18.2947 35.6869C16.7406 37.6569 15.695 39.9777 15.4643 42.6935C15.3986 43.5114 15.5415 44.3838 15.6725 45.2251C15.8573 46.4559 16.13 47.6712 16.3314 48.9046C16.516 50.0731 16.7329 50.3562 17.8477 50.5306C19.352 50.7624 20.7978 50.6332 22.1996 50.1197C22.6102 49.9641 23.1069 49.3749 23.592 50.18L23.6057 50.1748Z" fill="#F3F3F3"/>
<path d="M44.6417 44.5363C42.9183 43.0245 41.1743 41.5204 39.446 39.9747C38.1411 38.8032 36.9495 37.5174 36.3535 35.7386C36.132 35.092 35.9446 34.4324 36.4405 33.9237C36.9754 33.3735 37.6585 33.4621 38.2465 33.8985C39.2677 34.6519 40.2879 35.4235 41.2145 36.3197C42.8726 37.9276 43.9173 39.9818 44.749 42.197C42.5871 39.301 40.6466 36.1429 37.2987 34.4538C37.0514 35.8661 37.7511 36.8037 38.4495 37.5726C39.5382 38.7726 40.7733 39.8013 41.9508 40.9053C42.7508 41.6535 43.5724 42.3756 44.3471 43.1601C44.758 43.5835 44.7219 43.6328 44.6417 44.5363Z" fill="#F3F3F3"/>
<path d="M26.1709 35.241C32.851 35.0881 38.1455 38.3203 42.3161 44.2862C41.6019 43.8263 40.8661 43.3924 40.1811 42.8857C39.4637 42.3558 38.7658 41.7739 38.1099 41.1582C35.1371 38.3735 31.614 37.0894 28.0549 35.9168C27.4214 35.7115 26.8035 35.4645 26.1777 35.2384L26.1709 35.241Z" fill="#F3F3F3"/>
<path d="M56.2662 36.5132C57.4102 35.3401 58.5543 34.167 59.6728 32.9679C59.7333 32.9004 59.5967 32.6226 59.5315 32.3265C56.7488 32.2942 55.9106 35.0175 54.2429 36.5227C54.9997 34.5965 55.9214 32.8573 57.6932 31.9363C58.6724 31.4226 59.6833 31.0751 60.5533 32.4828C62.0335 31.5565 63.2952 30.508 64.1802 29.0233C64.4298 28.6079 64.6276 27.8291 64.4312 27.4759C64.0196 26.7409 63.3601 27.169 62.848 27.4077C62.3456 27.6515 61.8787 27.9889 61.3449 28.1912C61.8142 27.158 62.7027 26.7767 63.6591 26.5746C64.7241 26.3492 65.4647 27.2089 65.1513 28.3434C64.9572 29.0496 64.5732 29.7297 64.1194 30.2669C63.5837 30.8976 62.9166 31.4089 62.2543 31.8915C61.4036 32.5169 60.6164 33.1449 59.9717 34.0663C59.0667 35.3538 57.6946 36.0698 56.273 36.5106L56.2662 36.5132Z" fill="#F3F3F3"/>
<path d="M37.3184 57.2195C36.4308 58.4291 35.3605 59.3426 33.9346 59.6068C33.118 59.7649 32.2444 59.793 31.6415 58.8633C31.0819 58.0062 31.0906 57.0585 31.5075 56.2589C31.8358 55.6178 32.2747 54.9792 32.8148 54.5874C33.4634 54.1099 34.2513 53.7935 35.0237 53.5809C37.256 52.9665 39.5238 52.4456 42.0114 51.8235C41.5143 52.2258 41.1905 52.6514 40.7662 52.8122C39.4592 53.3076 38.1206 53.6991 36.787 54.1243C35.7878 54.4407 34.768 54.7025 33.7835 55.0578C32.9017 55.3742 32.3741 56.1087 32.162 57.0979C31.918 58.2506 32.4236 58.9856 33.4935 58.7939C34.5057 58.6152 35.4487 58.0885 36.4145 57.7047C36.7293 57.5854 37.0077 57.3908 37.3077 57.2325L37.3184 57.2195Z" fill="#F3F3F3"/>
<path d="M48.1396 72.8886C48.0708 73.182 48.0245 73.4936 47.9361 73.7766C47.6728 74.5891 47.3173 75.303 46.3917 75.2974C45.563 75.2996 44.769 74.6294 44.3467 73.5154C43.7119 71.8404 43.5789 70.1267 44.0322 68.4937C44.4029 67.1593 44.9676 65.9028 45.4402 64.61C46.0936 62.8032 46.7372 60.9911 47.3479 59.2985C47.9428 60.1867 48.0634 60.3192 47.6599 61.4433C47.1145 62.9776 46.3731 64.4079 45.7591 65.9058C45.2871 67.0558 44.7819 68.2006 44.4579 69.4104C44.1445 70.6073 44.3646 71.8692 44.9132 73.069C45.685 74.7544 46.6305 74.8951 47.5294 73.4674C47.6571 73.2675 47.7564 73.0339 47.8684 72.8132L48.1425 72.8964L48.1396 72.8886Z" fill="#F3F3F3"/>
<path d="M27.5652 53.9932C26.2391 53.8186 25.6746 53.3822 25.4287 52.3617C25.1798 51.3334 25.7236 50.8065 26.3575 50.3524C27.5209 49.5195 28.7198 48.78 30.2844 49.274L31.1276 49.6404C33.3512 49.9738 35.572 50.2992 37.7956 50.6326L37.8296 50.9494C37.0597 50.9828 36.2958 51.0941 35.5306 51.0366C34.1068 50.9348 32.6826 50.6459 31.2687 50.6116C29.9184 50.5798 28.5685 50.6727 27.252 50.8955C26.7748 50.9783 26.145 51.5467 26.098 52.0011C26.0589 52.4346 26.6796 53.0191 27.0329 53.5178C27.1703 53.7152 27.378 53.8503 27.5604 54.0217L27.573 53.9724L27.5652 53.9932Z" fill="#F3F3F3"/>
<path d="M27.2792 55.6963C26.1626 56.0126 25.0469 56.3107 23.9362 56.6426C23.6057 56.7411 23.2665 56.8786 22.9969 57.0966C22.3035 57.6623 22.4574 58.6464 23.3355 58.8571C24.1275 59.047 24.9943 59.0214 25.7589 58.8296C26.8805 58.547 27.94 58.0386 29.3222 57.5147C27.9631 59.2148 25.3216 60.1536 23.5606 59.7608C22.3468 59.4902 21.7056 58.9135 21.5763 57.9735C21.45 57.0414 22.0523 56.029 23.1408 55.8036C24.4903 55.5238 25.8991 55.462 27.2793 55.3042C27.2796 55.4289 27.273 55.5561 27.2733 55.6807L27.2792 55.6963Z" fill="#F3F3F3"/>
<path d="M32.5424 65.9702C33.3946 65.9679 34.1861 65.9709 35.1557 65.9687C34.6533 66.2126 34.2941 66.5447 33.9047 66.5498C33.3001 66.5651 32.5721 66.5648 32.0763 66.227C31.3766 65.7438 31.3226 64.7753 31.5969 64.0744C31.9326 63.2255 32.359 62.3065 33.0006 61.7693C34.6032 60.4225 36.3499 59.2704 38.1311 58.1677C37.8795 59.4035 36.9796 59.9405 36.1699 60.5503C35.325 61.1913 34.3927 61.705 33.6175 62.4265C32.7895 63.1947 32.0833 64.1395 32.5394 65.9624L32.5424 65.9702Z" fill="#F3F3F3"/>
<path d="M49.6819 24.2007C49.8859 23.562 49.9998 22.8507 50.3293 22.3159C50.5418 21.9681 51.1593 21.5737 51.4345 21.7011C51.8341 21.8882 52.1818 22.4959 52.3708 22.9945C52.545 23.4541 52.4933 23.9994 52.5605 24.7134C53.0485 24.1632 53.3604 23.644 53.8049 23.3508C54.1419 23.1251 54.6856 22.9903 55.0568 23.1436C55.3261 23.2554 55.5819 23.8891 55.6082 24.2889C55.6466 24.8446 55.4708 25.3923 55.1746 25.9323C55.1514 25.2105 55.1244 24.499 55.1022 23.759C54.1143 23.878 53.2484 25.317 52.5044 28.0758C51.899 27.7172 51.6582 27.2472 51.815 26.4839C51.9738 25.7466 52.0347 24.9573 52.0212 24.1783C52.0089 23.5058 51.8264 22.8177 51.7211 22.127C50.1671 22.0121 50.3821 23.6324 49.6397 24.1721L49.6887 24.1981L49.6819 24.2007Z" fill="#F3F3F3"/>
<path d="M43.0851 36.5908C41.2629 34.6531 39.6184 32.5856 38.73 29.9732C38.5872 29.5551 38.6375 28.8411 38.8757 28.5815C39.1245 28.309 39.733 28.2833 40.1638 28.3874C41.0849 28.6085 41.8599 29.5175 42.9012 31.3771C41.7614 30.5171 41.0348 28.9304 39.3397 29.1452C39.7672 32.1728 42.2729 33.9317 43.0949 36.596L43.0851 36.5908Z" fill="#F3F3F3"/>
<path d="M52.803 34.6449C52.6856 33.7984 52.5683 32.9519 52.4152 31.8873C50.9228 32.5955 50.4499 33.7637 50.2328 35.1111C50.0668 36.1185 50.0427 37.17 49.8405 38.1644C49.7147 38.7823 49.391 39.3326 49.1497 39.9141L48.7109 39.7062C49.1066 37.6941 49.4072 35.6379 49.9409 33.6804C50.1564 32.8859 50.7702 32.1722 51.3707 31.6506C52.273 30.872 53.0714 31.3267 53.2241 32.6588C53.3 33.3339 53.1098 34.0297 53.0409 34.7151C52.9586 34.6839 52.8862 34.6579 52.8039 34.6267L52.803 34.6449Z" fill="#F3F3F3"/>
<path d="M54.9637 32.8907C55.6545 32.0497 56.3394 31.1932 57.0498 30.3626C57.5143 29.8124 58.0553 29.3401 58.4746 28.7535C58.9379 28.0968 59.2317 27.3439 58.7178 26.3804C57.1891 26.1668 56.572 27.5946 55.5452 28.2511C56.0221 27.1348 56.7423 26.3095 57.7618 25.8607C58.7539 25.4223 59.664 25.9862 59.6432 27.1701C59.6295 28.0218 59.3832 29.0239 58.9002 29.6079C57.8054 30.9316 56.5037 32.0397 55.2814 33.2336L54.9637 32.8907Z" fill="#F3F3F3"/>
<path d="M28.9475 38.3138C29.9784 37.3172 30.8816 37.367 31.721 37.8061C32.6977 38.318 33.6618 38.9416 34.5264 39.6741C35.8214 40.7782 37.0256 42.0146 38.3689 43.2875C36.8934 42.8221 35.7407 41.8869 34.6504 40.8478C33.0806 39.349 31.3826 38.2552 28.9445 38.306L28.9475 38.3138Z" fill="#F3F3F3"/>
<path d="M28.8671 27.3854C28.0816 27.4603 27.6365 27.5043 26.986 27.5637C27.0949 28.1194 27.098 28.6439 27.3005 29.075C28.096 30.8228 29.3151 32.1605 30.8407 33.1504C31.7402 33.7272 32.6737 34.2287 33.5655 34.8886C32.5283 34.8362 31.5801 34.2957 30.6601 33.7267C29.0053 32.7056 27.7066 31.2822 26.7916 29.4461C26.4299 28.7189 26.0516 27.9892 26.5098 27.2364C26.8285 26.7146 27.3599 26.7538 28.8671 27.3854Z" fill="#F3F3F3"/>
<path d="M36.3307 25.5812C34.6049 24.3108 33.6965 22.8019 32.9795 21.1581C32.6373 20.379 32.6492 19.5637 33.2967 19.0421C33.9716 18.5101 34.6885 18.8531 35.2455 19.435C35.7987 20.0272 36.2269 20.7648 36.6385 21.4998C35.6219 21.0475 35.1366 19.2714 33.6452 20.0237C33.7078 22.1918 35.3017 23.5478 36.3346 25.5709L36.3307 25.5812Z" fill="#F3F3F3"/>
<path d="M38.6721 46.3175C37.8883 45.8395 37.0753 45.4081 36.3149 44.8677C35.6416 44.3923 35.0484 43.7974 34.3976 43.2779C32.5872 41.8257 30.6541 41.0615 28.4764 41.5928C29.5369 40.6741 30.7452 40.6617 31.9263 41.1763C32.983 41.6311 34.002 42.2962 34.9654 43.0003C36.2747 43.9563 37.5069 45.0396 38.7753 46.0735L38.6653 46.3201L38.6721 46.3175Z" fill="#F3F3F3"/>
<path d="M66.8112 76.6019C64.5922 77.933 62.8631 76.4678 61.8158 71.9288C62.4744 72.882 63.014 73.9961 63.8239 74.7494C64.6622 75.5365 65.7639 75.9654 66.8151 76.5916L66.8112 76.6019Z" fill="#F3F3F3"/>
<path d="M20.7181 39.3747C20.2559 37.866 20.3673 37.3961 21.3818 36.9136C22.365 36.4518 23.4303 36.351 24.4755 36.8993C25.3865 37.3827 26.2498 38.0088 27.1297 38.5752L26.9713 39.0451C26.4835 38.8112 26.0015 38.5306 25.508 38.3434C24.659 38.0237 23.7892 37.5871 22.931 37.5114C21.4983 37.3862 21.065 37.8534 20.7181 39.3747Z" fill="#F3F3F3"/>
<path d="M52.7095 50.4417C53.7239 50.3513 54.5898 50.7983 55.2852 51.5593C56.2728 52.6373 57.1678 53.8216 57.982 55.2059C57.3736 54.8395 56.6891 54.5822 56.1812 54.0886C55.0115 52.9639 53.9217 51.7197 52.7134 50.4314L52.7095 50.4417Z" fill="#F3F3F3"/>
<path d="M73.2982 68.1559C70.5743 69.0012 68.4888 67.0296 66.9864 62.0126C67.4049 62.745 67.7676 63.5163 68.2486 64.2071C68.9543 65.2227 69.666 66.2538 70.5065 67.1291C71.2832 67.9395 72.2684 68.3502 73.2982 68.1559Z" fill="#F3F3F3"/>
<path d="M31.1235 49.6508L30.2803 49.2843C31.2337 49.0744 32.1793 48.8229 33.1397 48.6728C34.9735 48.3698 36.8212 48.1239 38.839 47.8314C38.4259 48.6205 37.7647 48.6929 37.1896 48.7861C35.6912 49.0244 34.1642 49.1665 32.6579 49.3632C32.1444 49.4331 31.635 49.5549 31.1235 49.6508Z" fill="#F3F3F3"/>
<path d="M67.8162 43.2016C68.2698 42.9941 68.7756 43.0073 68.9364 43.5968C69.036 43.9421 68.8907 44.5496 68.6446 44.7676C67.2239 46.0367 65.5385 46.6487 63.54 46.3726C64.5048 46.0069 65.4874 45.688 66.4218 45.2626C67.0473 44.9721 67.654 44.5906 68.1647 44.1209C68.5415 43.7731 68.4642 43.3213 67.8192 43.2094L67.8162 43.2016Z" fill="#F3F3F3"/>
<path d="M64.6528 20.3798C68.0795 21.3887 69.962 23.5887 70.9272 26.858C70.4156 26.0451 69.9499 25.1881 69.3856 24.4219C68.8086 23.6427 68.1992 22.8401 67.4894 22.2271C66.7444 21.5828 65.8511 21.1462 64.6626 20.385L64.6528 20.3798Z" fill="#F3F3F3"/>
<path d="M69.2138 68.6524C70.2148 69.1461 70.8341 70.0162 71.049 71.1821C71.2491 72.2468 70.6997 72.8826 69.7782 72.5369C69.1398 72.2978 68.574 71.7549 68.0814 71.0952C68.7601 71.3992 69.4456 71.7007 70.19 72.0334C70.7413 70.5147 69.5792 69.7612 69.2167 68.6602L69.2138 68.6524Z" fill="#F3F3F3"/>
<path d="M26.8264 64.9915C26.487 65.0044 26.0695 65.1626 25.8099 64.9937C25.2612 64.6403 24.5039 64.17 24.3833 63.6455C24.2696 63.1184 24.6735 62.1812 25.1221 61.94C26.2722 61.2991 27.5687 60.9414 28.8653 60.5836C27.6154 61.6632 25.6162 61.5299 24.7725 63.5782C25.4615 64.0744 26.1347 64.5498 26.8109 65.0331L26.8264 64.9915Z" fill="#F3F3F3"/>
<path d="M55.6056 44.1051C57.3822 43.1555 59.2106 42.1775 60.7976 41.3265C59.9731 43.1982 57.8214 44.3968 55.6056 44.1051Z" fill="#F3F3F3"/>
<path d="M42.0628 73.3743C42.2227 75.2827 40.9496 76.9413 42.6056 78.5233C41.9138 78.928 41.4399 78.7512 41.1655 78.089C40.4316 76.3179 40.6982 74.7913 42.0628 73.3743Z" fill="#F3F3F3"/>
<path d="M66.002 69.0771C66.3428 69.6874 66.7355 70.2692 67.0041 70.9158C67.4103 71.8845 67.5741 72.9361 66.8008 73.6212C65.9503 74.3712 65.0655 73.8334 64.3216 73.2333C65.0083 73.1869 65.9119 73.4235 66.3543 73.042C67.0984 72.4036 66.511 71.37 66.1999 70.5078C66.0375 70.0793 65.8409 69.6638 65.6579 69.2431C65.7743 69.199 65.8847 69.1394 65.9981 69.0875L66.002 69.0771Z" fill="#F3F3F3"/>
<path d="M67.8261 43.2067C67.8519 42.9029 67.7697 42.4797 67.922 42.3239C68.7273 41.4752 69.6562 40.7668 70.4036 39.8687C70.8612 39.3211 71.0835 38.5241 71.4827 37.6778C71.4667 38.3788 71.4505 39.0176 71.4412 39.6537C70.7139 40.357 69.9738 41.0473 69.2465 41.7507C68.7593 42.2204 68.2908 42.7187 67.8124 43.2119L67.8261 43.2067Z" fill="#F3F3F3"/>
<path d="M53.5304 64.7068C55.1186 66.1096 55.6446 68.1376 54.9381 70.2586C54.4701 68.4046 53.9904 66.5193 53.5304 64.7068Z" fill="#F3F3F3"/>
<path d="M33.1953 28.605C34.8617 29.987 36.5251 31.3612 38.2719 32.8108C36.602 32.4726 34.524 30.8099 33.1953 28.605Z" fill="#F3F3F3"/>
<path d="M71.4408 39.6538C71.8728 39.4722 72.295 39.2855 72.7271 39.1039C73.3097 38.8653 73.9143 38.85 74.3404 39.4993C74.8627 40.2992 74.4669 40.9482 73.9472 41.3322C72.9675 42.051 71.8975 42.6347 70.7076 43.0055C71.3329 42.5903 71.9964 42.2141 72.5745 41.7366C73.1458 41.2617 73.6229 40.6622 74.1793 40.086C73.1715 38.7484 72.3029 39.7191 71.4535 39.6668L71.4467 39.6694L71.4408 39.6538Z" fill="#F3F3F3"/>
<path d="M54.8241 72.1462C55.3476 73.0526 55.8682 73.9512 56.4133 74.8939C56.0383 75.6597 55.5499 75.5686 55.031 74.9634C54.3659 74.1998 54.276 72.9509 54.8241 72.1462Z" fill="#F3F3F3"/>
<path d="M39.6263 21.6414C38.558 21.6721 38.4264 22.3367 38.7083 23.2456C38.9636 24.0844 39.2599 24.9076 39.348 25.8008C38.5573 24.8709 38.0765 23.788 38.018 22.5806C37.9646 21.4693 38.4013 21.1969 39.6302 21.631L39.6263 21.6414Z" fill="#F3F3F3"/>
<path d="M69.8232 59.8326C71.335 60.7654 72.86 61.5061 74.8056 60.8578C73.2885 62.3683 71.9063 62.0457 69.8232 59.8326Z" fill="#F3F3F3"/>
<path d="M46.3155 50.3169C45.8479 52.9443 45.5808 53.3752 43.9258 54.439C44.4658 53.5305 44.844 52.8971 45.2124 52.2585C45.5876 51.6174 45.9501 50.9632 46.3155 50.3169Z" fill="#F3F3F3"/>
<path d="M41.5652 47.4665C41.9413 46.8072 42.136 46.3503 42.4297 45.9895C42.5839 45.7974 42.9425 45.608 43.1295 45.6886C43.343 45.777 43.5679 46.164 43.6038 46.4444C43.739 47.3999 43.2349 47.7424 41.5681 47.4743L41.5652 47.4665Z" fill="#F3F3F3"/>
<path d="M72.8323 63.3521C73.8375 63.5057 74.6831 63.6307 75.6648 63.7843C75.7103 64.462 75.2139 64.7214 74.6562 64.7368C73.8501 64.7572 73.1996 64.3622 72.8323 63.3521Z" fill="#F3F3F3"/>
<path d="M62.8471 71.4488C61.6902 69.945 61.508 68.1429 61.4286 66.302C61.8912 67.9977 62.3637 69.6986 62.8471 71.4488Z" fill="#F3F3F3"/>
<path d="M78.1973 66.7715C78.9039 68.6152 77.2837 69.5233 77.1052 71.0344C76.7129 69.3387 77.8874 68.2253 78.1973 66.7715Z" fill="#F3F3F3"/>
<path d="M70.6787 56.0603C72.5657 56.3519 73.857 57.1366 74.8686 58.8559C73.4449 57.9076 72.1799 57.0684 70.6787 56.0603Z" fill="#F3F3F3"/>
<path d="M49.8291 69.8073C51.5726 71.1244 51.9373 71.0129 53.1523 68.726C52.96 70.2422 52.6138 70.7743 51.6897 70.9998C50.9358 71.1787 50.6919 71.0305 49.836 69.8047L49.8291 69.8073Z" fill="#F3F3F3"/>
<path d="M49.2732 60.5378C48.9855 59.2212 48.68 57.7957 48.4229 56.6012C49.4576 57.6791 49.6235 58.3647 49.2732 60.5378Z" fill="#F3F3F3"/>
<path d="M64.7256 57.2028C65.8203 58.0263 66.9052 58.8447 68.3586 59.9332C66.2338 59.1793 65.7291 58.8182 64.7256 57.2028Z" fill="#F3F3F3"/>
<path d="M53.3409 72.7973C53.6381 73.9944 53.9254 75.1863 54.2226 76.3834C53.099 75.3391 53.0591 74.098 53.3409 72.7973Z" fill="#F3F3F3"/>
<path d="M18.957 45.8601C20.2284 46.0554 21.3833 46.2324 22.4119 46.3861C20.729 47.211 20.0792 47.1277 18.957 45.8601Z" fill="#F3F3F3"/>
<path d="M25.5714 48.218C24.0448 49.3935 23.3228 49.4088 22.1372 48.2009C23.3044 48.204 24.5519 48.2123 25.5714 48.218Z" fill="#F3F3F3"/>
<path d="M29.3151 45.1064C30.4661 45.2938 31.6171 45.4813 32.7613 45.6713C32.7499 45.8271 32.7424 45.9725 32.731 46.1283C31.5538 46.4497 30.4054 46.1454 29.281 45.5737C29.2923 45.4179 29.2969 45.2648 29.3083 45.109L29.3151 45.1064Z" fill="#F3F3F3"/>
<path d="M27.5494 54.0347C28.9889 53.703 30.4254 53.3634 31.8648 53.0317C30.4993 53.6205 29.2712 54.7988 27.562 53.9854L27.5494 54.0347Z" fill="#F3F3F3"/>
<path d="M58.35 56.982C58.927 58.1532 59.4941 59.3193 60.0711 60.4905L59.8951 60.5839C59.2673 59.423 58.6298 58.257 58.002 57.0961L58.35 56.982Z" fill="#F3F3F3"/>
<path d="M21.7193 41.9353C20.5582 42.0725 19.3903 42.2122 18.0601 42.3778C19.2819 41.4514 20.5227 41.5246 21.7193 41.9353Z" fill="#F3F3F3"/>
<path d="M23.2717 29.9871L24.3802 29.567C23.3238 30.992 24.9528 31.4081 25.1682 32.3689C23.9943 31.9763 23.7784 30.8286 23.3028 29.9041L23.2717 29.9871Z" fill="#F3F3F3"/>
<path d="M52.4763 61.4713C51.9933 60.7545 51.5133 60.0454 51.0234 59.3312C52.0357 59.6068 52.381 60.456 52.8074 61.23C52.696 61.3078 52.5876 61.3934 52.4763 61.4713Z" fill="#F3F3F3"/>
<path d="M49.6331 24.1747C49.7003 25.3432 49.7675 26.5116 49.8376 27.6878C49.3428 26.4854 49.2355 25.3144 49.6889 24.1981L49.6399 24.1721L49.6331 24.1747Z" fill="#F3F3F3"/>
<path d="M65.8758 66.0599C65.8439 64.9226 65.8225 64.1021 65.7988 63.131C66.3245 64.1257 66.4564 64.9488 65.8758 66.0599Z" fill="#F3F3F3"/>
<path d="M42.2384 56.1389C41.7829 56.7748 41.3244 57.403 40.8689 58.0389C40.9342 57.0341 41.3799 56.393 41.9119 55.8349C42.0207 55.9363 42.1295 56.0376 42.2384 56.1389Z" fill="#F3F3F3"/>
<path d="M62.1102 82.473C61.7193 82.2469 61.4256 82.1533 61.252 81.9429C61.1794 81.8546 61.3016 81.3718 61.4247 81.3251C61.6467 81.2499 61.9385 81.3798 62.1979 81.4241C62.1731 81.7097 62.1483 81.9953 62.1073 82.4652L62.1102 82.473Z" fill="#F3F3F3"/>
<path d="M70.1192 43.8255C70.8849 43.6779 71.6409 43.525 72.4066 43.3773L72.4758 43.663C71.713 43.8184 70.96 43.9791 70.1972 44.1345L70.1123 43.8281L70.1192 43.8255Z" fill="#F3F3F3"/>
<path d="M75.3293 56.6232C74.6489 56.0257 74.0421 55.4984 73.2559 54.8074C74.1933 55.147 74.8844 55.7523 75.3293 56.6232Z" fill="#F3F3F3"/>
<path d="M50.0758 82.3121C50.4364 82.5407 50.7057 82.6525 50.8598 82.8525C50.9255 82.9434 50.7564 83.4262 50.7065 83.4184C50.4569 83.3794 50.1729 83.291 49.9808 83.1143C49.9072 83.0442 50.0219 82.7067 50.0758 82.3121Z" fill="#F3F3F3"/>
<path d="M59.9042 79.3354C60.2722 78.9643 60.6304 78.588 60.9984 78.2168L61.3025 78.5649C60.9297 78.9646 60.5666 79.3695 60.1938 79.7691L59.9042 79.3354Z" fill="#F3F3F3"/>
<path d="M44.2726 14.3475C44.7483 14.4256 45.2308 14.501 45.7065 14.5791C45.6979 14.6804 45.6893 14.7817 45.6807 14.8829C45.203 14.7789 44.7283 14.6826 44.2506 14.5785L44.2628 14.3423L44.2726 14.3475Z" fill="#F3F3F3"/>
<path d="M50.1726 19.0521C49.9464 19.4051 49.7134 19.7608 49.4872 20.1138C49.3872 20.0358 49.2872 19.9579 49.1873 19.88C49.4007 19.514 49.6142 19.148 49.8276 18.7819L50.1726 19.0521Z" fill="#F3F3F3"/>
<path d="M72.3814 76.9052C72.8531 76.5393 73.3151 76.1682 73.7868 75.8023L74.0057 76.1114C73.5555 76.5137 73.1093 76.9055 72.6592 77.3078C72.5689 77.1727 72.4746 77.0481 72.3843 76.913L72.3814 76.9052Z" fill="#F3F3F3"/>
<path d="M31.3711 25.7413L31.7668 26.7852L31.6998 26.8106C31.5527 26.4832 31.4094 26.1455 31.2623 25.8182L31.3711 25.7413Z" fill="#F3F3F3"/>
<path d="M17.4695 31.4022C17.498 31.0439 17.5334 30.683 17.562 30.3247L18.0035 30.4158C17.9583 30.7715 17.9131 31.1272 17.8708 31.4907C17.7348 31.462 17.6055 31.4308 17.4695 31.4022Z" fill="#F3F3F3"/>
<path d="M42.7113 25.5687C42.9651 25.722 43.1893 25.7974 43.3354 25.9558C43.408 26.0441 43.3322 26.2778 43.3267 26.4491C43.0692 26.3685 42.8088 26.2801 42.5513 26.1995C42.5969 26.0308 42.6357 25.8646 42.7113 25.5687Z" fill="#F3F3F3"/>
<path d="M26.8107 65.0332L28.5897 64.3589C28.6204 64.4812 28.658 64.6009 28.6887 64.7232C28.0666 64.8161 27.4415 64.9013 26.8262 64.9916L26.8136 65.041L26.8107 65.0332Z" fill="#F3F3F3"/>
<path d="M28.693 66.1995C28.4372 66.4746 28.1884 66.7471 27.9326 67.0223L27.7747 66.8326L28.5635 66.0437L28.693 66.1995Z" fill="#F3F3F3"/>
<path d="M23.5921 50.1804C24.0855 49.913 24.575 49.6561 25.0684 49.3887L25.1857 49.6568C24.6636 49.8279 24.1385 49.9912 23.6096 50.1648C23.6028 50.1674 23.5891 50.1726 23.5891 50.1726L23.5921 50.1804Z" fill="#F3F3F3"/>
<path d="M43.753 75.9948C43.7904 75.6599 43.8278 75.325 43.8583 74.9926C43.9484 75.0031 44.0316 75.0161 44.1216 75.0265L44.1515 76.1378C44.0164 76.091 43.8813 76.0442 43.753 75.9948Z" fill="#F3F3F3"/>
<path d="M31.2655 68.6103C31.0628 68.9633 30.863 69.3241 30.6672 69.6746L30.3957 69.4745C30.5984 69.1215 30.8011 68.7685 31.0107 68.4128L31.2723 68.6077L31.2655 68.6103Z" fill="#F3F3F3"/>
<path d="M64.3443 51.5917C63.2735 51.4094 62.6216 51.3001 61.7838 51.1543C62.4979 50.7946 63.3514 50.9404 64.3443 51.5917Z" fill="#F3F3F3"/>
</svg>
