<svg width="58" height="43" viewBox="0 0 58 43" fill="none" xmlns="http://www.w3.org/2000/svg">
<path d="M18.8073 11.9017C16.6755 13.7735 15.1353 16.2312 12.8694 17.9497C12.8124 17.9713 12.7601 17.9911 12.7031 18.0127C11.4408 18.1077 10.0921 18.4766 8.89436 18.8996C7.66334 19.3352 6.46604 19.9746 5.49624 20.8987C4.786 21.5761 4.20396 22.477 3.89435 23.4231C3.66452 23.9061 3.59916 24.4504 3.59828 24.964C3.6014 25.4453 3.63548 26.0941 3.9074 26.5106C3.94048 26.7269 4.25132 26.9307 4.40566 27.0082C4.6144 27.1146 4.83858 27.1472 5.07013 27.1275C5.06473 27.1419 5.06614 27.1599 5.06549 27.1725C5.02749 27.1869 4.99014 27.1887 4.95214 27.2031C4.90259 27.2157 4.91767 27.2842 4.96452 27.2788C5.00662 27.2752 5.05143 27.2644 5.09353 27.2609C5.14057 27.342 5.24321 27.3835 5.33401 27.2934C5.35841 27.2718 5.38077 27.2448 5.40787 27.2159C6.87847 27.0111 8.39109 26.7594 9.79245 27.1746C11.499 27.6781 12.4986 29.1547 13.5807 30.433C15.3873 32.5624 17.7895 34.1134 20.4864 34.9653C23.2015 35.8226 26.1949 35.9807 29.0928 35.3277C31.2861 34.8366 33.3947 33.8642 35.2791 32.5439C35.2981 32.5367 35.3198 32.5223 35.3368 32.5097C37.1164 31.3714 38.7838 29.923 40.0568 28.2221C41.2973 26.5645 42.57 24.4185 42.9166 22.3946C44.3268 21.6003 45.8128 21.0062 47.4094 20.6608C48.6598 20.391 49.9295 20.2438 51.1912 20.1614C52.3945 20.0826 53.658 20.1913 54.8576 19.9593C54.8624 20.0008 54.8625 20.044 54.8646 20.0927C54.867 20.2279 55.0748 20.2172 55.118 20.1018C55.3442 19.5089 55.1881 18.9682 54.8409 18.5679C54.7305 18.4057 54.5882 18.274 54.4176 18.1964C54.3679 18.1658 54.3162 18.1297 54.2618 18.1008C54.2665 18.0558 54.2412 18.0035 54.1849 18.0125C54.1523 18.0125 54.1217 18.0179 54.0912 18.0233C53.9614 17.9674 53.824 17.9204 53.6861 17.8861C52.3604 17.5846 50.8238 18.0309 49.4761 18.2448C47.0347 18.6258 44.5948 19.0681 42.148 19.4636C41.3095 19.2866 40.6283 18.6789 40.1351 17.9938C39.3502 16.9121 38.9147 15.6052 38.1176 14.5343C36.7021 12.634 34.6359 11.339 32.397 10.5486C30.1601 9.76365 27.6551 9.34623 25.2177 9.42268C22.8571 9.50097 20.6638 10.2642 18.8025 11.9035L18.8073 11.9017ZM4.51235 26.7451L4.49812 26.7505C4.51452 26.7938 4.52887 26.8317 4.55272 26.8659C4.53232 26.8551 4.51191 26.8443 4.49421 26.8262C4.38402 26.7505 4.28872 26.6567 4.20833 26.5449C3.34676 24.5584 4.22583 22.2337 5.97611 20.7602C6.96176 19.9351 8.12251 19.3715 9.31358 18.9881C9.98613 18.7703 10.6752 18.639 11.3622 18.5023C11.1295 18.5906 10.8919 18.6806 10.6633 18.7796C10.2304 18.9561 9.79954 19.1379 9.36868 19.3198C9.06878 19.4458 8.70702 19.552 8.45556 19.7772C8.2502 19.9663 8.24246 20.161 8.15539 20.4042C8.04942 20.698 7.84452 20.788 7.60626 20.8474C7.36996 20.8689 7.19458 20.7931 6.95047 20.9661C6.89962 21.0039 6.85287 21.0525 6.81022 21.112C6.77157 21.139 6.73495 21.1714 6.69565 21.2111C6.54049 21.375 6.45903 21.6904 6.31756 21.9048C6.24641 21.9751 6.16975 22.0165 6.0835 22.0183C6.05565 22.0164 6.03126 22.0381 6.00956 22.0525L6.00547 22.0417C5.88512 21.9821 5.76981 22.0506 5.74225 22.1785C5.72139 22.2668 5.72903 22.3443 5.72718 22.4254C5.56961 22.7264 5.20311 22.8344 5.00064 23.1028C4.80299 23.0973 4.59849 23.3604 4.76253 23.5209C4.79792 23.5569 4.83332 23.593 4.86871 23.629C4.93768 24.0977 5.3578 24.5755 5.05243 24.9881L5.04767 24.9899C5.00258 24.8709 4.94528 24.7627 4.88054 24.6636C4.85874 24.6347 4.80175 24.6563 4.79979 24.6942C4.79869 24.8059 4.81657 24.9105 4.83716 25.0078C4.72521 25.0564 4.63313 25.1717 4.66397 25.2961C4.7482 25.6044 5.02837 25.7703 5.1167 26.0893C5.16188 26.2516 5.17448 26.4138 5.16872 26.5706C4.85375 26.9435 4.63653 27.0011 4.5103 26.7397L4.51235 26.7451ZM13.6826 30.1717C12.7368 29.0521 11.8293 27.8189 10.4852 27.1965C11.1506 27.3896 11.7814 27.6639 12.3902 28.0516C13.6709 28.865 14.3829 30.1846 15.0094 31.5367C14.5398 31.1147 14.1 30.6567 13.6894 30.1753L13.6826 30.1717ZM21.9864 10.6721C22.8123 10.4147 23.6466 10.2222 24.4912 10.1C24.5733 10.0875 24.6576 10.0803 24.7418 10.0731C24.7832 10.0822 24.8226 10.0858 24.8709 10.0984C24.9008 10.1056 24.9143 10.0696 24.8986 10.057C25.6272 9.97256 26.3694 9.93864 27.0934 9.94256C27.8826 9.9465 28.6688 10.1433 29.4553 10.1544C30.3475 10.3297 31.2248 10.5662 32.0648 10.8477C34.39 11.6363 36.5378 12.9746 37.955 14.9794C38.9858 16.4379 39.6739 18.8984 41.4433 19.5823C40.8492 19.6775 40.2579 19.7656 39.6645 19.8483C38.6956 19.9866 37.7233 20.1016 36.7523 20.1913C35.344 19.3706 34.2973 18.1283 33.2472 16.8626C32.6554 16.1468 32.0493 15.4364 31.364 14.8179C30.7454 14.2608 29.9882 13.6819 29.155 13.4472C29.1611 13.4202 29.1536 13.3859 29.1365 13.3553C29.0342 13.1714 28.714 13.3299 28.8163 13.5138C28.8845 13.6363 29.0535 13.6094 29.1212 13.5157C29.9888 13.9414 30.7478 14.3959 31.4536 15.0685C32.1682 15.7501 32.7873 16.5236 33.4165 17.2808C34.3046 18.3482 35.258 19.5021 36.4855 20.2182C34.8667 20.3617 33.2444 20.4385 31.632 20.4125C30.8565 19.5561 29.9867 18.7663 29.1496 17.9765C28.3261 17.1939 27.474 16.4222 26.511 15.8162C24.9188 14.8116 22.912 13.9456 20.8964 14.3322C20.8726 14.3412 20.8707 14.3791 20.8986 14.3809C23.0513 14.3133 24.9427 14.8891 26.6494 16.0667C27.5915 16.7178 28.4489 17.4752 29.2718 18.2703C29.9926 18.9682 30.6715 19.7561 31.4438 20.4035C31.0832 20.3979 30.7205 20.3869 30.3557 20.3705C30.1655 20.356 29.9774 20.347 29.7872 20.3325C29.3185 20.2998 28.8519 20.2726 28.3832 20.2399C25.5852 20.0387 22.8008 19.8013 19.9563 20.0074C16.7192 20.2385 13.1117 21.1976 10.5599 23.5378C10.5551 23.5396 10.5504 23.5414 10.5477 23.5486C10.3226 23.7143 10.1022 23.8782 9.88799 24.0583C9.87579 24.0692 9.88875 24.089 9.9057 24.0764C10.1064 23.9323 10.3071 23.7882 10.5099 23.6495C10.5196 23.7324 10.6209 23.7991 10.7131 23.7271C11.526 23.0912 12.371 22.5544 13.2394 22.1078C14.179 21.6775 15.1515 21.3337 16.152 21.0782C18.3791 20.5186 20.6647 20.3141 22.9166 20.2646C23.229 20.2575 23.5435 20.2559 23.86 20.2596C25.3346 20.3377 26.8033 20.4862 28.2617 20.6076C31.2064 20.8521 34.1271 20.9759 37.1148 20.7033C37.2411 20.6925 37.3653 20.6764 37.4916 20.6656C37.5467 20.6818 37.597 20.6999 37.652 20.7161C37.6955 20.7306 37.7266 20.6693 37.6906 20.6459C37.8848 20.6279 38.0837 20.6082 38.2759 20.5848C38.961 20.5292 39.6454 20.443 40.3291 20.3262C42.1562 20.0728 43.979 19.7654 45.7998 19.4526C47.085 19.2314 48.3809 18.9815 49.6777 18.8054C50.0315 18.7641 50.39 18.721 50.7437 18.6797C50.8069 18.6743 50.8748 18.6671 50.9379 18.6618C52.2763 18.538 54.6258 18.0866 54.8411 19.8728C53.8274 19.7066 52.7131 19.8196 51.6769 19.866C50.5937 19.9178 49.5038 20.0093 48.4237 20.1837C48.0197 20.2502 47.6199 20.3275 47.2214 20.4228C46.403 20.3991 45.5831 20.6294 44.7952 20.9156C44.0596 21.1821 43.284 21.5008 42.6461 21.9961C42.5678 21.933 42.4415 21.9438 42.4045 22.0753C42.3876 22.1312 42.3708 22.1871 42.356 22.2483C42.3316 22.2699 42.3045 22.2988 42.2801 22.3204C42.2753 22.3222 42.2794 22.333 42.2842 22.3312C42.3032 22.324 42.3222 22.3168 42.3364 22.3114C42.3249 22.3529 42.3114 22.3889 42.3 22.4304C42.2518 22.461 42.1989 22.4934 42.1508 22.524C38.2234 25.033 35.3083 28.9086 31.1902 31.1435C29.1538 32.2493 26.9689 32.8485 24.7428 32.6223C24.6987 32.6205 24.6812 32.6889 24.7226 32.698C28.3808 33.4205 32.1605 31.0664 35.0022 28.703C36.9363 27.0979 38.7294 25.336 40.7377 23.8265C41.2075 23.4752 41.6856 23.1456 42.1719 22.8376C40.7682 27.1176 37.6804 30.9102 33.7715 33.1957C30.3858 34.9551 26.4973 35.4455 22.9065 34.8149C22.897 34.8185 22.8896 34.8276 22.9011 34.8294C23.9816 35.1002 24.9872 35.288 26.1397 35.2903C27.1714 35.289 28.2211 35.1633 29.2543 34.951C29.8238 34.8341 30.3879 34.6884 30.9485 34.5192C30.4904 34.6866 30.0194 34.8342 29.5497 34.9566C24.3667 36.3025 18.9019 34.9844 15.1421 31.6719C14.6296 28.7861 11.5129 26.64 8.59552 26.7685C8.42367 26.7594 8.25182 26.7503 8.07932 26.7539C8.93886 26.0261 9.78557 25.3217 10.6996 24.6661C10.7213 24.6517 10.7022 24.6156 10.6757 24.6318C9.70852 25.1901 8.7634 25.9071 8.0012 26.734C7.9917 26.7376 7.99103 26.7502 7.99038 26.7629C7.48239 26.7698 6.97179 26.8273 6.45989 26.91C6.70084 26.8434 6.94243 26.7642 7.18544 26.703C7.19969 26.6976 7.19354 26.6814 7.17724 26.6814C6.84249 26.7155 6.51174 26.7172 6.17494 26.7459C6.00654 26.7602 5.84625 26.7529 5.6853 26.7583C5.76762 26.5168 5.79014 26.2609 5.75361 26.0211C5.70673 25.7111 5.52571 25.2478 5.22037 25.0729C5.29422 24.9954 5.34357 24.8963 5.36843 24.7755C5.36908 24.7629 5.36975 24.7503 5.3704 24.7377C5.62928 24.1881 5.61692 23.5248 5.1115 23.1659L5.11691 23.1515C5.30568 22.8326 5.42101 23.0795 5.59536 22.9949C5.61436 22.9877 5.6286 22.9823 5.64285 22.9769C5.6571 22.9715 5.66661 22.9679 5.68766 22.9661C5.79692 22.9247 5.90337 22.8473 5.97787 22.7572C6.07473 22.6401 6.14903 22.4635 6.14054 22.3121C6.15954 22.3049 6.1833 22.2959 6.2023 22.2887C6.31984 22.3121 6.43459 22.2996 6.57569 22.2275C6.69304 22.1645 6.77911 22.0762 6.86581 21.9753C7.11373 21.6835 7.30958 21.4979 7.68969 21.3971C8.6101 21.1596 8.61712 20.3468 9.28675 19.7343C9.3159 19.7108 9.32938 19.6748 9.32659 19.6388C9.9454 19.3795 10.5752 19.1779 11.2043 18.9457C11.247 18.9295 11.2394 18.8519 11.1925 18.8573C11.1409 18.8645 11.0893 18.8717 11.0377 18.8789C11.4747 18.7133 11.9117 18.5476 12.3549 18.3982C12.9057 18.4183 13.4747 18.314 14.015 18.1773C14.7012 18.0099 15.4676 17.8246 16.0193 17.331C16.0606 17.2968 16.0653 17.2517 16.053 17.2193C16.7191 16.8555 17.2235 16.151 17.5935 15.4789C17.6293 15.4158 17.6584 15.3491 17.6895 15.2879C18.1811 14.6501 18.6299 13.9852 19.0882 13.3167C19.7225 12.396 20.5565 11.4862 21.5202 10.8612C21.6722 10.8036 21.8195 10.7478 21.9688 10.6974L21.9864 10.6721ZM18.9629 20.3963C18.1719 20.5167 17.377 20.6696 16.5841 20.8711C16.1592 20.9826 15.7316 21.1014 15.3054 21.2382C16.4836 20.835 17.7014 20.5652 18.9629 20.3963ZM17.3862 14.4875C17.5757 14.1992 17.7516 13.9037 17.9411 13.6154C17.9412 13.6587 17.9746 13.6893 18.0167 13.6857C17.8006 13.947 17.5913 14.2118 17.3909 14.4857L17.3862 14.4875ZM18.2477 12.8189C17.792 13.4369 17.4111 14.0946 17.1224 14.6803C17.1568 14.5559 17.1816 14.4351 17.2044 14.309C17.2158 14.2243 17.0799 14.1954 17.0543 14.2855C16.921 14.7937 16.7359 15.2658 16.4782 15.7037C16.1463 16.1325 15.7941 16.5505 15.4112 16.9306C14.9889 17.2639 14.5303 17.4872 14.0465 17.7015C14.0227 17.7105 13.9942 17.7213 13.9684 17.7249C13.718 17.795 13.4661 17.8472 13.2163 17.9048C15.112 16.4565 16.5046 14.4691 18.1906 12.7973C18.2644 12.7198 18.3451 12.6459 18.421 12.5739C18.3607 12.6585 18.3005 12.7432 18.2497 12.8243L18.2477 12.8189Z" fill="#F3F3F3"/>
<path d="M28.8149 25.4075C27.6344 26.2631 26.3844 27.0214 25.0887 27.6733C22.5352 28.9626 19.7974 29.8086 17.0369 30.2363C19.8255 29.9401 22.577 29.1015 25.1597 27.8319C26.4283 27.2089 27.6539 26.4722 28.8141 25.649C29.4135 25.2239 29.9932 24.7754 30.5558 24.2962C31.0452 23.8819 31.7098 23.4136 32.0413 22.855C32.069 22.8135 32.0302 22.754 31.98 22.7793C31.4089 23.107 30.9267 23.698 30.4223 24.1304C29.9011 24.5753 29.3648 24.995 28.8108 25.3967L28.8149 25.4075Z" fill="#F3F3F3"/>
<path d="M29.7011 24.3481C29.1554 24.8146 28.5784 25.256 27.9871 25.6594C26.7108 26.5204 25.3283 27.2299 23.8971 27.7538C23.8924 27.7556 23.8965 27.7664 23.9012 27.7646C25.3542 27.2696 26.7348 26.5979 28.03 25.7297C29.2263 24.93 30.5464 23.9411 31.4172 22.7699C31.4321 22.7519 31.4055 22.7249 31.3838 22.7393C30.8097 23.2599 30.2908 23.84 29.7011 24.3481Z" fill="#F3F3F3"/>
<path d="M32.6931 21.6926C34.1386 22.0663 35.646 22.231 37.1679 22.2046C37.8973 22.1941 38.6266 22.1404 39.3538 22.0379C40.0877 21.9391 40.8801 21.8367 41.5858 21.5631C41.6238 21.5487 41.6006 21.5018 41.5701 21.5072C40.8504 21.6006 40.1343 21.804 39.4119 21.9046C38.6474 22.0088 37.878 22.0716 37.1113 22.0838C35.6172 22.112 34.1519 21.9438 32.7195 21.6332C32.6849 21.6277 32.6612 21.68 32.6979 21.6908L32.6931 21.6926Z" fill="#F3F3F3"/>
<path d="M42.0918 21.3219C39.8145 23.9848 37.2125 26.3501 34.4191 28.4541C34.4048 28.4595 34.4198 28.4847 34.4368 28.4721C37.3092 26.4619 39.9227 24.0984 42.3035 21.5076C42.4539 21.3455 42.2429 21.1471 42.0966 21.3201L42.0918 21.3219Z" fill="#F3F3F3"/>
<path d="M22.2871 20.8248C18.7267 20.4177 15.0292 21.2686 11.8382 23.2697C11.8287 23.2733 11.8369 23.2949 11.8444 23.2859C15.0025 21.4705 18.6409 20.6358 22.1054 20.9617C19.435 21.8995 16.8591 23.216 14.6554 25.084C14.6432 25.0949 14.6561 25.1147 14.6731 25.1021C17.0966 23.3981 19.6666 21.9231 22.4477 21.0051C23.6692 21.4328 25.1357 21.5325 26.4211 21.7133C27.7295 21.8977 29.0693 22.1074 30.404 22.1458C29.6558 22.8808 28.926 23.6213 28.1227 24.2968C27.2612 25.0192 26.3533 25.691 25.4024 26.2926C23.5462 27.4724 21.5475 28.3907 19.4795 29.026C19.4747 29.0278 19.4741 29.0405 19.4836 29.0369C21.5815 28.4088 23.6149 27.4958 25.5057 26.3215C27.322 25.194 29.156 23.8124 30.5568 22.1621C30.5616 22.1603 30.5643 22.1531 30.5622 22.1477C30.6553 22.1495 30.7483 22.1513 30.8461 22.1514C30.9718 22.1532 30.9829 21.982 30.8674 21.9639C30.8396 21.9621 30.8165 21.9585 30.7866 21.9513C30.7961 21.9477 30.8144 21.9531 30.826 21.9549C30.8633 21.9531 30.8802 21.8973 30.8435 21.8864C29.6475 21.5975 28.3495 21.5267 27.1212 21.3676C25.8257 21.203 24.5349 21.0366 23.2299 20.9189C23.2204 20.9225 23.2157 20.9243 23.211 20.9261C22.9181 20.8701 22.6178 20.8231 22.3203 20.8122C22.3108 20.8158 22.3013 20.8194 22.2918 20.823L22.2871 20.8248ZM27.0183 21.5117C27.4184 21.5641 27.8179 21.6292 28.2249 21.6852C27.6712 21.6291 27.1176 21.573 26.5693 21.5025C25.8064 21.3958 25.0441 21.2765 24.2893 21.1483C24.1969 21.1338 24.1092 21.1175 24.0195 21.0959C25.0176 21.2495 26.0217 21.3761 27.0278 21.5081L27.0183 21.5117Z" fill="#F3F3F3"/>
<path d="M27.7918 24.0265C27.1709 24.5525 26.4955 25.0064 25.7818 25.3882C25.7581 25.3972 25.7751 25.4278 25.7941 25.4206C26.5099 25.0875 27.1875 24.6822 27.8051 24.176C28.3955 23.6987 29.0618 23.106 29.4271 22.4357C29.4399 22.4122 29.416 22.378 29.3916 22.3996C28.8339 22.9203 28.3741 23.5275 27.7918 24.0265Z" fill="#F3F3F3"/>
<path d="M28.6798 22.6138C27.9214 23.3218 27.2316 24.01 26.3377 24.5467C26.3282 24.5503 26.3343 24.5665 26.3438 24.5629C27.2155 24.0965 28.1303 23.4715 28.722 22.6535C28.7444 22.6264 28.7022 22.5868 28.6798 22.6138Z" fill="#F3F3F3"/>
<path d="M25.8671 24.2796C25.1302 24.8867 24.3545 25.4343 23.5399 25.9223C23.5304 25.9259 23.5386 25.9476 23.5461 25.9386C24.341 25.4703 25.1127 24.9552 25.8409 24.3823C26.5398 23.8329 27.3609 23.2187 27.8829 22.4889C27.9005 22.4637 27.8692 22.4385 27.8496 22.4583C27.1506 23.0077 26.5579 23.7086 25.8671 24.2796Z" fill="#F3F3F3"/>
<path d="M25.1679 23.8395C24.6575 24.2556 24.132 24.6465 23.5936 25.0176C22.4686 25.7903 21.2836 26.4621 20.0549 27.0329C20.0312 27.0419 20.0482 27.0725 20.0672 27.0653C21.2851 26.5233 22.4613 25.8858 23.5782 25.1347C24.6517 24.4124 25.8492 23.5875 26.7041 22.5894C26.7264 22.5623 26.6904 22.5389 26.6639 22.5551C26.1473 22.955 25.6805 23.4288 25.1679 23.8395Z" fill="#F3F3F3"/>
<path d="M23.6989 24.1056C23.6609 24.12 23.6862 24.1723 23.7194 24.1597C24.4841 23.8266 25.3428 23.3404 25.8472 22.6359C25.8797 22.5926 25.8259 22.5511 25.7873 22.5782C25.0863 23.1222 24.4933 23.6932 23.6989 24.1056Z" fill="#F3F3F3"/>
<path d="M24.6057 23.0879C24.2512 23.3707 23.8748 23.6246 23.4834 23.8534C23.4522 23.8714 23.4707 23.9201 23.5039 23.9075C24.1728 23.5797 25.0384 23.097 25.4512 22.452C25.4641 22.4286 25.447 22.3979 25.4206 22.4141C25.1242 22.6069 24.8824 22.8717 24.6057 23.0879Z" fill="#F3F3F3"/>
<path d="M23.5453 23.2424C23.5453 23.2424 23.546 23.273 23.5582 23.2622C23.9351 22.9524 24.3209 22.6516 24.6781 22.3183C24.695 22.3057 24.6752 22.2823 24.6583 22.2949C24.2705 22.5903 23.9154 22.929 23.5473 23.2478L23.5453 23.2424Z" fill="#F3F3F3"/>
<path d="M21.6371 23.8543C20.8709 24.3983 20.0583 24.8918 19.2266 25.306C19.2076 25.3132 19.2226 25.3384 19.2369 25.333C20.0741 24.9477 20.8718 24.5154 21.6374 23.9841C22.3738 23.4761 23.1787 22.9051 23.7571 22.2097C23.7869 22.1736 23.7352 22.1376 23.7061 22.161C23.0003 22.7068 22.3674 23.3301 21.6351 23.8489L21.6371 23.8543Z" fill="#F3F3F3"/>
<path d="M21.4725 23.3352C20.8155 23.7945 20.1331 24.2016 19.4229 24.5635C19.4134 24.5671 19.4195 24.5834 19.429 24.5797C20.1543 24.243 20.8563 23.8594 21.5243 23.4145C22.1272 23.0129 22.8026 22.559 23.2877 22.0041C23.3222 21.9662 23.2637 21.9265 23.2298 21.9518C22.6209 22.3805 22.0835 22.9119 21.4746 23.3406L21.4725 23.3352Z" fill="#F3F3F3"/>
<path d="M21.3106 22.9204C21.3106 22.9204 21.3128 22.9691 21.3345 22.9547C21.86 22.607 22.4543 22.2829 22.9212 21.8523C22.9531 21.8217 22.9258 21.764 22.8803 21.7874C22.3227 22.0791 21.8171 22.5367 21.3106 22.9204Z" fill="#F3F3F3"/>
<path d="M18.4367 23.9106C18.415 23.925 18.4368 23.9539 18.4585 23.9395C19.1366 23.4784 19.8271 23.0497 20.5434 22.6607C21.1566 22.3293 21.8338 22.0665 22.4129 21.6738C22.4516 21.6468 22.4202 21.5783 22.3822 21.5927C21.6777 21.7979 20.9832 22.259 20.3511 22.6408C19.6973 23.037 19.0605 23.4639 18.4347 23.9052L18.4367 23.9106Z" fill="#F3F3F3"/>
<path d="M16.842 22.6544C16.842 22.6544 16.8427 22.6851 16.8597 22.6725C17.4312 22.2886 18.0233 21.9588 18.6475 21.685C19.2214 21.4365 19.8297 21.2928 20.3968 21.0406C20.4396 21.0244 20.417 20.9648 20.3769 20.9738C19.7583 21.0471 19.0996 21.3587 18.5379 21.6398C17.9478 21.9316 17.383 22.2759 16.842 22.6544Z" fill="#F3F3F3"/>
<path d="M14.9612 23.0952C14.9612 23.0952 14.9646 23.1187 14.9673 23.1115C15.9748 22.4445 17.0209 21.9798 18.1119 21.5044C18.1261 21.499 18.1227 21.4755 18.1016 21.4773C16.9919 21.8173 15.9218 22.4336 14.9496 23.0934L14.9612 23.0952Z" fill="#F3F3F3"/>
<path d="M14.0644 23.0809C14.4648 22.9045 14.8807 22.7407 15.2709 22.5375C15.2946 22.5285 15.2777 22.4981 15.2587 22.5053C14.8502 22.6601 14.4505 22.8669 14.0522 23.0486C14.0284 23.0576 14.0427 23.0953 14.0665 23.0862L14.0644 23.0809Z" fill="#F3F3F3"/>
<path d="M15.5783 31.0736C17.0205 31.2382 18.496 31.1181 19.9232 30.6267C19.947 30.6177 19.9442 30.5816 19.9204 30.5906C18.4848 30.9739 17.0271 31.1553 15.5802 31.0358C15.5571 31.0321 15.5552 31.07 15.5762 31.0682L15.5783 31.0736Z" fill="#F3F3F3"/>
<path d="M15.8782 31.6218C17.7396 31.8316 19.7227 31.5315 21.516 30.7591C21.5398 30.7501 21.5302 30.7104 21.5017 30.7212C19.6497 31.3675 17.7887 31.646 15.8835 31.5641C15.8462 31.5659 15.8436 31.6164 15.8782 31.6218Z" fill="#F3F3F3"/>
<path d="M16.9767 32.127C18.645 32.2431 20.347 31.9752 21.9408 31.2784C21.9551 31.273 21.9469 31.2514 21.9326 31.2568C20.3258 31.8905 18.6544 32.1962 16.9821 32.1126C16.9726 32.1162 16.9699 32.1234 16.9814 32.1252L16.9767 32.127Z" fill="#F3F3F3"/>
<path d="M17.1422 32.5775C19.0435 32.7351 21.0088 32.3305 22.7705 31.403C22.7942 31.394 22.7772 31.3634 22.7582 31.3706C20.9575 32.1953 19.0622 32.5982 17.1509 32.5433C17.1299 32.5451 17.1259 32.5775 17.1469 32.5757L17.1422 32.5775Z" fill="#F3F3F3"/>
<path d="M18.0948 33.0267C19.564 33.076 21.0657 32.8099 22.4614 32.2067C22.4899 32.1959 22.4708 32.1599 22.447 32.1689C21.0253 32.6891 19.576 32.9787 18.0988 32.9943C18.0778 32.9961 18.069 33.0303 18.0969 33.0321L18.0948 33.0267Z" fill="#F3F3F3"/>
<path d="M18.7316 33.5461C19.8312 33.5375 20.9508 33.4101 22.0203 33.0356C22.0631 33.0194 22.0568 32.9599 22.012 32.9707C20.9212 33.2172 19.8459 33.433 18.7417 33.4866C18.7043 33.4884 18.6943 33.5479 18.7337 33.5515L18.7316 33.5461Z" fill="#F3F3F3"/>
<path d="M19.9898 33.9413C20.5821 33.9276 21.1585 33.8145 21.7203 33.5768C21.7298 33.5732 21.7236 33.5569 21.7141 33.5605C21.1509 33.7802 20.5786 33.9041 19.9931 33.9215C19.9789 33.9269 19.9755 33.9467 19.9898 33.9413Z" fill="#F3F3F3"/>
<path d="M20.229 34.2712C21.6492 34.2772 23.27 33.8237 24.5943 33.2043C24.6276 33.1917 24.6145 33.1286 24.5765 33.143C23.8633 33.3824 23.1521 33.6272 22.423 33.8108C21.692 33.9889 20.9566 34.0697 20.2248 34.2171C20.1963 34.2279 20.1964 34.2712 20.2243 34.273L20.229 34.2712Z" fill="#F3F3F3"/>
<path d="M21.2733 34.4322C22.3395 34.3504 23.3916 34.0446 24.3655 33.5329C24.3893 33.5239 24.3749 33.486 24.3512 33.495C23.3505 33.9362 22.3317 34.2294 21.2752 34.3943C21.2562 34.4015 21.2522 34.434 21.2753 34.4376L21.2733 34.4322Z" fill="#F3F3F3"/>
<path d="M28.8739 31.0381C28.8359 31.0525 28.8632 31.1102 28.8944 31.0922C30.6921 30.1882 32.5125 29.0715 33.9763 27.6447C34.0129 27.6122 33.9734 27.5654 33.9347 27.5924C32.2851 28.8299 30.6782 30.0512 28.8739 31.0381Z" fill="#F3F3F3"/>
<path d="M28.8012 30.4162C28.7727 30.427 28.7912 30.4757 28.8176 30.4595C29.9058 29.9048 30.955 29.2474 31.8645 28.4079C31.8916 28.3791 31.861 28.3412 31.8271 28.3665C30.846 29.1032 29.8614 29.8165 28.7965 30.418L28.8012 30.4162Z" fill="#F3F3F3"/>
<path d="M27.3164 30.713C27.3164 30.713 27.3097 30.7526 27.3267 30.74C28.7187 30.0269 30.0315 29.0903 31.1135 27.9318C31.1331 27.912 31.1114 27.8831 31.0917 27.903C29.9164 28.973 28.6913 29.926 27.3164 30.713Z" fill="#F3F3F3"/>
<path d="M39.8494 24.794C39.2646 25.3867 38.7418 26.0426 38.157 26.6353C37.5743 27.2334 36.9602 27.8063 36.3244 28.3503C35.0114 29.4726 33.6091 30.4741 32.1257 31.3332C32.1162 31.3368 32.1224 31.353 32.1319 31.3494C33.6065 30.5246 35.0225 29.5735 36.3288 28.4909C36.9931 27.9361 37.6289 27.3488 38.2333 26.7362C38.8181 26.1435 39.4273 25.5292 39.8937 24.8391C39.914 24.8066 39.8765 24.7652 39.8447 24.7958L39.8494 24.794Z" fill="#F3F3F3"/>
<path d="M39.0287 26.0265C38.44 26.6949 37.8289 27.3471 37.1939 27.965C35.9944 29.1433 34.7044 30.2259 33.3606 31.2238C33.3389 31.2382 33.3627 31.2725 33.3823 31.2527C34.7744 30.2674 36.0882 29.1757 37.3162 27.9867C37.8848 27.4372 38.4357 26.8697 38.9621 26.2806C39.5182 25.6554 40.1884 24.987 40.5895 24.2536C40.6024 24.2302 40.5806 24.2014 40.5562 24.223C39.993 24.758 39.5456 25.4409 39.0287 26.0265Z" fill="#F3F3F3"/>
<path d="M40.5066 24.7366C39.7573 25.8555 38.9536 26.9456 38.0607 27.9581C38.9781 26.9673 39.8152 25.9078 40.5202 24.7438C40.5277 24.7348 40.512 24.7222 40.5046 24.7312L40.5066 24.7366Z" fill="#F3F3F3"/>
<path d="M38.063 27.9635C37.439 28.6391 36.7816 29.2841 36.0998 29.9074C36.8014 29.3075 37.4499 28.6536 38.063 27.9635Z" fill="#F3F3F3"/>
<path d="M35.938 30.0539C35.9947 30.002 36.0467 29.9518 36.1006 29.907C36.0419 29.9536 35.99 30.0038 35.9312 30.0504C35.9264 30.0522 35.9353 30.0611 35.9332 30.0558L35.938 30.0539Z" fill="#F3F3F3"/>
<path d="M28.3441 29.2968C27.5426 29.848 26.707 30.3379 25.8591 30.7953C25.8353 30.8043 25.8497 30.8422 25.8734 30.8332C26.7059 30.4496 27.5001 29.994 28.2651 29.4752C29.0612 28.9385 29.8878 28.3531 30.5504 27.6504C30.5823 27.6198 30.5448 27.5783 30.5109 27.6035C29.7787 28.1656 29.0975 28.7763 28.3394 29.2986L28.3441 29.2968Z" fill="#F3F3F3"/>
<path d="M25.586 30.1876C25.5453 30.2092 25.5726 30.2669 25.6086 30.2471C26.9558 29.5448 28.2505 28.7325 29.4457 27.7723C29.4674 27.7579 29.4409 27.7309 29.4239 27.7435C28.1667 28.5973 26.8944 29.4258 25.586 30.1876Z" fill="#F3F3F3"/>
<path d="M25.3487 29.6341C25.3202 29.6449 25.3387 29.6936 25.3651 29.6774C26.4483 29.038 27.5424 28.4131 28.5935 27.7178C28.6125 27.7106 28.6002 27.6782 28.5833 27.6908C27.483 28.2995 26.419 28.9749 25.3487 29.6341Z" fill="#F3F3F3"/>
<path d="M25.2191 29.1772C25.8912 28.7862 26.5612 28.3897 27.2229 27.9715C27.2372 27.9661 27.229 27.9444 27.2147 27.9498C26.5318 28.3264 25.8665 28.7211 25.1986 29.123C25.1674 29.141 25.1879 29.1952 25.2191 29.1772Z" fill="#F3F3F3"/>
<path d="M27.0783 27.3893C26.162 27.9531 25.2041 28.4213 24.2503 28.9003C24.217 28.9129 24.2402 28.9598 24.2687 28.949C25.3137 28.5529 26.3135 27.9946 27.2712 27.3966C28.1759 26.8311 29.0995 26.2151 29.8871 25.4837C29.9142 25.4548 29.8835 25.417 29.8544 25.4404C28.9329 26.1051 28.0495 26.7986 27.083 27.3875L27.0783 27.3893Z" fill="#F3F3F3"/>
<path d="M30.7546 25.0929C30.7546 25.0929 30.7595 25.1344 30.7764 25.1218C31.2123 24.7525 31.6502 24.3886 32.0663 23.9959C32.0785 23.985 32.0656 23.9652 32.0487 23.9778C31.6019 24.3327 31.1837 24.72 30.7567 25.0983L30.7546 25.0929Z" fill="#F3F3F3"/>
<path d="M20.0252 13.7533C21.3512 13.5538 22.6444 13.6264 23.9352 13.7928C23.9631 13.7946 23.9772 13.746 23.9473 13.7387C22.68 13.4336 21.336 13.4853 20.0197 13.7244C20.0054 13.7298 20.0089 13.7533 20.0252 13.7533Z" fill="#F3F3F3"/>
<path d="M20.7308 13.0344C22.243 12.8819 23.6853 13.0898 25.0901 13.5283C25.1085 13.5337 25.1193 13.5049 25.1009 13.4995C23.74 12.9762 22.2218 12.8404 20.7253 13.0056C20.7063 13.0128 20.7098 13.0362 20.7308 13.0344Z" fill="#F3F3F3"/>
<path d="M20.0711 12.7278C22.2167 12.2114 24.3574 12.5133 26.234 13.4225C26.2612 13.437 26.2957 13.3991 26.2665 13.3793C24.4792 12.2755 22.1886 12.0798 20.0662 12.6863C20.0377 12.6971 20.0473 12.7368 20.0711 12.7278Z" fill="#F3F3F3"/>
<path d="M21.8085 11.6796C24.0181 11.7761 26.0936 12.3934 28.0509 13.2719C28.0713 13.2828 28.0895 13.2449 28.0691 13.2341C26.1801 12.206 24.0126 11.7472 21.8092 11.667C21.8044 11.6688 21.8017 11.676 21.8133 11.6778L21.8085 11.6796Z" fill="#F3F3F3"/>
<path d="M22.2502 10.8815C24.0559 11.131 25.7935 11.5733 27.5204 12.0877C27.5503 12.0949 27.5618 12.0535 27.5366 12.0444C25.8793 11.3552 24.0753 10.9814 22.2602 10.822C22.2208 10.8184 22.2155 10.876 22.2522 10.8868L22.2502 10.8815Z" fill="#F3F3F3"/>
<path d="M32.9643 11.8736C35.896 13.5889 38.2967 15.9384 40.0127 18.8752C40.0189 18.8914 40.0521 18.8788 40.0412 18.8644C38.4406 15.9024 35.9635 13.4087 32.9765 11.8628C32.9697 11.8592 32.9575 11.87 32.9663 11.879L32.9643 11.8736Z" fill="#F3F3F3"/>
<path d="M27.6461 10.9143C28.6383 11.1814 29.6729 11.3027 30.6591 11.5969C31.6887 11.9055 32.6608 12.3349 33.5633 12.8958C33.5701 12.8994 33.5824 12.8886 33.5735 12.8796C32.6941 12.3223 31.7619 11.8406 30.7824 11.4635C29.8416 11.1027 28.7155 10.7687 27.6649 10.8206C27.616 10.8205 27.5911 10.898 27.6441 10.9089L27.6461 10.9143Z" fill="#F3F3F3"/>
<path d="M8.57242 26.6351C8.57242 26.6351 8.5752 26.6711 8.59215 26.6585C9.58414 25.9362 10.5829 25.2175 11.5293 24.4321C11.5537 24.4105 11.5271 24.3834 11.5007 24.3996C10.4937 25.0967 9.53377 25.8749 8.57242 26.6351Z" fill="#F3F3F3"/>
<path d="M9.47375 26.4047C9.44935 26.4264 9.47998 26.4642 9.50438 26.4426C10.0048 26.086 10.4725 25.6861 10.975 25.3348C11.4775 24.9836 11.9902 24.6594 12.4988 24.3243C12.5252 24.3081 12.5014 24.2739 12.4729 24.2847C11.4146 24.8033 10.3092 25.5562 9.469 26.4066L9.47375 26.4047Z" fill="#F3F3F3"/>
<path d="M10.159 26.5223C10.159 26.5223 10.1625 26.5458 10.1699 26.5368C10.86 25.9351 11.5923 25.4163 12.3368 24.8867C12.3585 24.8723 12.3367 24.8435 12.3177 24.8507C11.5309 25.2973 10.8178 25.8954 10.1638 26.5205L10.159 26.5223Z" fill="#F3F3F3"/>
<path d="M10.986 26.6542C10.986 26.6542 10.9908 26.6956 11.0078 26.683C11.6098 26.2075 12.2098 25.7265 12.8009 25.2365C12.8104 25.2329 12.7975 25.2131 12.79 25.2221C12.1812 25.694 11.5812 26.175 10.9812 26.656L10.986 26.6542Z" fill="#F3F3F3"/>
<path d="M7.56117 26.2892L7.56527 26.3C7.76721 26.1305 7.96913 25.961 8.17106 25.7915C8.17581 25.7897 8.16696 25.7807 8.16901 25.7861C7.96708 25.9556 7.76516 26.1251 7.56117 26.2892Z" fill="#F3F3F3"/>
<path d="M6.54145 26.5945C6.54145 26.5945 6.5476 26.6107 6.5503 26.6035C7.22943 25.9874 7.86861 25.4235 8.67853 24.9805C8.70228 24.9715 8.68524 24.9409 8.66624 24.9481C7.86702 25.319 7.06819 25.863 6.54145 26.5945Z" fill="#F3F3F3"/>
<path d="M6.0158 26.3547C5.98935 26.3709 6.01999 26.4088 6.04644 26.3926C6.73742 25.908 7.42364 25.4253 8.09962 24.9155C8.11387 24.9101 8.10094 24.8903 8.08194 24.8975C7.38211 25.373 6.69793 25.8611 6.0158 26.3547Z" fill="#F3F3F3"/>
<path d="M5.834 25.904C5.834 25.904 5.83476 25.9347 5.85171 25.9221C6.47404 25.4141 7.13994 24.9638 7.83111 24.5658C7.84061 24.5622 7.83446 24.5459 7.82496 24.5495C7.11134 24.9313 6.45698 25.3834 5.834 25.904Z" fill="#F3F3F3"/>
<path d="M5.94037 25.1102C5.94037 25.1102 5.93973 25.1228 5.94448 25.121C6.67147 24.7029 7.38754 24.2704 8.10157 23.8324C8.11107 23.8288 8.10491 23.8126 8.09746 23.8216C7.37253 24.2451 6.65234 24.6668 5.94243 25.1156L5.94037 25.1102Z" fill="#F3F3F3"/>
<path d="M5.91409 24.4517C7.02235 23.8643 8.17321 23.4467 9.3707 23.1664C9.39445 23.1574 9.38688 23.1231 9.36788 23.1303C8.15319 23.3365 6.98268 23.774 5.89354 24.3975C5.86235 24.4155 5.88084 24.4643 5.91409 24.4517Z" fill="#F3F3F3"/>
<path d="M6.51313 23.4387C7.8032 22.9869 9.1093 22.7207 10.44 22.5194C10.459 22.5122 10.463 22.4798 10.4399 22.4762C9.11169 22.5837 7.78062 22.9274 6.4994 23.3883C6.4709 23.3991 6.4873 23.4423 6.5158 23.4315L6.51313 23.4387Z" fill="#F3F3F3"/>
<path d="M37.0403 24.9929C36.1415 25.8036 35.1951 26.5457 34.2677 27.324C34.2311 27.3564 34.2733 27.3961 34.3093 27.3762C35.3299 26.6864 36.2755 25.8703 37.1959 25.0453C38.0628 24.2652 38.9873 23.4509 39.6943 22.5212C39.7092 22.5032 39.6779 22.478 39.663 22.496C38.754 23.2796 37.9363 24.1895 37.0423 24.9983L37.0403 24.9929Z" fill="#F3F3F3"/>
<path d="M34.9984 26.2986C34.9693 26.322 35.0067 26.3635 35.0311 26.3419C36.0342 25.4051 37.0916 24.4972 38.0327 23.4973C38.0571 23.4757 38.0265 23.4378 38.0021 23.4594C36.9527 24.3457 35.9858 25.3492 34.9937 26.3004L34.9984 26.2986Z" fill="#F3F3F3"/>
<path d="M34.4737 26.219C34.4737 26.219 34.4745 26.2497 34.4867 26.2389C35.1977 25.5921 35.9358 24.9598 36.6182 24.2806C36.6304 24.2698 36.6175 24.25 36.6005 24.2626C35.8698 24.8859 35.1779 25.5687 34.471 26.2263L34.4737 26.219Z" fill="#F3F3F3"/>
<path d="M34.5631 24.9359C34.023 25.4746 33.4482 25.9646 32.8468 26.4275C32.8224 26.4491 32.851 26.4816 32.8754 26.46C33.5664 25.9754 34.243 25.4531 34.8665 24.8766C35.3505 24.4334 35.9096 23.9308 36.2146 23.3452C36.2356 23.3001 36.1764 23.2731 36.1473 23.2965C35.5601 23.754 35.1005 24.4045 34.5678 24.9341L34.5631 24.9359Z" fill="#F3F3F3"/>
<path d="M34.696 23.8961C34.5261 24.1213 34.3493 24.3429 34.1658 24.5609C34.1536 24.5717 34.176 24.588 34.1834 24.579C34.3758 24.37 34.5724 24.1718 34.7736 23.9718C34.9308 23.8133 35.1132 23.6638 35.2119 23.4656C35.2302 23.4277 35.1791 23.379 35.1405 23.4061C34.9547 23.5321 34.8281 23.7285 34.6933 23.9033L34.696 23.8961Z" fill="#F3F3F3"/>
<path d="M22.3808 14.6663C25.1797 15.6155 27.6799 17.2099 29.7444 19.26C29.7485 19.2708 29.7634 19.2528 29.7566 19.2492C27.7265 17.118 25.2163 15.5831 22.3842 14.6465C22.3726 14.6446 22.3624 14.6609 22.376 14.6681L22.3808 14.6663Z" fill="#F3F3F3"/>
<path d="M31.4959 15.1948C32.5664 16.7867 33.8485 18.2489 35.1062 19.6896L35.1157 19.686C33.9868 18.1409 32.8362 16.5669 31.5223 15.1785C31.5114 15.1641 31.487 15.1857 31.4979 15.2002L31.4959 15.1948Z" fill="#F3F3F3"/>
<path d="M18.5672 16.2849C19.8235 16.5324 20.9865 16.9636 22.1178 17.512C22.1518 17.5301 22.1938 17.4832 22.1578 17.4598C21.0967 16.7672 19.8591 16.3828 18.5732 16.2579C18.5569 16.2579 18.5509 16.2849 18.5672 16.2849Z" fill="#F3F3F3"/>
<path d="M19.7762 15.9628C20.6516 16.2804 21.532 16.6828 22.4433 16.894C22.4963 16.9049 22.5185 16.8346 22.473 16.8147C21.634 16.4214 20.6867 16.1867 19.7984 15.8926C19.7549 15.8781 19.7327 15.9484 19.7714 15.9646L19.7762 15.9628Z" fill="#F3F3F3"/>
<path d="M17.9384 17.0922C18.3103 17.2419 18.6841 17.3539 19.0782 17.4333C19.1081 17.4405 19.129 17.3955 19.0971 17.3829C18.7198 17.2475 18.3406 17.15 17.9411 17.085C17.9411 17.085 17.9316 17.0886 17.9384 17.0922Z" fill="#F3F3F3"/>
<path d="M12.4642 19.2167C12.4642 19.2167 12.4534 19.2455 12.4676 19.2401C13.835 19.0496 15.3008 18.5312 16.3758 17.5548C16.4002 17.5332 16.377 17.4863 16.3458 17.5043C15.1 18.3166 13.9095 18.9596 12.4621 19.2113L12.4642 19.2167Z" fill="#F3F3F3"/>
<path d="M14.5131 19.2192C14.4792 19.2445 14.4997 19.2985 14.5356 19.2787C15.201 18.8843 15.9344 18.526 16.5329 18.027C16.5573 18.0053 16.5335 17.9711 16.505 17.9819C15.8021 18.2916 15.1539 18.8032 14.5083 19.221L14.5131 19.2192Z" fill="#F3F3F3"/>
<path d="M35.6921 15.101C36.5539 15.9556 37.2946 16.7634 37.8092 17.8919C37.8427 17.9658 37.9574 17.91 37.9334 17.8325C37.5383 16.6896 36.8302 15.6097 35.7735 15.0145C35.7259 14.9892 35.6527 15.0541 35.6969 15.0992L35.6921 15.101Z" fill="#F3F3F3"/>
<path d="M53.1789 19.1421C53.2196 19.1512 53.2577 19.1675 53.2984 19.1767C53.3345 19.1876 53.3461 19.134 53.3121 19.1285C53.2714 19.1193 53.2327 19.1155 53.192 19.1064C53.1739 19.1009 53.1655 19.1348 53.1836 19.1403L53.1789 19.1421Z" fill="#F3F3F3"/>
<path d="M50.1734 19.1246C50.7703 19.1086 51.3658 19.0746 51.9634 19.0461C51.9682 19.0443 51.9709 19.037 51.9614 19.0406C51.3665 19.062 50.7695 19.078 50.174 19.112C50.1645 19.1156 50.1639 19.1282 50.1734 19.1246Z" fill="#F3F3F3"/>
<path d="M41.5574 20.844C44.0108 20.3656 46.4635 19.8566 48.923 19.3944C48.9468 19.3854 48.944 19.3494 48.9182 19.353C46.4602 19.6042 43.9558 20.0772 41.556 20.8259C41.5417 20.8313 41.5431 20.8494 41.5642 20.8476L41.5574 20.844Z" fill="#F3F3F3"/>
<path d="M34.57 21.2844C36.2673 21.3338 37.9808 21.2966 39.6901 21.2487C39.7553 21.2487 39.7673 21.1514 39.7021 21.1514C37.9975 21.1543 36.286 21.1535 34.5767 21.2447C34.5557 21.2465 34.5517 21.2789 34.5727 21.2772L34.57 21.2844Z" fill="#F3F3F3"/>
</svg>
