<svg width="138" height="132" viewBox="0 0 138 132" fill="none" xmlns="http://www.w3.org/2000/svg">
<path d="M66.9862 46.8442C73.1547 58.6482 75.6874 73.8113 70.4657 85.5781C65.3036 97.2113 52.4569 101.452 40.8863 98.1121C29.5764 94.8434 17.5165 84.3704 13.6078 71.7617C11.5897 65.2376 12.9066 58.8097 14.9504 52.9121C17.1217 46.6483 19.8491 40.0702 25.6991 37.2764C26.4467 36.9191 26.0507 35.5316 25.2331 35.8414C21.0146 37.4403 18.1801 40.8062 16.0919 45.0278C13.6894 49.8934 11.3228 55.9503 11.0037 61.7043C10.4594 71.6096 17.0034 82.1771 23.6952 88.8002C31.6774 96.6863 42.2117 101.986 52.5316 100.758C62.0927 99.6184 70.3461 93.452 73.345 83.3927C76.9128 71.4249 74.6048 57.3002 67.9394 46.1725C67.4961 45.4312 66.5794 46.0965 66.9724 46.8421L66.9862 46.8442Z" fill="#F3F3F3"/>
<path d="M47.7952 32.4945C41.4068 31.5891 35.3079 32.3555 29.8184 35.5006C29.3911 35.7439 29.84 36.4313 30.2624 36.2268C39.2568 31.7756 52.4076 33.5111 60.3564 41.3433C60.7615 41.7442 61.4117 41.3352 61.2074 40.762C59.1529 34.9983 52.6415 33.1859 47.7895 32.4966L47.7952 32.4945Z" fill="#F3F3F3"/>
<path d="M36.7156 93.9266C36.6693 93.9072 36.6597 93.9847 36.706 94.0041C40.7591 95.7207 45.1296 97.487 49.4002 97.7387C49.5334 97.7474 49.5361 97.5319 49.4102 97.491C45.1924 96.1621 40.9151 95.4472 36.718 93.933L36.7156 93.9266Z" fill="#F3F3F3"/>
<path d="M37.4783 92.8688C37.2801 92.8257 37.155 93.1466 37.3671 93.2436C40.1682 94.518 43.3696 95.4781 46.3216 95.6086C46.5383 95.6152 46.5392 95.2748 46.3369 95.2036C43.4618 94.2308 40.3998 93.5358 37.4758 92.8624L37.4783 92.8688Z" fill="#F3F3F3"/>
<path d="M25.4168 89.2491C27.4578 90.7968 29.7105 92.56 32.0503 93.3882C32.1843 93.4335 32.2869 93.2246 32.1641 93.1233C30.1107 91.4916 27.7482 90.295 25.6195 88.7731C25.3349 88.5705 25.1436 89.0422 25.4111 89.2513L25.4168 89.2491Z" fill="#F3F3F3"/>
<path d="M73.0412 77.4534C69.7883 84.9921 66.5407 91.6712 59.469 95.5416C52.767 99.2054 44.6157 98.8055 37.3268 95.6096C37.1172 95.5191 37.0652 95.8788 37.2692 95.9715C44.7133 99.2342 52.7597 99.2377 59.7054 95.9769C66.2829 92.8926 72.7178 85.9886 73.5637 77.6841C73.5971 77.361 73.1769 77.1432 73.0412 77.4534Z" fill="#F3F3F3"/>
<path d="M63.7676 45.1367C66.3298 48.8303 68.4898 52.388 69.8553 56.779C71.3214 61.4868 71.6196 66.2825 72.4105 71.0762C72.4393 71.2722 72.7032 71.2831 72.6971 71.0784C72.3802 62.6528 70.8971 50.7216 63.9288 44.9795C63.8271 44.8997 63.6715 45.0031 63.7594 45.1324L63.7676 45.1367Z" fill="#F3F3F3"/>
<path d="M64.3882 48.8124C66.707 53.6627 68.875 58.2007 70.0834 63.4792C70.1473 63.7507 70.5067 63.6367 70.4484 63.3631C69.3834 58.3258 67.6818 52.8424 64.7635 48.5519C64.5746 48.276 64.2504 48.5172 64.3882 48.8124Z" fill="#F3F3F3"/>
<path d="M63.5344 53.1055C63.8437 53.8531 64.3688 54.5191 64.7406 55.2431C65.1736 56.077 65.4954 56.9604 65.7491 57.8696C65.8637 58.2919 66.4104 58.1069 66.3121 57.6932C65.9595 56.1118 65.283 53.8473 64.0426 52.7502C63.8002 52.539 63.3753 52.737 63.5263 53.1012L63.5344 53.1055Z" fill="#F3F3F3"/>
<path d="M44.8205 35.1303C40.6144 35.0315 36.2737 35.0059 32.8693 37.6564C32.5476 37.904 32.8963 38.4815 33.2417 38.262C39.5864 34.1866 50.4255 35.682 57.1215 39.4722C57.3459 39.6015 57.5602 39.2763 57.3585 39.0867C53.8043 35.7395 49.1378 35.2312 44.8261 35.1281L44.8205 35.1303Z" fill="#F3F3F3"/>
<path d="M43.6934 37.8639C43.626 37.8747 43.6499 38.0061 43.7197 38.0018C49.1563 37.6638 53.3031 39.5592 58.3626 41.9441C58.6097 42.0648 58.8687 41.7375 58.6271 41.5112C54.5564 37.7092 48.4646 36.9353 43.6934 37.8639Z" fill="#F3F3F3"/>
<path d="M49.9703 40.2897C49.6902 40.2702 49.7391 40.7248 50.0047 40.7572C52.3921 41.0943 54.3793 42.1745 56.5882 43.2741C56.8353 43.3948 57.0976 43.0589 56.8527 42.8412C54.9169 41.1428 52.2989 40.4717 49.976 40.2875L49.9703 40.2897Z" fill="#F3F3F3"/>
<path d="M43.7185 40.0201C40.8643 38.9655 37.3883 40.0907 34.9445 41.3865C34.6242 41.5523 34.9195 42.1944 35.2472 42.048C36.6039 41.4303 38.0203 41.0044 39.5128 40.8305C40.9047 40.6652 42.2998 40.8683 43.6861 40.7569C44.0635 40.7248 44.0923 40.1668 43.7153 40.0288L43.7185 40.0201Z" fill="#F3F3F3"/>
<path d="M22.8412 37.6498C15.0001 46.994 10.8164 61.5682 16.4814 74.391C16.6209 74.7077 17.0207 74.5118 16.8552 74.2123C13.6875 68.39 13.6299 61.522 15.1467 55.5359C16.8244 48.9121 20.5068 43.8941 23.1275 37.8739C23.2066 37.6887 22.9684 37.5055 22.8412 37.6498Z" fill="#F3F3F3"/>
<path d="M24.4038 41.02C20.664 44.67 18.7857 49.8395 17.8994 55.3132C17.8457 55.6514 18.3421 55.796 18.3876 55.4535C19.1226 49.8375 21.5987 45.5429 24.8643 41.4812C25.1169 41.1711 24.6711 40.7487 24.3957 41.0157L24.4038 41.02Z" fill="#F3F3F3"/>
<path d="M24.895 44.4562C23.4995 46.2566 22.8494 49.2013 22.1628 51.4501C22.0491 51.8184 22.5645 52.1332 22.6757 51.7584C23.0681 50.4638 23.5036 49.1973 24.0155 47.9609C24.4604 46.8904 25.0694 45.876 25.3404 44.7236C25.4047 44.4478 25.0447 44.2516 24.8868 44.4519L24.895 44.4562Z" fill="#F3F3F3"/>
<path d="M27.0839 48.2615C26.6194 48.9033 26.4322 49.78 26.1401 50.5339C26.0311 50.8118 26.4091 51.0381 26.5424 50.7732C26.9159 50.0624 27.4347 49.3927 27.6294 48.587C27.7074 48.2618 27.2668 48.0074 27.0839 48.2615Z" fill="#F3F3F3"/>
<path d="M71.98 73.0579C71.0703 79.361 68.1966 84.4569 65.0762 89.5354C65.0034 89.6517 65.1563 89.8155 65.243 89.7014C68.731 84.8901 72.2459 79.773 72.2674 73.0968C72.2654 72.9202 72.0112 72.8834 71.9856 73.0558L71.98 73.0579Z" fill="#F3F3F3"/>
<path d="M70.661 72.4044C70.6011 75.0219 70.1965 77.4152 69.1495 79.6897C69.1148 79.7694 69.2205 79.8254 69.2601 79.7587C70.4819 77.6027 71.1411 75.076 70.8866 72.4002C70.87 72.2365 70.6582 72.2429 70.6585 72.398L70.661 72.4044Z" fill="#F3F3F3"/>
<path d="M69.2952 72.7594C69.0935 74.403 69.0065 75.7667 68.0426 77.0782C67.8629 77.3238 68.2176 77.6772 68.3973 77.4317C69.2884 76.2364 70.0166 74.4228 69.5485 72.7595C69.5084 72.6195 69.3079 72.6215 69.2952 72.7594Z" fill="#F3F3F3"/>
<path d="M67.7905 72.3024C67.4723 72.6448 67.3857 73.136 67.2317 73.5862C67.0583 74.0881 66.8524 74.5727 66.609 75.0271C66.4579 75.3136 66.8807 75.6412 67.0718 75.3914C67.6132 74.6613 68.4466 73.451 68.1284 72.3888C68.0786 72.2229 67.891 72.1905 67.7938 72.2938L67.7905 72.3024Z" fill="#F3F3F3"/>
<path d="M65.7786 71.2907C65.7797 71.756 65.8082 72.1739 65.6444 72.5983C65.4934 72.9881 66.0438 73.3266 66.2085 72.9389C66.4217 72.422 66.5493 71.7822 66.3061 71.209C66.1698 70.8837 65.7746 70.9374 65.7705 71.2864L65.7786 71.2907Z" fill="#F3F3F3"/>
<path d="M45.5202 92.4377C42.8627 91.8334 40.3989 91.4661 37.8462 90.1789C37.5723 90.0387 37.3808 90.4587 37.6507 90.6226C40.0356 92.0325 42.8617 93.2014 45.497 92.9418C45.7348 92.9183 45.798 92.5025 45.5145 92.4399L45.5202 92.4377Z" fill="#F3F3F3"/>
<path d="M41.3635 89.8439C41.0557 89.82 41.0983 90.3435 41.4028 90.376C42.6857 90.4886 44.1102 90.7692 45.3712 90.55C45.4751 90.5328 45.439 90.3691 45.357 90.3411C44.0936 89.9032 42.652 89.9543 41.3635 89.8439Z" fill="#F3F3F3"/>
<path d="M43.1446 88.5329C42.8467 88.535 42.89 89.0434 43.1823 89.0435C43.6807 89.0394 44.2101 89.0827 44.6994 88.986C44.8795 88.9473 44.8552 88.6091 44.6652 88.5702C44.1633 88.4795 43.643 88.5288 43.1446 88.5329Z" fill="#F3F3F3"/>
<path d="M60.116 93.6476C57.7429 94.2735 55.3953 95.0006 53.0148 95.6071C52.8372 95.6523 52.9393 95.9388 53.1105 95.9109C55.5376 95.4789 57.9424 94.8854 60.197 93.9126C60.3446 93.8567 60.2629 93.6067 60.1103 93.6497L60.116 93.6476Z" fill="#F3F3F3"/>
<path d="M21.3263 82.1206C23.1027 84.3748 24.9501 86.8164 27.2131 88.487C27.4838 88.6875 27.6753 88.2675 27.484 88.0369C25.6695 85.8193 23.4225 84.0023 21.4485 81.9634C21.3509 81.86 21.24 82.0129 21.3238 82.1142L21.3263 82.1206Z" fill="#F3F3F3"/>
<path d="M37.9822 44.2791C37.8518 44.432 38.0602 44.7078 38.2223 44.5872C42.4655 41.3231 49.0365 43.6526 53.9159 44.6198C54.0978 44.6544 54.2068 44.3765 54.0142 44.2795C49.7731 41.9984 41.3276 40.3424 37.9765 44.2812L37.9822 44.2791Z" fill="#F3F3F3"/>
<path d="M46.3218 45.0878C46.1985 45.105 46.2152 45.3205 46.3385 45.3033C48.3706 45.0284 50.4072 45.3136 52.414 46.0685C52.4604 46.0879 52.4699 46.0104 52.4236 45.991C50.423 45.1154 48.3751 44.8345 46.3194 45.0814L46.3218 45.0878Z" fill="#F3F3F3"/>
<path d="M46.6989 47.3848C46.3928 47.3825 46.4322 47.9147 46.7382 47.9169C47.537 47.9173 48.3692 47.9715 49.1548 47.8512C49.326 47.8233 49.2952 47.5023 49.1214 47.472C48.3183 47.3403 47.4969 47.4002 46.6989 47.3848Z" fill="#F3F3F3"/>
<path d="M43.2757 45.2591C42.5914 45.2523 41.8538 45.4136 41.2016 45.5943C40.5436 45.7771 39.832 45.9211 39.25 46.3043C39.0684 46.4249 39.1892 46.7266 39.389 46.7396C40.0905 46.7916 40.7897 46.5635 41.4631 46.4044C42.1171 46.2453 42.8269 46.028 43.4147 45.6943C43.6012 45.5867 43.4706 45.2592 43.2757 45.2591Z" fill="#F3F3F3"/>
<path d="M54.778 32.931C45.0863 28.3467 31.3686 29.7756 23.8501 36.7502C23.3826 37.1787 23.7294 38.3335 24.4334 38.015C33.2722 34.0958 42.8487 30.3924 52.8149 34.6729C63.0208 39.0549 69.0317 50.7856 72.0393 61.5993C72.2651 62.4008 73.3062 62.1837 73.2736 61.4124C72.7984 50.0676 64.5054 37.5238 54.7674 32.9202L54.778 32.931Z" fill="#F3F3F3"/>
<path d="M29.1069 89.4917C29.0557 89.4594 28.9991 89.5326 29.052 89.5865C30.8578 91.2159 32.7498 92.1991 34.9753 92.7085C35.1158 92.7366 35.1372 92.5362 35.0121 92.4801C33.014 91.6111 31.0236 90.5913 29.1069 89.4917Z" fill="#F3F3F3"/>
<path d="M30.8836 38.7046C30.4727 38.9567 30.0642 39.2152 29.6501 39.4759C29.6217 39.4866 29.6495 39.5428 29.6811 39.5234C30.0896 39.2649 30.4956 38.9998 30.904 38.7413C30.9267 38.7327 30.9007 38.6981 30.8836 38.7046Z" fill="#F3F3F3"/>
<path d="M32.925 40.4072C31.5169 40.5639 30.1492 41.341 28.9159 41.9932C28.6784 42.1202 28.9277 42.521 29.1652 42.394C30.4148 41.7504 31.8086 41.3848 33.0215 40.6959C33.139 40.6292 33.0622 40.3922 32.925 40.4072Z" fill="#F3F3F3"/>
<path d="M33.6511 41.862C33.4476 41.9761 33.2857 42.1484 33.0797 42.256C32.8389 42.3916 32.5712 42.4561 32.2969 42.4862C32.0761 42.5033 32.0956 42.8803 32.3269 42.8739C32.8757 42.8656 33.6051 42.7 33.9181 42.1896C34.0338 41.9979 33.8546 41.7479 33.6544 41.8534L33.6511 41.862Z" fill="#F3F3F3"/>
<path d="M61.7825 54.1017C62.5229 55.5583 63.4569 56.875 64.1422 58.3747C64.8773 59.9886 65.4389 61.7274 65.7447 63.4596C65.7686 63.591 65.9545 63.6018 65.9396 63.4596C65.5937 60.1828 64.5147 56.171 61.9753 53.9251C61.85 53.8173 61.7067 53.953 61.7825 54.1017Z" fill="#F3F3F3"/>
<path d="M60.6056 54.9694C61.6557 57.3288 62.8694 59.5375 63.7168 61.9959C63.7584 62.1058 63.9028 62.0585 63.8668 61.9464C63.1106 59.557 62.1955 56.9542 60.7743 54.8833C60.7124 54.7885 60.5534 54.8487 60.6032 54.9629L60.6056 54.9694Z" fill="#F3F3F3"/>
<path d="M59.7688 56.4987C60.0478 57.5092 60.5923 58.5004 61.0134 59.4571C61.1333 59.7221 61.5122 59.6081 61.3979 59.3409C60.9695 58.3648 60.6001 57.2703 60.0315 56.3695C59.9313 56.2079 59.7196 56.3177 59.7688 56.4987Z" fill="#F3F3F3"/>
<path d="M58.6952 58.4806C58.8087 58.6594 58.9139 58.8339 59.0274 59.0127C59.0894 59.1074 59.223 59.0124 59.1553 58.9198C59.0386 58.7497 58.9138 58.5752 58.7971 58.405C58.7449 58.3361 58.6495 58.3944 58.6928 58.4742L58.6952 58.4806Z" fill="#F3F3F3"/>
<path d="M63.5205 67.9029C63.3896 68.1743 63.4626 68.4867 63.4828 68.7969C63.5087 69.1567 63.5372 69.5229 63.5631 69.8827C63.5899 70.2274 64.0493 70.2233 64.0445 69.8851C64.038 69.5253 64.0291 69.1591 64.0226 68.7993C64.0138 68.4848 64.0513 68.1896 63.8907 67.9031C63.8018 67.7371 63.5917 67.765 63.523 67.9094L63.5205 67.9029Z" fill="#F3F3F3"/>
<path d="M61.5542 68.833C61.5322 68.8778 61.5993 68.9179 61.6212 68.8732C61.6432 68.8284 61.5761 68.7883 61.5542 68.833Z" fill="#F3F3F3"/>
<path d="M43.6735 49.6328C43.4091 49.7404 43.5539 50.2252 43.8346 50.1262C44.6489 49.825 45.5107 49.6832 46.3966 49.7762C47.2963 49.8713 48.1035 50.3564 48.9764 50.4839C49.1616 50.5098 49.2926 50.2901 49.1371 50.1199C47.7767 48.7061 45.1407 49.0324 43.6735 49.6328Z" fill="#F3F3F3"/>
<path d="M47.2066 51.3615C46.8973 51.3678 46.9391 51.9064 47.2459 51.8936C47.5698 51.8744 47.8936 51.8551 48.2175 51.8359C48.5105 51.8209 48.8215 51.8361 49.0932 51.7479C49.2465 51.6898 49.2467 51.4162 49.0599 51.3687C48.4775 51.2198 47.7862 51.3488 47.2009 51.3636L47.2066 51.3615Z" fill="#F3F3F3"/>
<path d="M57.1634 44.4682C58.5511 46.1082 60.214 47.7031 61.9183 48.9275C62.1248 49.0784 62.2637 48.7596 62.1253 48.5829C60.7586 46.9127 59.0658 45.3587 57.3825 44.1042C57.1679 43.949 57.0144 44.2807 57.1666 44.4595L57.1634 44.4682Z" fill="#F3F3F3"/>
<path d="M59.2406 43.6069C59.7135 44.5291 60.3964 45.3201 61.0143 46.1282C61.5696 46.8566 62.0917 47.6345 62.7231 48.2897C62.9607 48.5397 63.292 48.2145 63.1209 47.9172C62.6099 47.0315 61.9416 46.2277 61.3382 45.4066C60.7919 44.6675 60.273 43.8809 59.6148 43.258C59.3732 43.0317 59.0938 43.3224 59.2406 43.6069Z" fill="#F3F3F3"/>
<path d="M79.0477 90.457C81.081 93.2348 83.5595 95.4742 86.5467 96.8111C86.71 96.8823 86.8102 96.6669 86.6573 96.5548C84.0116 94.6966 81.5903 92.6425 79.4601 90.0715C79.2346 89.8022 78.8401 90.1661 79.0477 90.457Z" fill="#F3F3F3"/>
<path d="M103.916 97.9905C100.597 98.8637 97.3942 99.6637 93.8664 99.4188C93.8331 99.4166 93.8357 99.4748 93.869 99.477C97.3202 99.9653 100.987 99.8915 104.071 98.3309C104.245 98.2427 104.088 97.9475 103.916 97.9905Z" fill="#F3F3F3"/>
<path d="M100.954 97.1985C96.951 97.5846 93.3618 97.8286 89.3169 96.4934C89.191 96.4524 89.1582 96.657 89.2841 96.698C93.0205 98.0245 97.3871 98.7352 101.008 97.4442C101.122 97.4011 101.091 97.1835 100.96 97.1964L100.954 97.1985Z" fill="#F3F3F3"/>
<path d="M121.992 85.6691C119.869 88.7876 118.623 93.5028 115.437 95.4425C112.187 97.4209 108.077 97.6109 104.551 98.8438C104.358 98.917 104.419 99.2337 104.633 99.2488C108.371 99.4659 113.016 98.5631 116.194 96.6708C119.565 94.6687 121.199 89.8136 122.409 85.9989C122.492 85.7382 122.167 85.4106 121.992 85.6691Z" fill="#F3F3F3"/>
<path d="M117.902 86.8198C116.385 88.9325 115.318 91.4289 113.726 93.5179C113.548 93.7483 113.879 94.0738 114.071 93.8606C115.715 91.9806 117.624 89.6676 118.323 87.0741C118.391 86.8264 118.037 86.6281 117.902 86.8198Z" fill="#F3F3F3"/>
<path d="M83.0306 44.548C82.7316 44.787 83.0649 45.3408 83.3826 45.1169C88.0374 41.8595 93.243 41.3059 98.8552 41.8253C99.0379 41.8448 99.0251 41.554 98.8666 41.4957C93.3045 39.4123 87.3579 41.1116 83.0282 44.5416L83.0306 44.548Z" fill="#F3F3F3"/>
<path d="M87.1347 44.2938C86.8761 44.451 87.1108 44.8647 87.3754 44.8088C90.2875 44.2004 92.9963 43.4325 96.0711 43.6643C99.0655 43.8896 101.949 44.8151 104.832 45.8956C105.059 45.9797 105.138 45.6243 104.95 45.5036C99.7717 42.0695 92.1554 41.2821 87.1372 44.3003L87.1347 44.2938Z" fill="#F3F3F3"/>
<path d="M105.82 46.0681C105.585 45.9797 105.526 46.3718 105.755 46.4624C110.703 48.5197 114.937 52.186 117.948 57.0474C118.053 57.222 118.279 57.0626 118.179 56.886C115.191 51.6906 111.026 48.0351 105.817 46.0617L105.82 46.0681Z" fill="#F3F3F3"/>
<path d="M110.37 50.9084C110.128 50.8006 109.954 51.1474 110.199 51.2983C111.481 52.0916 112.4 53.1627 113.409 54.3179C113.65 54.5959 113.981 54.2341 113.821 53.9324C113.06 52.5059 111.716 51.5144 110.37 50.9084Z" fill="#F3F3F3"/>
<path d="M109.092 52.1465C109.439 52.7692 109.943 53.3101 110.408 53.836C110.921 54.4179 111.41 55.0752 112.004 55.5451C112.28 55.7584 112.647 55.4936 112.44 55.1359C112.051 54.4701 111.498 53.9183 111.001 53.3451C110.513 52.7761 110.024 52.1705 109.428 51.7308C109.176 51.5454 108.957 51.9094 109.087 52.1486L109.092 52.1465Z" fill="#F3F3F3"/>
<path d="M108.849 53.5104C109.372 54.0514 109.881 54.6419 110.452 55.1204C110.682 55.3144 110.908 55.0215 110.723 54.7887C110.25 54.1918 109.678 53.6766 109.149 53.1378C108.914 52.8943 108.61 53.2755 108.843 53.5126L108.849 53.5104Z" fill="#F3F3F3"/>
<path d="M121.895 64.5634C123.952 70.7623 123.649 77.1238 122.166 83.1122C122.145 83.194 122.27 83.2501 122.299 83.1726C124.223 77.4903 124.727 70.4761 122.028 64.5204C121.988 64.4321 121.864 64.4643 121.895 64.5634Z" fill="#F3F3F3"/>
<path d="M118.505 60.7768C120.153 65.7259 121.177 70.3129 120.718 75.44C120.687 75.7696 121.136 75.9098 121.192 75.5781C121.958 70.7269 121.405 65.0888 118.895 60.5917C118.758 60.3482 118.42 60.5204 118.507 60.7832L118.505 60.7768Z" fill="#F3F3F3"/>
<path d="M115.301 60.0472C116.994 63.7448 118.173 67.1642 117.725 71.2076C117.674 71.6708 118.312 71.8649 118.389 71.3996C119.043 67.5738 118.4 62.8793 115.8 59.7028C115.583 59.4377 115.153 59.7262 115.295 60.0494L115.301 60.0472Z" fill="#F3F3F3"/>
<path d="M114.143 60.3677C114.535 61.3502 114.969 62.2574 115.464 63.1861C115.665 63.561 116.13 63.2295 115.943 62.8567C115.473 61.9409 114.994 61.0876 114.428 60.2299C114.322 60.0705 114.069 60.1737 114.148 60.3655L114.143 60.3677Z" fill="#F3F3F3"/>
<path d="M82.611 46.3704C81.0137 47.2271 79.6643 48.9435 78.4546 50.326C78.2505 50.5586 78.5843 50.9939 78.8282 50.798C80.2633 49.6331 81.9726 48.3865 82.9682 46.7303C83.1138 46.4977 82.7942 46.2713 82.611 46.3704Z" fill="#F3F3F3"/>
<path d="M83.4467 48.7449C82.3237 48.9857 81.4588 49.8902 80.7814 50.827C80.5054 51.2125 81.0636 51.7772 81.3452 51.3895C82.0023 50.4677 82.8663 49.852 83.6601 49.0854C83.8068 48.9411 83.6098 48.7127 83.4524 48.7428L83.4467 48.7449Z" fill="#F3F3F3"/>
<path d="M49.0783 96.2714C55.2085 89.1799 54.7156 78.6623 51.2132 69.4555L51.2123 69.4188C51.4107 69.9424 52.2016 70.0419 52.3609 69.3827C52.5458 68.6029 52.6584 67.7693 52.6038 66.9398C52.5551 66.2116 52.4743 65.296 51.9892 64.7185C54.5026 64.7712 56.9814 64.9554 59.4961 65.5769C61.8979 66.1747 64.1622 67.3864 66.551 67.967C66.694 68.0015 66.8262 67.9735 66.9406 67.9154C67.1844 68.0448 67.4258 68.1677 67.6777 68.3014C68.1166 68.5342 68.552 67.9183 68.1371 67.5433C65.8579 65.4871 63.0643 63.9584 60.1453 62.9727C60.0623 62.8563 59.9646 62.7529 59.824 62.6731C58.8697 62.1255 57.8497 61.5585 56.9867 60.8062C58.4219 60.0701 59.7467 58.9913 60.7594 58.0826C63.6201 55.5052 65.6764 51.9019 66.6431 47.891C67.174 45.6938 67.3335 43.3564 67.1618 41.0189C68.6785 43.9925 70.2899 46.908 72.22 49.6362C72.6223 50.2008 73.0367 50.746 73.46 51.2805C73.4115 51.358 73.3686 51.4334 73.3282 51.5152C73.2585 51.5712 73.1962 51.6466 73.1437 51.7478C71.9734 54.0912 71.6531 56.7409 71.82 59.4942C71.8344 59.7548 71.9881 59.9036 72.1611 59.9489C72.3558 62.0559 72.9784 64.1781 73.4693 66.2616C74.5003 70.6094 74.7563 73.632 73.509 77.7936C73.1665 78.9288 72.8258 80.4625 72.7019 82.0545C72.5193 81.7097 72.3391 81.3714 72.1622 81.0245C71.7781 80.2682 70.8142 80.8257 71.0286 81.5798C73.6232 90.6872 81.5158 98.0971 89.4962 101.216C94.2843 103.09 99.218 103.327 104.065 102.82C108.4 102.368 113.412 102.006 117.175 99.7368C124.768 95.1514 128.284 83.218 127.999 73.782C127.708 64.2749 123.345 54.9061 116.169 48.9916C115.456 45.8094 110.478 43.194 108.092 41.9694C106.158 40.9797 104.146 40.227 102.095 39.6811C102.165 39.5066 102.131 39.261 101.935 39.1726C101.739 39.0842 101.548 39.0087 101.351 38.9353C97.8689 38.2962 94.2394 37.9198 90.8618 38.3793C85.4098 39.1224 81.1442 42.4985 76.9703 45.9285C76.331 46.4518 75.525 46.4837 74.8124 46.2141C74.5365 46.5996 74.2687 46.9894 74.0244 47.4073C73.1701 46.1639 72.3627 44.8731 71.6226 43.5199C67.7141 36.4111 65.0602 28.0211 58.7291 22.9837C58.1829 21.971 57.7417 20.704 57.2429 19.4737C56.1756 19.553 55.043 19.4943 53.8981 19.3516C54.4232 21.0968 55.4711 22.8509 56.2885 24.271C57.3683 26.1608 58.6274 27.9752 60.1043 29.5076C62.8542 34.7416 64.7181 40.5332 63.3909 46.3514C62.5565 50.0091 60.5577 53.1987 57.9294 55.4812C57.1427 56.1638 56.1801 56.6394 55.2265 57.1044C55.1916 56.7553 55.1575 56.3913 55.1015 56.0207C56.2702 54.7868 57.3135 53.4451 58.1188 51.9719C58.3678 51.5153 58.0247 50.9356 57.5973 50.7502C57.7642 50.5908 57.9253 50.4336 58.0922 50.2743C58.3758 50.0116 58.4228 49.6389 58.3312 49.3114C58.7722 49.0703 59.2109 48.8227 59.6503 48.5601C60.1699 48.2523 59.6892 47.4808 59.1869 47.5603C54.3268 48.323 50.5896 53.1104 48.7153 57.8793C48.5049 57.4785 48.2435 57.0971 47.9699 56.735C46.4787 53.8627 43.9283 52.1532 41.2797 50.4588C37.2921 47.9042 32.6351 44.731 28.1383 43.8997C27.7826 43.8349 27.425 44.3475 27.8072 44.6536C30.9163 47.1862 34.8978 48.8338 38.6219 50.8303C37.7282 50.5111 36.885 50.2393 36.1287 50.0085C35.5722 49.8423 35.2869 50.7341 35.8282 51.0316C38.0504 52.2519 40.3145 53.3602 42.5278 54.5913C43.5153 55.1411 44.7758 55.7426 45.9221 56.5058C45.7567 56.5832 45.5913 56.7124 45.4448 56.9084C44.5044 58.1963 43.7611 59.3873 42.4479 60.2399C42.1753 60.2914 41.9002 60.3366 41.6364 60.3774C39.6035 60.6673 37.5055 60.8711 35.5332 61.3894C35.5048 61.4002 35.4821 61.4088 35.4562 61.426C35.34 61.3592 35.2286 61.3053 35.1156 61.2298C34.9782 61.1415 34.8299 61.2642 34.8416 61.415C35.0479 65.7797 44.0736 64.0666 47.7417 62.4546C46.6665 66.6249 48.3491 70.4818 49.5793 74.6359C51.581 81.425 52.2559 89.8702 47.9531 95.1528C47.35 95.8915 48.4614 97.0079 49.0832 96.2843L49.0783 96.2714ZM77.7859 67.8339C77.872 67.89 77.9776 67.8943 78.0553 67.791C78.2706 67.5024 78.5282 67.2569 78.8256 67.048C80.7139 65.9997 83.6687 66.2918 85.6375 66.381C87.6704 66.468 89.6902 66.8631 91.7242 67.0902C90.5495 69.9528 92.1362 74.1565 92.1773 77.2458C92.1912 78.379 93.5627 78.5541 93.9928 77.7701C95.0478 75.8252 95.1711 73.5977 95.3446 71.3142C95.4668 69.7007 95.7956 67.9128 95.5539 66.2301C98.4985 68.1229 102.033 69.2597 105.233 69.1706C108.219 69.0814 109.97 67.3458 111.244 64.9185C111.89 64.1712 112.319 63.2989 112.317 62.3165C112.316 61.8512 111.679 61.5751 111.437 61.9327C110.683 63.0612 109.923 64.0885 109.044 64.9024C108.197 65.3932 107.33 65.744 106.844 65.8838C104.754 66.4689 102.774 65.5266 100.774 64.6877C100.333 64.5001 99.8936 64.3341 99.4621 64.1723C101.038 62.9838 102.169 61.0174 102.373 58.8998C102.763 54.8412 99.2827 50.0615 95.3651 50.0899C95.0728 50.0898 95.0056 50.5293 95.2698 50.6953C97.8915 52.3186 99.8731 54.8572 99.5869 58.2997C99.4122 60.3915 98.2925 61.7029 96.8438 62.5921C97.0113 61.6119 96.9285 60.5196 96.6861 59.6061C96.1195 57.4257 94.4788 55.6154 92.6056 54.699C91.4573 54.1362 90.2423 55.3507 91.0302 56.6415C92.1163 58.4107 92.9777 60.2724 93.7322 62.2116C93.7616 62.2891 93.8155 62.4313 93.8703 62.6102C87.9417 60.7764 82.5939 57.2885 78.1689 52.5859C78.0281 52.0774 77.8622 51.5711 77.8108 51.11C77.6998 50.1319 77.8048 49.1754 78.0894 48.2987C79.1975 46.4594 80.1117 44.7084 82.116 43.6235C84.0627 42.5752 86.301 41.9191 88.4102 41.2823C89.0689 41.0844 89.7318 40.9145 90.3882 40.7618C91.4124 40.6545 92.4424 40.5968 93.4531 40.5908C97.007 40.5449 100.638 41.0463 104.114 42.3016C105.975 42.9788 107.799 43.8693 109.506 44.9817C110.503 45.6241 111.457 46.3419 112.365 47.1437C112.819 47.7256 113.35 48.1157 113.943 48.3271C113.686 48.6609 113.605 49.165 113.887 49.583C113.959 49.6886 114.031 49.7942 114.104 49.8998C114.262 50.1282 114.533 50.3287 114.811 50.3935C122 56.0516 126.277 65.0908 126.28 74.4707C126.28 83.9109 122.16 96.2878 113.494 99.1213C106.382 101.447 97.2407 102.324 89.8085 99.3157C83.3579 96.7041 78.6402 91.8462 74.9032 85.8923C74.8764 85.5476 74.8659 85.2115 74.8749 84.8754C75.6486 86.3342 76.8668 87.6467 78.0643 88.4422C78.3147 88.606 78.4836 88.2463 78.3078 88.0394C77.5996 87.199 76.8972 86.3563 76.2854 85.4275C75.8186 84.71 75.4751 83.9235 75.0595 83.1865C75.7238 79.6968 77.8804 76.6839 77.7649 72.61C77.7243 71.1321 77.5401 69.3612 77.234 67.5256C77.251 67.5192 77.268 67.5127 77.2826 67.4998C77.3229 67.7432 77.558 67.9351 77.7737 67.8533L77.7859 67.8339ZM93.4778 70.7576C93.4677 70.9536 93.4633 71.1475 93.4531 71.3436C93.2906 70.178 93.2247 69.0276 93.4421 67.8881C93.3687 68.8251 93.4319 69.814 93.4778 70.7576ZM79.0875 57.1168C83.5324 60.8952 88.6707 63.642 94.0077 65.2342C93.9803 65.3333 93.961 65.4367 93.9361 65.5422C93.9068 65.5163 93.8832 65.4883 93.845 65.4732C93.7059 65.3116 93.5157 65.221 93.3258 65.2339C88.2445 62.946 81.3689 63.3933 77.0808 66.5561C76.6775 64.4469 76.1011 62.2923 75.3671 60.3897C75.2257 59.2457 75.1622 58.1018 75.1857 56.9988C75.2582 56.7274 75.355 56.4689 75.4624 56.2212C76.6239 56.8529 77.7758 57.1852 79.098 57.1276L79.0875 57.1168ZM53.002 53.0167C51.8731 54.6125 50.9322 56.3959 50.1985 58.2634C49.8908 58.6165 49.5888 58.9676 49.2786 59.3143C49.2451 59.2087 49.223 59.0988 49.1838 58.9954C50.1146 56.7058 51.3643 54.7093 52.9995 53.0102L53.002 53.0167ZM50.141 61.5896C50.2629 61.2773 50.3921 60.9844 50.5246 60.6828C51.0384 61.0277 51.6188 61.377 52.2178 61.6896C52.0619 61.6895 51.9061 61.6895 51.7526 61.6959C51.2396 61.7129 51.3307 62.4842 51.8195 62.5576C52.6429 62.6743 53.434 62.8254 54.2161 62.9874C53.173 63.0278 52.1658 63.1287 51.2334 63.2898C51.2221 63.2941 51.2164 63.2963 51.205 63.3006C51.1807 62.9623 51.1483 62.6198 51.0875 62.288C50.988 61.7343 50.5093 61.4648 50.141 61.5896ZM48.3401 58.8938C48.3232 58.9519 48.3006 59.0123 48.278 59.0726C48.1716 59.4086 48.4401 59.706 48.6902 59.7147C48.7147 59.7794 48.7254 59.8418 48.7442 59.9086C48.5053 60.1692 48.2664 60.4298 48.0194 60.686C47.8879 60.6989 47.7532 60.7204 47.616 60.7354C47.5803 60.7268 47.5413 60.7268 47.5056 60.7181C47.6394 60.66 47.7732 60.6019 47.8997 60.5244C48.1664 60.3716 48.0605 59.8351 47.7462 59.7768C47.5862 59.7487 47.4255 59.7357 47.2623 59.7163C47.4377 59.391 47.6001 59.0486 47.708 58.6824C47.708 58.6824 47.7088 58.6673 47.7145 58.6652C47.8756 58.8333 48.0884 58.8635 48.27 58.7947C48.2904 58.8313 48.3222 58.8636 48.3425 58.9002L48.3401 58.8938ZM51.1907 68.8652C51.1789 68.6627 51.1728 68.458 51.1666 68.2533C51.1563 67.6437 51.1769 67.0297 51.1982 66.4006C51.2303 66.5881 51.2542 66.7712 51.2676 66.9436C51.3032 67.6028 51.2819 68.2318 51.1907 68.8652ZM49.0752 64.8766C48.9662 64.0752 48.8963 63.2737 48.8936 62.4616C48.8947 62.2246 48.7945 62.063 48.6628 61.9724C48.7147 61.938 48.7438 61.9122 48.79 61.8799C48.9066 62.1018 49.1813 62.2269 49.3496 61.9857C49.3739 61.9469 49.4062 61.9124 49.4305 61.8737C49.5354 61.9448 49.6589 61.9793 49.7765 61.9643C49.7604 62.0074 49.7361 62.0461 49.7224 62.0957C49.4636 63.2287 49.4957 64.4955 49.6008 65.7493C49.4646 65.4757 49.3365 65.2063 49.1971 64.9413C49.1669 64.8788 49.1174 64.868 49.072 64.8852L49.0752 64.8766Z" fill="#F3F3F3"/>
<path d="M97.174 80.889C94.746 80.9074 92.5467 80.8095 90.1804 79.7916C90.0553 79.7356 89.9876 79.9682 90.1128 80.0243C92.3444 81.1153 94.929 81.7843 97.2389 81.1971C97.3938 81.1606 97.3356 80.8869 97.1797 80.8869L97.174 80.889Z" fill="#F3F3F3"/>
<path d="M97.3028 81.9121C96 81.9697 94.7456 82.2233 93.4213 82.1043C91.7754 81.9592 90.1831 81.4243 88.6512 80.6373C88.513 80.564 88.4217 80.7686 88.5534 80.8592C91.1395 82.5255 94.7452 83.5246 97.3993 82.2008C97.5249 82.1384 97.4367 81.9057 97.3028 81.9121Z" fill="#F3F3F3"/>
<path d="M95.6633 83.7901C93.8098 83.6795 91.9935 83.5473 90.1585 83.023C90.0708 82.9971 90.0467 83.1393 90.1312 83.1738C91.943 83.8252 93.8338 84.2396 95.6817 84.0271C95.8132 84.0142 95.8046 83.8031 95.6633 83.7901Z" fill="#F3F3F3"/>
<path d="M96.3597 85.4039C94.5392 85.192 92.6449 85.385 90.8371 85.4123C90.6561 85.4144 90.6795 85.716 90.8597 85.729C92.6791 85.8008 94.5979 86.0494 96.3964 85.8778C96.6732 85.8543 96.6333 85.4406 96.3621 85.4103L96.3597 85.4039Z" fill="#F3F3F3"/>
<path d="M92.9921 86.9169C92.7104 86.9276 92.7464 87.4166 93.0281 87.406C93.8252 87.3848 94.6705 87.4562 95.4257 87.2217C95.5531 87.1809 95.5428 86.9482 95.4023 86.9201C94.6039 86.7496 93.7876 86.8742 92.9921 86.9169Z" fill="#F3F3F3"/>
<path d="M95.3627 88.2726C95.3408 88.3173 95.4079 88.3575 95.4298 88.3128C95.4518 88.268 95.3847 88.2278 95.3627 88.2726Z" fill="#F3F3F3"/>
<path d="M103.967 73.5756C102.559 75.7875 101.303 78.0748 99.6756 80.1035C99.4319 80.4028 99.8696 80.821 100.126 80.5539C101.943 78.6675 103.532 76.4687 104.28 73.7675C104.329 73.5865 104.061 73.4292 103.97 73.5821L103.967 73.5756Z" fill="#F3F3F3"/>
<path d="M105.948 73.3351C105.225 76.3961 103.824 78.9009 101.359 80.5005C101.082 80.6792 101.383 81.164 101.659 80.9854C104.166 79.3772 105.97 76.7346 106.26 73.4235C106.28 73.2017 105.995 73.1175 105.948 73.3351Z" fill="#F3F3F3"/>
<path d="M108.293 72.1062C107.789 75.9859 106.81 79.3807 104.188 82.0229C104.029 82.1865 104.287 82.5249 104.465 82.3763C107.189 79.969 109.157 76.3398 108.782 72.1796C108.753 71.8802 108.331 71.796 108.287 72.1083L108.293 72.1062Z" fill="#F3F3F3"/>
<path d="M110.564 72.2878C110.098 74.9482 109.888 77.5635 108.602 79.8917C108.458 80.1459 108.865 80.3981 109.004 80.131C110.205 77.835 111.348 75.2137 111.023 72.3505C110.993 72.0661 110.617 72.0013 110.564 72.2878Z" fill="#F3F3F3"/>
<path d="M91.1929 50.9391C88.1704 50.5026 85.1183 52.3691 83.1635 54.5441C82.9538 54.7788 83.3198 55.128 83.5312 54.9148C84.6685 53.8036 85.9825 52.936 87.4343 52.3636C88.6817 51.8686 89.9949 51.7701 91.3029 51.5035C91.6097 51.439 91.4552 50.9801 91.1897 50.9477L91.1929 50.9391Z" fill="#F3F3F3"/>
<path d="M83.833 51.1707C83.6103 51.3882 83.9603 51.8321 84.2067 51.6426C85.2828 50.7986 86.5064 50.1722 87.8159 49.8238C89.1789 49.4625 90.4977 49.6871 91.88 49.5993C92.2485 49.578 92.2384 49.0717 91.9093 48.9229C89.162 47.739 85.7471 49.2994 83.8306 51.1642L83.833 51.1707Z" fill="#F3F3F3"/>
<path d="M88.4158 47.2088C87.881 47.271 87.9439 48.2081 88.4869 48.1502C89.3293 48.0601 90.362 48.1122 91.1104 47.6882C91.3398 47.5569 91.2301 47.1475 90.9913 47.0828C90.1684 46.8476 89.2306 47.1143 88.4239 47.2131L88.4158 47.2088Z" fill="#F3F3F3"/>
<path d="M78.0333 71.2813C80.3347 74.9037 83.6024 78.2486 87.4692 79.4739C87.6528 79.53 87.7228 79.2521 87.561 79.1508C84.032 76.8808 81.0565 74.6153 78.706 70.8119C78.3899 70.3034 77.7058 70.777 78.0276 71.2834L78.0333 71.2813Z" fill="#F3F3F3"/>
<path d="M80.3996 72.3135C82.5206 74.0379 84.7172 75.8075 87.0427 77.1291C87.2158 77.2261 87.3817 76.9785 87.2223 76.8319C85.1862 74.9718 82.8659 73.4413 80.6066 71.9689C80.4156 71.8417 80.2101 72.1562 80.3996 72.3135Z" fill="#F3F3F3"/>
<path d="M83.7343 73.2308C84.7745 74.4334 86.0314 75.6425 87.4259 76.2894C87.6843 76.4058 87.9434 76.0785 87.6968 75.8392C86.5538 74.7422 85.3226 73.7895 84.2217 72.6321C83.8466 72.242 83.3876 72.83 83.7343 73.2308Z" fill="#F3F3F3"/>
<path d="M79.9004 76.2584C79.7043 76.0666 79.4574 76.3746 79.6535 76.5664C82.1829 79.06 85.0023 81.222 88.1508 82.5052C88.3198 82.5742 88.3931 82.2877 88.2419 82.1971C85.2645 80.509 82.4598 78.7111 79.9036 76.2498L79.9004 76.2584Z" fill="#F3F3F3"/>
<path d="M100.242 95.5608C96.4423 95.7293 92.7172 95.1008 88.9578 94.0048C88.7384 93.9401 88.6929 94.2826 88.9001 94.3667C92.6353 95.8785 96.475 96.227 100.258 95.7245C100.345 95.7138 100.339 95.5608 100.244 95.5672L100.242 95.5608Z" fill="#F3F3F3"/>
<path d="M97.9669 93.3258C97.105 93.4159 96.2953 93.6266 95.4899 93.9171C95.1208 94.057 95.3235 94.6603 95.7065 94.5743C96.5511 94.3872 97.4235 94.2562 98.2977 94.1984C98.9681 94.1513 99.7574 94.2809 100.345 93.9472C100.489 93.8633 100.44 93.6306 100.308 93.54C99.633 93.0787 98.6811 93.2399 97.9702 93.3171L97.9669 93.3258Z" fill="#F3F3F3"/>
<path d="M114.436 93.9144C111.14 95.3262 107.812 96.0185 104.136 95.1789C103.889 95.1249 103.817 95.5364 104.067 95.5968C107.673 96.4924 111.544 96.2377 114.544 94.1471C114.647 94.0782 114.558 93.8606 114.436 93.9144Z" fill="#F3F3F3"/>
<path d="M114.536 91.866C113.377 92.0982 112.308 92.5996 111.192 92.9632C110.077 93.3268 108.937 93.6258 107.791 93.8752C107.451 93.9526 107.643 94.5301 107.981 94.4613C110.215 93.999 112.794 93.5241 114.691 92.2064C114.856 92.0923 114.71 91.8294 114.536 91.866Z" fill="#F3F3F3"/>
<path d="M118.809 76.4153C117.916 80.3832 116.829 83.8188 114.419 86.8834C114.274 87.0643 114.544 87.3315 114.692 87.1571C117.185 84.3123 119.041 80.6443 119.112 76.4628C119.117 76.2689 118.851 76.2516 118.811 76.4218L118.809 76.4153Z" fill="#F3F3F3"/>
<path d="M116.917 71.2696C116.635 72.9585 116.654 74.7035 116.347 76.3945C116.003 78.2987 115.442 80.1081 114.726 81.8506C114.608 82.1393 115.013 82.385 115.147 82.105C116.565 79.0099 117.936 75.0379 117.497 71.3603C117.451 71.0006 116.977 70.9142 116.914 71.2782L116.917 71.2696Z" fill="#F3F3F3"/>
<path d="M114.793 69.3838C114.542 71.5488 114.337 73.5931 113.495 75.5532C113.356 75.872 113.81 76.1436 113.965 75.8335C114.893 73.9144 115.551 71.7431 115.268 69.4551C115.233 69.1729 114.828 69.0822 114.793 69.3838Z" fill="#F3F3F3"/>
<path d="M103.588 57.7735C104.238 58.6139 104.879 59.3467 105.252 60.3809C105.637 61.4474 105.75 62.5354 105.561 63.6125C105.492 64.0304 106.066 64.1901 106.159 63.7851C106.636 61.6525 105.927 58.5651 103.907 57.3794C103.69 57.2543 103.406 57.5321 103.588 57.7735Z" fill="#F3F3F3"/>
<path d="M102.366 51.7908C102.173 51.6937 101.908 51.9198 102.083 52.1418C104.27 54.9132 106.192 57.2084 107.158 60.7677C107.265 61.1706 107.878 61.0933 107.808 60.6689C107.264 57.2971 105.412 53.3195 102.366 51.7908Z" fill="#F3F3F3"/>
<path d="M103.452 50.6989C103.107 50.5415 102.718 51.0067 103.078 51.3213C105.18 53.134 109.223 55.5421 108.988 58.9652C108.979 59.1311 109.187 59.2518 109.26 59.0838C110.583 55.7215 105.955 51.8202 103.455 50.7054L103.452 50.6989Z" fill="#F3F3F3"/>
<path d="M93.4519 46.1575C93.1253 46.0669 93.0364 46.6033 93.3622 46.709C95.2168 47.285 97.1409 48.0786 99.0298 48.3681C99.3749 48.4221 99.4526 47.9417 99.1202 47.8016C97.313 47.008 95.3128 46.6646 93.4487 46.1662L93.4519 46.1575Z" fill="#F3F3F3"/>
<path d="M25.3037 82.831C25.3616 82.9495 25.4089 83.0572 25.4895 83.1671C25.575 83.2899 25.7308 83.2383 25.7272 83.0918C25.7285 82.9582 25.712 82.8462 25.6857 82.7083C25.6272 82.3313 25.1275 82.469 25.3012 82.8245L25.3037 82.831Z" fill="#F3F3F3"/>
<path d="M20.8918 75.6469C24.0025 81.0103 28.716 85.8401 34.0581 88.2509C34.2076 88.3199 34.3046 88.1132 34.1623 88.0119C29.1275 84.3387 25.0626 80.638 21.3538 75.3239C21.1258 74.9964 20.6848 75.2892 20.8918 75.6469Z" fill="#F3F3F3"/>
<path d="M28.7785 86.3634C28.599 86.2836 28.4208 86.4989 28.5901 86.6713C30.5818 88.6369 33.3434 90.0298 35.8027 90.968C36.0156 91.0499 36.0944 90.7096 35.9139 90.5932C33.6352 89.1208 31.209 87.4308 28.7785 86.3634Z" fill="#F3F3F3"/>
<path d="M63.9231 84.6941C61.6131 88.4674 59.1354 91.2842 55.0357 92.6828C54.8881 92.7387 54.9723 92.9951 55.1224 92.9456C58.9399 91.7279 62.6364 89.0259 64.2468 84.9484C64.3242 84.7417 64.0396 84.4873 63.915 84.6898L63.9231 84.6941Z" fill="#F3F3F3"/>
<path d="M65.1952 80.3237C63.4706 84.1339 61.3768 87.33 58.0283 89.5454C57.7259 89.7413 58.0519 90.2757 58.3623 90.0841C61.7321 87.942 64.4923 84.7225 65.4836 80.4509C65.5263 80.2721 65.2727 80.1686 65.1952 80.3237Z" fill="#F3F3F3"/>
<path d="M67.5757 78.3789C67.4261 78.6352 67.4121 78.9067 67.3389 79.1932C67.2527 79.5141 67.1105 79.7898 66.9138 80.0418C66.6629 80.3734 67.1445 80.8562 67.406 80.5353C67.8367 80.0099 68.3137 79.1268 67.9548 78.3683C67.8643 78.1809 67.6468 78.2411 67.5733 78.3725L67.5757 78.3789Z" fill="#F3F3F3"/>
<path d="M63.7288 78.1662C63.5 78.6077 63.5167 79.1484 63.214 79.5662C62.8814 80.025 63.5453 80.6974 63.8836 80.2365C64.2721 79.7197 64.6452 78.8538 64.258 78.1578C64.1203 77.9143 63.8257 77.9594 63.7207 78.1619L63.7288 78.1662Z" fill="#F3F3F3"/>
<path d="M30.8444 37.3666C29.8047 37.0731 28.6342 37.4798 27.6819 37.8112C26.6047 38.1898 25.618 38.756 24.6925 39.4321C24.2038 39.7873 24.7333 40.6363 25.2392 40.3263C26.1788 39.7558 27.1763 39.3039 28.2097 38.9639C29.1158 38.6649 30.1572 38.6028 30.9996 38.1357C31.289 37.9743 31.149 37.4507 30.8444 37.3666Z" fill="#F3F3F3"/>
<path d="M92.0749 70.4316C92.211 70.3282 92.3861 70.5502 92.2573 70.6729C87.3007 75.4641 87.5228 82.9203 88.2084 89.9717C88.2142 90.0212 88.1411 90.0341 88.1354 89.9846C87.2268 83.0473 86.4693 74.6925 92.0717 70.4402L92.0749 70.4316Z" fill="#F3F3F3"/>
<path d="M87.7209 73.1982C87.7678 73.0991 87.9353 73.1983 87.8909 73.3038C85.2445 79.4963 85.3769 85.6706 86.6831 92.5607C86.716 92.733 86.4775 92.8234 86.4089 92.6424C83.9925 86.2323 84.9815 78.7681 87.7209 73.1982Z" fill="#F3F3F3"/>
<path d="M85.8745 72.6266C85.9401 72.5426 86.0686 72.6417 86.0136 72.7365C82.5135 78.3211 83.3736 84.6336 84.1881 91.2886C84.2154 91.5148 83.9379 91.5535 83.8741 91.3337C82.0668 85.0919 82.1958 77.4657 85.8664 72.6222L85.8745 72.6266Z" fill="#F3F3F3"/>
<path d="M82.9519 71.391C82.9971 71.2703 83.1742 71.3437 83.1315 71.4707C81.3448 77.2931 81.4223 82.8599 81.9582 89.0882C81.9815 89.3381 81.678 89.394 81.6133 89.1376C80.0585 83.2363 80.9863 76.6897 82.9519 71.391Z" fill="#F3F3F3"/>
<path d="M79.6742 72.5962C79.7176 72.4023 79.9785 72.5252 79.9407 72.717C79.4928 74.9788 79.2236 77.2838 79.2241 79.6492C79.2183 81.7583 79.6078 83.8654 79.6523 85.9702C79.6577 86.1899 79.384 86.1532 79.3292 85.9743C78.0427 81.7233 78.7083 76.6437 79.671 72.6048L79.6742 72.5962Z" fill="#F3F3F3"/>
<path d="M91.1648 81.6657C91.1709 81.1164 91.9586 81.2244 91.9468 81.7759C91.8785 86.3926 92.9259 90.4754 94.4157 94.886C94.5366 95.2393 94.1247 95.4546 93.9478 95.1077C91.8311 90.9791 91.1133 86.1725 91.1648 81.6657Z" fill="#F3F3F3"/>
<path d="M95.3204 85.4359C95.3639 85.2937 95.5864 85.3498 95.5673 85.5049C95.3115 87.9823 95.6147 89.9816 96.5747 92.3604C96.6507 92.5608 96.4124 92.7546 96.2837 92.552C95.0045 90.479 94.6191 87.6459 95.3179 85.4294L95.3204 85.4359Z" fill="#F3F3F3"/>
<path d="M78.808 64.3641C81.6404 61.5238 86.2285 61.4482 89.8796 63.1323C90.1705 63.266 90.0295 63.7334 89.7378 63.6148C85.7686 61.9995 82.4453 62.8081 79.0255 64.7326C78.8277 64.8445 78.6557 64.5105 78.8055 64.3576L78.808 64.3641Z" fill="#F3F3F3"/>
<path d="M78.1677 61.5088C79.6461 60.8524 81.4552 60.6916 83.0457 60.3993C83.3183 60.3477 83.3899 60.7937 83.1385 60.8668C81.5995 61.2949 79.9383 61.9318 78.3287 62.0022C78.0804 62.0151 77.9195 61.625 78.1701 61.5153L78.1677 61.5088Z" fill="#F3F3F3"/>
<path d="M109.343 51.0981C119.944 53.593 124.124 68.3389 125.762 78.1784C125.826 78.5532 125.344 78.6177 125.246 78.2557C122.332 67.192 119.895 56.5465 109.296 51.3523C109.169 51.2897 109.192 51.0592 109.34 51.0916L109.343 51.0981Z" fill="#F3F3F3"/>
<path d="M113.785 59.956C113.702 59.8396 113.842 59.7126 113.937 59.8246C119.24 66.124 122.882 74.2947 124.044 82.5182C124.071 82.7078 123.83 82.74 123.786 82.5569C121.877 74.1801 118.682 66.9488 113.785 59.956Z" fill="#F3F3F3"/>
<path d="M122.046 85.2793C120.663 79.3867 118.898 74.0454 115.763 68.8392C115.663 68.6776 115.859 68.4924 115.967 68.6583C119.163 73.6125 121.657 79.3354 122.391 85.2299C122.42 85.4777 122.102 85.5314 122.046 85.2793Z" fill="#F3F3F3"/>
<path d="M116.543 75.2855C116.429 75.055 116.743 74.9065 116.856 75.137C118.812 78.9941 120.318 83.2947 120.502 87.6013C120.509 87.7392 120.312 87.7326 120.288 87.6012C119.495 83.2814 118.539 79.2676 116.543 75.2855Z" fill="#F3F3F3"/>
<path d="M116.501 81.1043C116.414 80.9082 116.682 80.7769 116.766 80.9816C117.969 83.7784 118.814 86.7776 118.911 89.7937C118.913 89.9186 118.732 89.9207 118.717 89.7936C118.319 86.7731 117.721 83.9464 116.501 81.1043Z" fill="#F3F3F3"/>
<path d="M115.75 84.7228C115.7 84.5569 115.936 84.5269 115.983 84.6863C116.455 86.3777 116.994 88.0733 117.39 89.7862C117.415 89.9025 117.253 89.9563 117.209 89.84C116.656 88.1572 116.227 86.4271 115.75 84.7228Z" fill="#F3F3F3"/>
<path d="M115.677 89.4298C115.675 89.2682 115.901 89.3006 115.904 89.4622C115.918 90.1666 115.993 90.9142 115.932 91.61C115.922 91.7027 115.785 91.7177 115.771 91.6121C115.663 90.899 115.702 90.145 115.68 89.4362L115.677 89.4298Z" fill="#F3F3F3"/>
<path d="M114.07 89.5068C114.04 89.2741 114.365 89.2247 114.389 89.4595C114.448 90.0434 114.548 90.6488 114.546 91.2261C114.546 91.3963 114.321 91.3855 114.287 91.2282C114.166 90.668 114.135 90.0734 114.07 89.5068Z" fill="#F3F3F3"/>
<path d="M59.3201 89.2554C60.143 82.2607 56.9912 76.6689 54.1156 70.418C54.0479 70.2736 54.2416 70.1337 54.3288 70.278C57.8595 75.8075 61.1184 82.8298 59.6133 89.3438C59.5764 89.5205 59.2994 89.4406 59.3225 89.2618L59.3201 89.2554Z" fill="#F3F3F3"/>
<path d="M62.957 90.6935C64.628 88.3008 62.1721 81.3586 61.1963 78.801C59.9061 75.4311 58.0316 72.4896 55.9712 69.5891C55.8857 69.4662 56.0283 69.3456 56.126 69.4491C59.2899 72.8629 61.5468 77.2931 62.8235 81.8436C63.312 83.5952 65.3338 89.9406 63.0954 90.8703C62.9989 90.9068 62.8857 90.7797 62.9545 90.6871L62.957 90.6935Z" fill="#F3F3F3"/>
<path d="M56.209 67.3029C62.2373 71.627 66.6807 80.1815 66.3278 87.8335C66.3176 88.0295 66.0303 88.0423 66.0047 87.8377C64.9584 79.5776 62.1043 73.1263 56.1483 67.3998C56.0954 67.3459 56.1472 67.2597 56.209 67.3029Z" fill="#F3F3F3"/>
<path d="M58.5689 68.3382C63.7229 70.8351 68.4459 77.369 67.4306 83.6161C67.4098 83.7497 67.2102 83.7884 67.1911 83.6182C66.4194 77.2131 64.2224 71.6734 58.5109 68.545C58.3947 68.4782 58.4495 68.28 58.5714 68.3447L58.5689 68.3382Z" fill="#F3F3F3"/>
<path d="M57.8486 64.368C60.6275 65.1556 63.1492 68.554 64.9575 70.8922C66.4392 72.8145 69.0499 76.0535 67.8743 78.5025C67.7902 78.6748 67.4936 78.5433 67.5232 78.3472C67.9282 75.4068 65.1232 72.0491 63.4447 70.0018C61.8208 68.0299 60.0766 65.6379 57.8119 64.6481C57.6729 64.5899 57.7089 64.3249 57.8567 64.3724L57.8486 64.368Z" fill="#F3F3F3"/>
<path d="M62.23 67.1205C65.2689 68.7483 68.7197 71.9425 69.329 75.7774C69.3645 76.0079 69.0992 76.0789 68.9924 75.8828C68.1307 74.2947 67.5516 72.6809 66.4548 71.2262C65.2514 69.6272 63.8117 68.3469 62.1583 67.3768C62.0177 67.297 62.0861 67.0493 62.2324 67.1269L62.23 67.1205Z" fill="#F3F3F3"/>
<path d="M20.8226 53.6362C20.9717 53.5501 21.1437 53.8324 20.9994 53.9315C15.2859 57.8563 15.7913 68.1843 18.7012 74.5257C18.7689 74.6701 18.5776 74.8165 18.4823 74.6678C14.7034 68.5005 14.8436 57.2034 20.8169 53.6384L20.8226 53.6362Z" fill="#F3F3F3"/>
<path d="M19.8594 61.1867C19.8996 61.0015 20.1523 61.1201 20.1178 61.3032C19.2024 66.4774 19.9612 71.0837 21.1288 76.289C21.192 76.5755 20.8099 76.6982 20.6989 76.4224C18.7504 71.6239 18.8456 65.9473 19.8594 61.1867Z" fill="#F3F3F3"/>
</svg>
