<svg width="32" height="39" viewBox="0 0 32 39" fill="none" xmlns="http://www.w3.org/2000/svg">
<path d="M12.8373 16.4412C11.1649 14.9187 9.38801 13.3734 7.94268 11.583C7.8803 11.5027 7.95588 11.3649 8.0422 11.4361C9.69776 12.8299 11.2055 14.472 12.7997 15.9566C14.4739 17.52 16.2197 18.9835 17.8842 20.5454C17.9346 20.5939 17.8731 20.6847 17.8166 20.6438C16.082 19.3787 14.4445 17.9001 12.8355 16.4366L12.8373 16.4412Z" fill="#F3F3F3"/>
<path d="M25.5501 21.3239C25.6215 21.38 25.5607 21.4965 25.491 21.445C20.4324 17.4907 15.0782 14.2979 9.59142 11.249C9.5343 11.2187 9.56888 11.1172 9.62827 11.1415C15.2384 13.7332 20.5691 17.3818 25.5518 21.3285L25.5501 21.3239Z" fill="#F3F3F3"/>
<path d="M28.343 27.7788C28.4653 27.8728 28.5859 27.9622 28.7043 28.0576C28.7837 28.1107 28.7206 28.2333 28.6429 28.1848C26.6709 26.8953 24.784 25.397 22.9115 23.9243C22.8663 23.8895 22.9032 23.8183 22.9467 23.8486C23.9577 24.5774 24.971 25.3001 25.9797 26.035C26.4586 26.3834 26.9393 26.7365 27.416 27.091C27.6497 27.2622 27.9154 27.4213 28.1321 27.6198C28.1618 27.6501 28.2288 27.7182 28.2957 27.7864C28.3042 27.7728 28.3202 27.7667 28.335 27.7819L28.343 27.7788Z" fill="#F3F3F3"/>
<path d="M28.444 29.3568C28.4748 29.3295 28.5154 29.3765 28.492 29.4113C27.0917 31.4125 23.8352 30.8281 21.746 30.4456C19.3348 30.0085 16.7882 29.2018 14.6043 27.8108C14.5266 27.7623 14.5696 27.6109 14.6575 27.6503C16.7726 28.631 18.8311 29.5343 21.0632 30.0289C23.5391 30.5766 26.4428 31.0609 28.444 29.3568Z" fill="#F3F3F3"/>
<path d="M14.286 27.9106C15.0887 28.6196 15.9745 29.1984 16.9379 29.5608C17.7767 29.8715 18.6438 30.0158 19.4782 30.3387C19.5164 30.3553 19.5149 30.4235 19.4721 30.4189C17.6679 30.1986 15.9027 29.527 14.4049 28.2605C12.5979 26.7318 11.1678 24.6083 9.99331 22.4969C9.95206 22.4242 10.0427 22.3743 10.0902 22.4395C11.4017 24.3585 12.5606 26.3926 14.2878 27.9152L14.286 27.9106Z" fill="#F3F3F3"/>
<path d="M13.9488 26.6718C14.0066 26.7279 13.9366 26.8323 13.8749 26.7778C12.7086 25.7961 11.7496 24.5903 10.9301 23.259C10.0854 21.8852 9.17003 20.2888 8.68668 18.7365C8.66429 18.6775 8.73785 18.6548 8.77048 18.7048C9.60587 19.9937 10.1753 21.5082 10.9594 22.8426C11.8014 24.2693 12.7697 25.5599 13.9465 26.6779L13.9488 26.6718Z" fill="#F3F3F3"/>
<path d="M9.34076 18.4628C9.31149 18.3855 9.40555 18.3447 9.45188 18.3947C10.1863 19.1763 10.7846 20.3577 11.3026 21.3149C11.3312 21.3664 11.2652 21.433 11.2268 21.38C10.579 20.5135 9.75959 19.4835 9.34249 18.4673L9.34076 18.4628Z" fill="#F3F3F3"/>
<path d="M22.9542 29.9616C20.8318 29.8048 18.5435 28.921 16.6805 27.6422C16.637 27.6119 16.6734 27.5513 16.7151 27.5771C18.7798 28.7015 20.7516 29.3883 22.958 29.8874C22.9985 29.898 22.989 29.9692 22.9519 29.9677L22.9542 29.9616Z" fill="#F3F3F3"/>
<path d="M15.3159 26.4861C14.3522 25.7497 13.442 24.9256 12.6524 23.9622C12.6266 23.9304 12.6619 23.8911 12.6917 23.9214C13.5376 24.8166 14.3999 25.6589 15.3636 26.3952C15.4202 26.4361 15.3742 26.5315 15.3176 26.4906L15.3159 26.4861Z" fill="#F3F3F3"/>
<path d="M26.3445 27.2374C26.3971 27.2799 26.3533 27.3692 26.3007 27.3268C24.4059 25.8677 22.4555 24.5026 20.5391 23.0829C20.4996 23.0511 20.5303 22.9875 20.5737 23.0178C22.5554 24.3088 24.4617 25.7739 26.3502 27.2405L26.3445 27.2374Z" fill="#F3F3F3"/>
<path d="M24.0227 26.8911C24.7787 27.3684 25.5205 27.8926 26.2634 28.3957C26.3256 28.4396 26.2734 28.5426 26.2111 28.4986C25.4705 27.9895 24.7133 27.4971 23.9818 26.9638C23.9366 26.9289 23.9735 26.8578 24.017 26.8881L24.0227 26.8911Z" fill="#F3F3F3"/>
<path d="M26.665 29.5528C26.2163 29.1877 25.719 28.815 25.3329 28.3742C25.2774 28.3121 25.3416 28.2046 25.4113 28.2561C25.8771 28.594 26.3027 29.0666 26.7116 29.4832C26.7488 29.5211 26.7044 29.5847 26.665 29.5528Z" fill="#F3F3F3"/>
<path d="M8.74107 26.4424C10.8212 28.86 13.4278 30.4753 16.2769 31.2972C18.245 31.8659 20.3181 32.1817 22.3508 32.2947C23.6825 32.533 25.0283 32.6517 26.2809 32.4887C26.937 32.4375 27.5723 32.2954 28.1281 32.064C29.2277 31.6056 30.5785 30.148 30.0936 28.6639C30.0858 28.5109 30.0706 28.3504 30.0457 28.1884C30.0064 27.9643 29.6663 27.9581 29.6474 28.1731C29.6396 28.2488 29.6278 28.326 29.6182 28.3972C29.5503 28.3865 29.4859 28.4213 29.4633 28.5182C28.9816 30.7636 27.1727 31.4336 25.2078 31.56C24.611 31.5628 24.0106 31.5201 23.433 31.4532C23.1071 31.4001 22.7812 31.3469 22.4507 31.3059C22.4256 31.2999 22.4017 31.3089 22.3817 31.3165C20.7681 31.0811 19.1562 30.8139 17.5509 30.4559C16.0443 30.1175 14.691 29.6536 13.4722 28.6295C13.3395 28.5083 13.2069 28.3871 13.076 28.2704C13.0199 28.2189 12.9662 28.1613 12.9101 28.1098C11.6525 26.8146 10.5049 25.2439 9.63836 23.5355C9.67999 23.5249 9.70096 23.4598 9.66433 23.4113C9.56533 23.2826 9.47431 23.1508 9.38728 23.0175C8.78469 21.7286 8.348 20.3717 8.14864 19.0028C8.00895 18.0321 8.02935 16.954 8.04513 15.8516C8.15753 16.1 8.31155 16.3378 8.44617 16.5726C8.48913 16.6498 8.59227 16.5847 8.54531 16.509C8.40153 16.2621 8.26683 15.991 8.09685 15.7593C8.07853 15.735 8.05686 15.7381 8.04262 15.7486C8.04596 15.4564 8.04757 15.1596 8.04692 14.8689C8.96302 16.5274 10.2337 18.0255 11.5579 19.2435C11.6271 19.3056 11.7119 19.2163 11.649 19.1466C10.2562 17.6272 9.13982 15.9823 8.03982 14.2481C8.02876 13.8937 8.0097 13.5424 7.97297 13.1926C8.59767 14.1665 9.36377 15.092 10.0595 15.9403C11.1477 17.2581 12.3504 18.4443 13.5991 19.5714C13.6682 19.6335 13.7633 19.5352 13.6924 19.4685C12.5139 18.3459 11.4168 17.125 10.3771 15.8511C9.47369 14.7438 8.71374 13.5094 7.85302 12.3703C7.83109 12.2643 7.81144 12.1523 7.78553 12.0478C8.8942 13.5761 10.286 14.9244 11.5956 16.2362C12.9704 17.6117 14.3998 18.9146 15.8651 20.1675C15.9268 20.222 16.003 20.11 15.9453 20.054C14.5336 18.7496 13.1577 17.3953 11.8091 16.0047C10.4662 14.6171 9.22516 13.0765 7.82995 11.7555C7.79278 11.7177 7.74371 11.7207 7.7038 11.7358C7.644 11.5298 7.57622 11.3269 7.49474 11.124C7.45677 10.9877 7.41881 10.8514 7.37685 10.7166C7.6621 10.9514 7.9576 11.1772 8.25138 11.3984C9.25195 12.5572 10.502 13.5071 11.6368 14.4904C12.7248 15.4342 13.819 16.3704 14.9234 17.2976C17.2856 19.2914 19.6824 21.22 22.1344 23.0654C22.1721 23.0927 22.1965 23.0366 22.1668 23.0064C19.8395 21.0565 17.5055 19.1249 15.1845 17.1675C13.9679 16.1373 12.7577 15.0996 11.5537 14.0542C11.2935 13.8255 11.0317 13.5922 10.7721 13.3528C11.2419 13.7255 11.7135 14.1028 12.1834 14.4755C14.0777 15.9814 15.9618 17.4964 17.8521 19.0039C19.7876 20.5462 21.7037 22.1218 23.6057 23.7081C24.5586 24.5004 25.503 25.3064 26.452 26.1002C27.2472 26.7653 28.1642 27.7999 29.1189 28.1032C29.1554 28.1153 29.181 28.0744 29.1615 28.0351C28.6526 27.0173 27.4651 26.2203 26.6538 25.4886C25.7601 24.6841 24.8557 23.8994 23.9473 23.1161C23.4099 22.6495 22.8645 22.1859 22.3248 21.7254C24.2356 23.2147 26.1447 24.6995 28.0578 26.1827C28.1613 26.263 28.2425 26.0919 28.143 26.0101C23.2967 22.0741 18.4418 18.1153 13.5148 14.3034C18.5285 17.5733 23.3989 21.0793 28.0768 24.9804C28.5478 25.8619 29.0171 26.7388 29.5263 27.6006C29.6683 27.843 30.0452 27.7053 29.9384 27.4236C29.0551 25.0929 27.7034 22.8149 26.3179 20.7731C25.027 18.8722 23.5429 17.1121 21.8063 15.697C19.869 14.1138 17.6712 13.1438 15.4519 12.2494C14.2234 11.7538 13.0007 11.2611 11.7722 10.7654C10.5055 10.2531 9.20825 9.61199 7.89585 9.34038C7.88787 9.34341 7.88216 9.34038 7.87245 9.33886C7.69998 9.26913 7.52351 9.20092 7.35221 9.14633C6.7558 8.57218 6.13435 8.02832 5.49756 7.51623C5.28985 7.25721 5.01132 6.96787 4.70838 6.73455C4.56559 6.92376 4.42679 7.11147 4.2937 7.30221C4.31256 7.31584 4.33142 7.32948 4.35028 7.34311C4.3675 7.38855 4.39043 7.43701 4.41164 7.48093C4.36531 7.43094 4.31272 7.38852 4.26639 7.33853C4.2243 7.39605 4.1822 7.45358 4.14183 7.51564C5.4966 9.88599 6.74941 12.3365 5.89734 15.0497C5.79705 15.3631 5.69332 15.6674 5.58614 15.9626C5.76532 17.4951 6.13677 19.017 6.69578 20.4679C7.84653 23.456 9.94219 26.7094 12.6068 28.4534C12.9562 28.8094 13.3227 29.1382 13.7085 29.4336C13.6342 29.3942 13.556 29.3563 13.4817 29.3169C10.7476 27.8591 8.52922 25.3536 6.97478 22.4925C6.1778 21.0279 5.53974 19.4408 5.47722 17.7706C5.45424 17.1921 5.4912 16.6273 5.55156 16.0641C5.1507 17.198 4.78223 18.273 4.97634 19.5919C5.58342 22.121 7.13978 24.5656 8.74733 26.4348L8.74107 26.4424ZM5.65506 9.81035C5.5958 9.59379 5.52684 9.37571 5.44364 9.16822C5.49568 9.22124 5.54201 9.27123 5.59405 9.32425C5.62122 9.48023 5.64213 9.64378 5.65506 9.81035ZM10.5714 12.426C10.7743 12.5518 10.9788 12.6821 11.1817 12.8079C11.4218 13.0078 11.6641 13.2018 11.9042 13.4018C11.4613 13.076 11.0166 12.7457 10.5714 12.426ZM7.091 9.96239C7.0262 9.81548 6.9574 9.67009 6.88461 9.52621C7.83027 10.1187 9.0098 10.4251 9.9955 10.8101C11.2074 11.2861 12.4062 11.7878 13.609 12.288C15.2675 12.9792 16.9283 13.6644 18.5908 14.354C19.4329 14.7935 20.2505 15.289 21.0261 15.8784C22.0389 16.6481 22.963 17.5449 23.8205 18.5189C21.7275 16.9583 19.4627 15.6188 17.221 14.4004C14.8861 13.129 12.4354 11.8287 9.95209 11.0448C9.88072 11.0251 9.83363 11.1416 9.90617 11.1765C12.3436 12.3935 14.8325 13.4091 17.2417 14.7199C19.6165 16.0126 21.8817 17.4975 24.1838 18.9476C24.8212 19.7141 25.4193 20.5214 25.9769 21.3545C26.6725 22.395 27.2735 23.487 27.8625 24.5836C22.7716 20.1947 17.3362 16.1857 11.652 12.8686C11.3811 12.6595 11.1101 12.4505 10.8369 12.2475C10.7655 12.1914 10.704 12.2459 10.6944 12.317C10.3448 12.117 9.99287 11.923 9.64095 11.7291C9.63524 11.726 9.62553 11.7245 9.61755 11.7275C9.57983 11.7003 9.54383 11.6776 9.5101 11.6488C8.72541 11.0836 7.92913 10.4397 7.08756 9.95331L7.091 9.96239ZM6.40183 15.8509C6.40019 15.8827 6.39855 15.9145 6.39691 15.9463C6.3077 15.0968 6.28469 14.2534 6.30903 13.4024C6.34732 13.684 6.38389 13.9612 6.42219 14.2428C6.44164 14.7758 6.43371 15.3088 6.40355 15.8555L6.40183 15.8509ZM7.12151 17.4487C6.8932 16.9065 6.91168 16.2448 6.9707 15.5937C7.03056 15.5711 7.07782 15.5272 7.11076 15.4575C7.10641 15.8073 7.10605 16.1556 7.1057 16.5038C7.10752 16.8097 7.11279 17.1247 7.1255 17.4472L7.12151 17.4487ZM7.79694 21.1937C7.41953 20.3183 7.10596 19.4187 6.86369 18.5025C6.78713 18.2042 6.71628 17.9089 6.65913 17.6136C6.77661 17.8393 6.94198 18.0468 7.16947 18.2255C7.2522 19.2386 7.42969 20.2729 7.79866 21.1982L7.79694 21.1937ZM8.95176 23.458C8.58118 22.8294 8.2408 22.1842 7.93689 21.5148C8.08137 21.8237 8.24808 22.1191 8.44725 22.3917C8.6027 22.7537 8.7741 23.1096 8.95176 23.458Z" fill="#F3F3F3"/>
</svg>
