<svg width="101" height="81" viewBox="0 0 101 81" fill="none" xmlns="http://www.w3.org/2000/svg">
<path d="M91.293 6.20664C92.3117 6.89943 92.0656 7.81428 91.7599 8.7396C91.6263 9.13332 91.524 9.54468 91.3433 10.1935C91.746 9.99167 92.0241 9.94284 92.1637 9.76406C92.986 8.71717 93.8495 7.70159 94.5613 6.55841C95.7054 4.7222 97.477 4.36487 99.3684 4.27189C99.8913 4.24178 100.292 4.62652 100.461 5.2063C100.643 5.81463 100.555 6.4163 100.1 6.72749C99.5547 7.09325 98.9433 7.37802 98.3107 7.56624C97.6134 7.77351 96.8654 7.84315 96.0244 7.99082C96.3123 8.5188 96.6717 8.90309 96.6822 9.2638C96.6944 9.60107 96.3393 9.92568 96.1346 10.2779C96.194 10.36 96.2714 10.4621 96.3472 10.5568C97.1957 11.696 97.2031 12.5124 96.2655 13.3789C95.8374 13.7781 95.2971 14.0427 94.7916 14.3397C94.4998 14.5143 94.1751 14.6331 93.6946 14.8563C94.2857 15.2616 94.7291 15.2454 95.1694 15.1836C95.6362 15.117 96.0932 15.0059 96.5667 14.9382C96.9574 14.8696 97.4573 14.7973 97.6012 15.3274C97.6993 15.6804 97.5703 16.189 97.3758 16.4932C96.8487 17.3185 96.0448 17.7605 95.1081 17.8479C93.7195 17.976 92.7725 18.6745 92.0454 19.9669C90.7974 22.207 90.323 24.6816 90.3543 27.3605C90.4143 31.9242 90.572 36.4939 90.5113 41.0402C90.424 47.7202 89.3912 54.1342 86.4778 59.814C84.2636 64.1367 81.3253 67.7304 77.2592 70.1028C74.8159 71.5346 72.4235 73.0732 69.714 73.9192C64.9408 75.4207 60.0488 76.2873 54.9141 75.9547C50.5602 75.6701 46.2199 75.2906 41.8828 74.3937C39.7349 73.9455 37.624 73.321 35.5437 72.4598C34.4019 71.9892 33.2081 71.7206 32.0293 71.4262C31.163 71.208 30.2915 71.0911 29.296 70.911C29.4506 71.2079 29.5573 71.4745 29.7038 71.7034C30.8892 73.5625 30.6865 75.4263 30.1198 77.2613C29.8289 78.1918 29.1767 78.8231 28.3451 79.1388C26.8129 79.7087 25.2494 80.1992 23.4821 80.7949C23.7478 79.9692 24.2575 79.9414 24.6386 79.7665C25.7388 79.2648 26.918 78.9034 27.9622 78.3035C30.3658 76.9096 30.4881 73.2704 28.1359 70.9836C27.7512 71.7685 27.3518 72.5175 27.0167 73.3091C26.935 73.5008 27.0399 73.8218 27.107 74.0646C27.4455 75.3242 27.1164 76.3308 26.3346 77.1237C25.5179 77.9459 24.6453 78.7008 23.5356 79.0654C22.7919 79.3117 22.0547 79.5877 21.3505 79.9196C20.9197 80.1186 20.5513 80.4456 20.0838 80.7591C19.8208 80.1882 20.0901 79.7861 20.5888 79.5828C22.4095 78.8543 23.7823 77.433 25.272 76.1995C25.6966 75.8473 26.0834 75.4477 26.1853 74.6276C25.4329 75.022 24.8244 75.4142 24.1601 75.6774C23.4709 75.9527 22.8527 76.3003 22.2473 76.7692C20.4079 78.1952 18.3388 77.9492 16.2542 76.8496C15.5159 76.4624 14.8326 75.919 14.1492 75.4065C12.1536 73.8978 9.91634 72.9485 7.83897 71.6625C6.19257 70.648 4.96361 70.5321 3.71681 71.8695C3.33829 72.2754 2.83118 72.5341 2.38673 72.859C1.62221 73.4175 0.874209 73.9885 0.567627 75.1917C0.112859 74.5927 0.238406 74.131 0.481032 73.7953C0.806772 73.3369 1.19854 72.9287 1.62485 72.5839C2.59695 71.7807 3.60198 71.0334 4.71161 70.1675C3.12491 69.1116 1.64558 68.6386 0.0107202 69.211C0.422668 68.1745 1.15147 67.9231 1.93677 68.1169C2.87418 68.3457 3.7945 68.7472 4.69659 69.1596C5.23352 69.4125 5.64206 69.4565 6.13286 69.1234C9.227 66.9911 13.5863 67.6759 16.7714 71.3129C17.2313 71.8415 17.6747 72.3885 18.123 72.9269C19.2785 74.3053 20.6987 74.6344 22.2294 74.5585C22.6448 74.5396 22.8771 74.3136 22.9299 73.8647C23.0761 72.6203 23.2438 71.3798 23.3685 70.1314C23.413 69.6762 23.1676 69.3104 22.7207 69.3735C21.1001 69.604 19.5572 68.8413 17.9764 68.5326C16.5543 68.2578 15.1151 68.1865 13.6828 68.0215C13.3801 67.9898 13.0708 67.9592 12.6358 67.9199C12.9553 67.3393 13.3888 67.3403 13.7975 67.3225C15.4292 67.2366 17.0616 67.4359 18.6849 67.9068C19.4717 68.1389 20.2603 68.3476 21.0523 68.5094C21.469 68.5905 21.8977 68.5383 22.4519 68.5567C22.2796 68.1165 22.1977 67.8377 22.0645 67.5757C21.1108 65.7067 21.1064 63.9642 22.3585 62.4947C22.9215 61.8328 23.008 61.1619 22.8189 60.2695C22.2092 57.399 21.7252 54.5065 21.0509 51.6551C19.6614 45.7976 19.4397 40.0281 20.2835 34.2566C20.872 30.2347 21.9249 26.3858 22.7745 22.4569C23.5066 19.0578 25.3334 16.3843 27.3713 13.9206C29.1219 11.8082 30.9978 9.82814 32.8588 7.84292C35.8006 4.70372 39.4532 2.82818 43.4017 1.54864C48.2511 -0.0125231 53.3044 0.419235 58.4013 1.20589C62.4315 1.83272 66.2184 3.51275 70.0386 5.1561C74.5064 7.08684 79.0599 8.62458 83.7616 9.30319C85.1541 9.50609 86.0409 9.00327 86.5581 7.66284C86.83 6.95943 87.1399 6.27249 87.4597 5.59924C87.9727 4.52181 88.8316 3.92358 89.9144 3.68717C91.095 3.42589 91.6969 4.06844 91.5107 5.3816C91.4768 5.63439 91.3999 5.87932 91.3128 6.23403L91.293 6.20664ZM70.6156 46.678C70.2702 47.078 69.9166 47.4718 69.5712 47.8719C69.2164 48.1039 68.8434 48.3159 68.51 48.5828C64.1393 52.0423 59.3432 54.5351 53.8486 55.5076C50.9019 56.025 47.9584 56.5573 45.0248 57.1032C40.53 57.931 36.0976 58.9484 31.8845 60.7141C30.5558 61.2714 29.2517 61.8783 27.9411 62.4556C28.1555 62.1479 28.4275 61.9459 28.7242 61.7936C29.7417 61.2909 30.7395 60.73 31.798 60.3205C34.4303 59.3106 37.0315 58.1905 39.744 57.4519C42.69 56.6493 45.7391 56.191 48.7588 55.6299C53.929 54.6836 58.8627 53.1616 63.5314 50.6834C68.4521 48.0684 72.1934 44.2797 74.6656 38.9397C75.0854 38.0329 75.5861 37.1813 76.3377 36.5325C76.2802 37.4606 76.1649 38.3447 75.9372 39.1869C75.6944 40.0858 75.3823 40.9506 75.0322 41.7988C74.682 42.6471 74.2625 43.4613 73.8563 44.2731C72.679 46.6474 71.6106 49.1105 70.2782 51.3732C67.7547 55.6654 64.362 59.0689 60.704 62.141C57.6913 64.6756 54.5668 67.0138 50.7447 68.086C47.6297 68.9647 44.4987 69.6455 41.1663 69.1893C38.9749 68.8876 36.7853 68.5624 34.594 68.2606C34.3244 68.2231 34.0546 68.2473 33.7783 68.2418C34.2985 68.5748 34.8076 68.7322 35.3202 68.8119C37.1923 69.1003 39.0659 69.427 40.935 69.6079C43.6476 69.8721 46.3885 70.0774 49.0144 69.5392C53.6816 68.5885 57.9434 66.6061 61.763 63.7061C65.0336 61.2189 67.6678 58.0257 69.9129 54.4071C72.6053 50.0698 74.6174 45.2965 76.6295 40.5233C77.063 39.4907 77.2916 38.3397 77.5483 37.2225C77.6255 36.8849 77.624 36.3144 77.4344 36.1086C76.816 35.4535 77.0377 34.9286 77.3291 34.3452C77.5355 33.9387 77.7337 33.5259 77.8939 33.0967C79.3873 29.1242 81.559 25.6728 84.1368 22.5358C84.6949 21.8515 85.2052 21.1063 85.6527 20.3257C85.8873 19.922 85.9254 19.3754 86.0593 18.889C86.0826 18.8386 86.0993 18.7894 86.1161 18.7402C86.1257 18.3143 86.122 17.8906 86.1532 17.4686C86.1998 16.8356 86.2696 16.214 86.3159 15.7045C85.6139 15.3263 85.0189 15.1223 84.547 14.7269C83.9232 14.2039 84.3161 13.4252 84.2842 12.5283C83.8038 12.7207 83.4313 12.7784 83.1477 12.9902C81.4147 14.2741 79.411 14.7956 77.3058 14.9801C75.6127 15.1309 73.9067 15.1913 72.2089 15.258C66.9401 15.4734 61.6778 15.7495 56.4981 16.5587C52.8414 17.1313 49.2385 17.9491 45.6225 18.7074C41.8377 19.5108 38.2529 20.8808 34.8881 22.7829C33.0416 23.8322 31.2757 25.0294 29.8393 26.6932C29.5271 27.0566 29.2775 27.486 29 27.8819C29.4669 27.7845 29.7358 27.5059 30.041 27.2671C31.1357 26.427 32.1745 25.4578 33.3629 24.794C37.4336 22.5365 41.7505 20.8992 46.3348 20.0094C50.4125 19.224 54.6047 19.3672 58.7918 19.55C62.6331 19.724 66.4321 19.674 70.1278 18.8091C70.2851 18.7738 70.4506 18.7756 70.6128 18.7626C67.6023 19.5534 64.5742 20.17 61.3895 20.0426C58.8021 19.9416 56.2176 19.9788 53.635 19.9309C47.0453 19.7998 41.0122 21.5456 35.3931 24.7692C31.7282 26.8706 28.8893 29.9146 26.7132 33.7216C26.3039 34.426 25.9738 35.209 25.7314 36.0153C24.7685 39.1464 24.2932 42.4311 24.175 45.8073C24.1657 46.1097 24.1863 46.4224 24.1837 46.7237C24.3714 46.4825 24.435 46.2399 24.4607 45.9808C24.7949 42.3044 26.1979 39.1731 27.8802 36.1548C30.0816 32.2122 33.1546 29.4511 37.1026 27.7937C41.3969 25.9906 45.9138 24.9815 50.5645 24.5197C53.9028 24.1881 57.2833 24.1114 60.6232 23.7872C64.6848 23.398 68.6532 22.6164 72.4172 21.0915C73.1743 20.7812 73.9692 20.549 74.7722 20.3849C75.0685 20.3252 75.6339 20.4882 75.7225 20.704C75.8572 21.0352 75.8206 21.6202 75.6212 21.8711C75.0897 22.5198 74.4839 23.1122 73.8288 23.6052C72.1771 24.8209 70.4742 25.9606 68.8027 27.1489C65.6884 29.3774 63.0588 32.1532 60.97 35.5437C60.3064 36.6245 59.5619 37.65 58.7795 38.6282C56.4142 41.5736 53.8181 44.2201 50.5102 45.9117C45.1309 48.6612 39.7828 51.4593 34.5875 54.5776C32.0778 56.0828 29.6999 57.7499 27.592 59.8325C27.265 60.1599 26.9661 60.5209 26.5892 60.9342C26.8092 60.965 26.9017 61.0105 26.9564 60.9777C27.1586 60.8651 27.3658 60.7439 27.5548 60.6027C30.8202 58.2166 34.3717 56.382 38.0186 54.7311C42.6597 52.628 47.23 50.3908 51.6262 47.7676C57.4645 44.2895 62.5825 39.9428 66.7831 34.2993C68.2968 32.2671 70.157 30.5289 72.0187 28.8598C74.3218 26.7892 76.8341 24.9828 79.1668 22.9533C80.4493 21.841 81.5737 20.5097 82.7293 19.2269C83.3552 18.5384 83.5699 17.6368 83.3465 16.5884C83.1964 15.9051 82.8752 15.4756 82.2221 15.3202C81.4467 15.1401 80.7121 15.1148 80.0063 15.4393C79.4992 15.6672 78.984 15.8888 78.477 16.1167C78.7393 15.8392 79.036 15.656 79.3509 15.4927C79.6658 15.3294 79.9987 15.217 80.3021 15.0326C80.9138 14.6552 81.5919 14.7366 82.2683 14.8416C83.1795 14.9824 83.539 15.3667 83.779 16.3659C84.0664 17.5805 83.8348 18.6239 83.1354 19.5104C81.8429 21.1721 80.468 22.7403 78.8474 24.0353C76.9565 25.5398 75.1034 27.0917 73.2635 28.6721C70.6605 30.911 68.5207 33.6626 66.4222 36.4454C61.7351 42.6603 56.1455 47.5217 49.0881 50.3653C45.1337 51.9622 41.253 53.7698 37.443 55.7115C33.7507 57.594 30.1899 59.762 26.5732 61.801C25.9732 62.1377 25.3698 62.4905 24.6306 62.9134C25.2966 63.6913 25.3492 64.8391 26.4288 65.0892C26.7864 66.0909 27.4758 66.7875 28.2314 67.4725C29.6537 66.6211 31.2162 66.4393 32.8287 66.6422C34.7026 66.8762 36.5745 67.1955 38.4365 67.5319C41.0294 68.0023 43.6176 68.3578 46.1913 68.0833C49.8872 67.6889 53.3188 66.6235 56.4014 64.4701C61.003 61.2478 64.8727 57.1665 68.4094 52.6655C70.0109 50.6256 71.0841 48.1848 72.164 45.7428C71.8622 45.9346 71.6479 46.2113 71.3858 46.4271C71.2697 46.5246 71.0547 46.4852 70.8859 46.4994L70.619 46.662L70.6156 46.678ZM93.498 15.2765C93.2268 15.7638 93.0084 16.3035 92.6761 16.7321C92.3338 17.1779 91.9042 17.5388 91.491 17.9122C90.58 18.7432 90.0851 19.8715 89.7238 21.1074C89.5849 21.6023 89.6398 22.0401 89.8485 22.4894C90.0315 22.1641 90.1119 21.8415 90.199 21.5176C90.6795 19.7285 91.655 18.377 93.0479 17.3919C93.5653 17.0234 94.1038 16.7823 94.7969 16.838C95.5446 16.8918 96.199 16.615 96.637 15.7281C95.9089 15.7634 95.3312 15.8262 94.7422 15.8062C94.2989 15.7915 93.7874 15.8736 93.4914 15.2776C92.8495 14.7347 92.8022 14.5193 93.3546 14.0598C93.9303 13.5807 94.5949 13.2249 95.1705 12.7458C96.0514 11.9972 95.9671 11.4566 94.8379 10.6675C94.4751 11.8652 93.634 12.576 92.7137 13.2081C92.4567 13.3843 92.2309 13.6091 91.9953 13.8202C91.9605 13.8494 91.9817 13.946 91.9765 14.0163C92.1603 13.9763 92.3292 13.9313 92.4997 13.8936L92.6232 14.0802C91.7513 15.1203 90.886 16.1594 90.0125 17.1921L90.1082 17.2524C91.242 16.5905 92.3708 15.9372 93.4997 15.2839L93.498 15.2765ZM75.8646 61.1221C75.6425 61.2691 75.3989 61.3813 75.1965 61.5557C73.8509 62.7253 72.5663 63.9845 71.1698 65.0782C68.0432 67.5325 64.6419 69.4564 60.851 70.608C57.0916 71.7464 53.1632 71.8962 49.2356 71.799C46.1865 71.725 43.1076 71.1086 40.0396 70.7293C39.6228 70.6791 39.2077 70.6363 38.7909 70.586C38.9671 70.8559 39.1537 70.9543 39.3488 70.9972C44.8149 72.2127 50.2844 73.4122 55.7972 73.4933C61.6871 73.5699 66.9226 71.8561 71.0036 67.3906C72.6788 65.5614 74.1545 63.5128 75.7127 61.5576C75.7991 61.4498 75.798 61.2572 75.8316 61.097C76.0606 60.8871 76.2946 60.6686 76.5236 60.4587C76.4609 60.3926 76.3983 60.3264 76.3356 60.2603C76.1775 60.5426 76.0211 60.8323 75.863 61.1146L75.8646 61.1221ZM25.2109 59.3867C25.3017 59.4247 25.3943 59.4702 25.4785 59.5094C26.0506 58.5758 26.3998 57.504 26.7028 56.4095C27.2718 54.3657 27.8474 52.3208 28.3486 50.2503C28.8197 48.2932 29.715 46.6704 30.8631 45.1652C32.2354 43.3661 33.5616 41.5133 34.8135 39.6042C35.6813 38.2948 36.6282 37.0948 37.8998 36.2776C39.3141 35.3582 40.7105 34.3262 42.2544 33.7157C45.349 32.4936 48.5273 31.4958 51.6891 30.4547C52.3499 30.2383 53.0815 30.1562 53.7897 30.1553C54.9032 30.1526 55.4936 30.774 55.728 31.9979C55.8745 32.759 55.7152 33.4118 55.2999 33.9321C54.9013 34.434 54.4531 34.8984 53.9835 35.328C51.6637 37.4477 48.8472 38.652 46.1194 40.0411C44.3445 40.9467 42.5595 41.9004 40.9673 43.1056C35.8027 47.0208 31.2413 51.6477 27.567 57.2759C27.0416 58.0778 26.7558 58.9997 26.4352 59.9199C26.9309 59.6092 27.3209 59.2244 27.7192 58.8459C31.1745 55.5394 35.1729 53.1095 39.2405 50.8063C42.108 49.1766 45.1021 47.8101 48.0058 46.2511C49.5936 45.4015 51.1715 44.5074 52.6359 43.4403C55.4319 41.3912 57.7665 38.7752 59.7085 35.7807C62.5615 31.392 66.1875 27.9861 70.3888 25.2583C71.6405 24.4445 72.889 23.6159 74.1161 22.7525C74.7114 22.3317 75.3366 21.8903 75.4626 20.7728C74.9163 20.8533 74.4414 20.8518 74.029 21.0091C73.2603 21.2983 72.5344 21.688 71.7806 22.0133C67.047 24.0709 61.9981 24.8494 56.8222 25.0177C50.6004 25.2154 44.5712 26.2586 38.7165 28.0965C36.2074 28.8842 33.8195 30.0363 31.886 31.9417C28.9449 34.8339 26.9925 38.5322 25.9169 42.7476C25.1078 45.9212 24.9432 49.3055 25.0351 52.6989C25.081 54.411 25.1335 56.1219 25.1794 57.834C25.191 58.3565 25.2075 58.8704 25.2191 59.3929L25.2109 59.3867ZM70.3491 10.0461C70.3609 9.97458 70.3727 9.90307 70.3861 9.83901C69.9829 9.69383 69.5846 9.54008 69.1814 9.3949C67.3981 8.75923 65.5697 8.26259 63.8433 7.44724C59.9526 5.608 55.9284 4.66387 51.8687 3.96509C50.1323 3.6683 48.3048 3.42609 46.6394 3.70307C43.3832 4.25168 40.2512 5.27215 37.4179 7.05782C35.4899 8.26801 33.987 10.0052 32.4051 11.6329C30.8746 13.213 29.4859 14.9378 28.5212 17.0588C27.5366 19.2141 26.5387 21.3717 25.4154 23.428C21.8974 29.8309 20.3612 36.8965 20.8677 44.6833C20.994 46.6049 21.2462 48.5045 21.9252 50.3754C22.0028 49.9144 22.0109 49.4502 22.0041 48.9808C21.9228 44.8528 22.4747 40.8836 23.8713 37.1904C25.0108 34.1748 26.3586 31.2615 27.6237 28.3164C27.9387 27.59 28.3098 26.9 28.6248 26.1736C30.0734 22.7798 31.9164 19.6792 33.9905 16.7541C36.0031 13.9246 38.4721 11.7015 41.5274 10.332C43.5936 9.40606 45.7256 8.59203 47.882 7.88941C51.6633 6.66238 55.5888 6.37423 59.6261 7.34692C62.2764 7.98464 64.9098 8.70243 67.5534 9.37219C68.4858 9.60958 69.4199 9.82354 70.3573 10.0523L70.3491 10.0461ZM86.6104 20.9598L86.4601 20.8705C85.6196 21.8974 84.7891 22.9381 83.9404 23.9587C81.9257 26.4029 80.2576 29.1102 79.0863 32.2008C78.7711 33.0198 78.4409 33.8337 78.0711 34.6237C77.8795 35.0353 77.8801 35.3823 78.0258 35.8581C78.1896 36.3848 78.3018 37.0208 78.1811 37.5048C77.8476 38.867 77.4644 40.2224 76.9524 41.4925C76.1436 43.5089 75.234 45.4737 74.3244 47.4384C72.567 51.2104 70.5734 54.8157 68.0897 58.0364C65.6824 61.1667 62.9404 63.9005 59.63 65.8625C56.4722 67.736 53.0828 69.0562 49.508 69.8768C49.2729 69.9335 49.0526 70.0262 48.8207 70.0977C50.6545 70.4314 53.5495 70.0851 55.6363 69.4101C61.0059 67.6805 65.7568 64.8253 69.8102 60.735C73.017 57.4875 75.6564 53.7226 77.1435 49.0955C78.8864 43.6599 80.8952 38.3704 83.0427 33.1491C83.608 31.7771 83.9371 30.2383 84.1587 28.7106C84.5154 26.2953 85.1001 24.0097 86.2003 21.942C86.3667 21.6351 86.482 21.2832 86.6154 20.9512L86.6104 20.9598ZM82.3048 12.6907C82.1908 12.6413 82.1496 12.61 82.1165 12.6158C81.8814 12.6417 81.648 12.675 81.4163 12.7156C78.1402 13.2677 74.8423 13.3763 71.4621 12.8282C67.5263 12.1925 63.5818 11.674 59.6339 11.1716C57.0721 10.8423 54.5336 10.964 52.0633 11.4903C50.0666 11.9181 48.1009 12.4561 46.1287 12.9643C40.4208 14.4371 35.6758 17.5073 32.1324 22.5417C31.913 22.8579 31.7133 23.2015 31.5105 23.5302C31.9574 23.4672 32.2774 23.2644 32.5973 23.0617C33.529 22.4816 34.4328 21.8369 35.399 21.3201C38.5613 19.6233 41.968 18.57 45.4403 17.7212C54.1252 15.5868 63.0456 14.8382 72.0475 14.4918C74.4949 14.3937 76.928 14.1054 79.3529 13.8107C80.3841 13.6837 81.4042 13.3811 82.3032 12.6833L82.3048 12.6907ZM53.9381 70.6648C53.956 70.7465 53.9723 70.8208 53.9969 70.9013C55.3244 70.7454 56.6649 70.6488 57.9694 70.4198C63.1113 69.5015 67.4874 66.9435 71.5744 63.7267C75.3512 60.7571 78.1778 56.9053 80.2538 52.3291C81.6851 49.1698 82.7165 45.8183 83.6009 42.3924C84.2341 39.9208 84.7566 37.4147 84.9287 34.785C85.0782 32.5217 85.6276 30.3888 86.3969 28.3176C87.0243 26.6338 87.4321 24.8267 87.8447 23.0418C88.0477 22.1499 88.0475 21.178 88.1381 20.2442C87.6877 20.8863 87.4224 21.5886 87.0994 22.247C86.1834 24.1203 85.4839 26.1021 85.181 28.2611C84.8135 30.9097 83.9357 33.3009 82.8447 35.5983C81.0258 39.4351 79.4465 43.3919 78.2288 47.5551C77.0981 51.4253 75.2937 54.8585 72.938 57.8794C68.1817 63.9984 62.194 68.143 54.9932 70.3021C54.6322 70.4118 54.2826 70.5426 53.9315 70.666L53.9381 70.6648ZM27.9404 55.8759C28.0066 55.8643 28.0976 55.8714 28.1358 55.8262C28.4099 55.4772 28.684 55.1282 28.9416 54.7667C31.2169 51.5363 33.6653 48.4991 36.409 45.7418C39.3436 42.789 42.6532 40.5109 46.4059 38.9032C49.0087 37.7905 51.4306 36.3239 53.53 34.3277C53.9565 33.9211 54.3864 33.4677 54.6595 32.926C55.1374 31.9705 54.6287 31.1573 53.611 31.1894C53.017 31.2089 52.426 31.3049 51.8613 31.4581C49.7069 32.0446 47.5377 32.5952 45.4226 33.2983C43.6785 33.8745 41.954 34.5398 40.32 35.3667C38.0546 36.5127 36.1632 38.1716 34.8468 40.5703C33.9782 42.1575 33.0549 43.7467 31.909 45.0741C29.3682 48.0349 28.7915 51.9853 27.8629 55.7738C27.8612 55.7972 27.9124 55.8423 27.947 55.8747L27.9404 55.8759ZM34.4989 18.1921C34.9169 17.841 35.3235 17.4688 35.7629 17.1525C36.9818 16.2829 38.176 15.3635 39.454 14.6069C42.5257 12.7793 45.9501 11.9004 49.3924 11.1031C53.2139 10.2161 57.1108 10.1104 61.0996 10.7368C65.0388 11.3565 68.985 11.8515 72.9276 12.4551C75.4545 12.8445 77.9088 12.6527 80.6038 12.2104C79.9125 12.1312 79.4775 12.061 79.0441 12.0291C77.648 11.9348 76.2564 11.9555 74.8656 11.76C70.7161 11.185 66.6077 10.1708 62.5282 8.94322C59.766 8.10917 57.0259 7.65693 54.2077 7.78921C49.4435 8.01635 44.9007 8.87572 40.8324 11.4259C38.1914 13.0853 36.0682 15.3171 34.5005 18.1996L34.4989 18.1921ZM89.4243 38.4078C89.1306 40.2336 88.9552 41.8148 88.6178 43.3474C87.609 47.9291 85.8637 52.0384 82.7249 55.2199C79.7719 58.2145 77.0203 61.4051 74.4813 64.8439C72.6684 67.2989 70.5142 69.3896 68.0189 71.0233C67.4419 71.4023 66.8435 71.7465 66.1954 72.1457C66.3705 72.223 66.4381 72.2805 66.5044 72.2689C66.6997 72.25 66.8917 72.2163 67.0871 72.1666C70.4517 71.3598 73.5042 69.8519 76.2195 67.6859C77.3193 66.8062 78.1769 65.5757 79.1185 64.477C79.3161 64.2495 79.4446 63.8952 79.4969 63.5698C79.6655 62.5837 80.1971 61.9041 80.818 61.2551C81.9734 60.034 83.1965 58.8705 84.2034 57.5058C88.0086 52.3791 89.9204 46.3661 89.6412 39.3957C89.6304 39.1584 89.5368 38.9203 89.4259 38.4153L89.4243 38.4078ZM77.3142 58.9854C77.3768 59.0515 77.4395 59.1177 77.5022 59.1838C77.6714 59.0461 77.8587 58.9284 78.0098 58.7707C79.0705 57.682 80.1394 56.5995 81.1721 55.4771C82.394 54.1518 83.6786 52.8926 84.5806 51.2377C86.1866 48.2791 87.401 45.1346 88.0143 41.6638C88.9072 36.5856 88.5978 31.3561 88.5365 26.1292C88.1463 27.0771 87.8718 28.0818 87.4585 29.0183C86.5919 30.9909 86.1385 33.1224 85.9297 35.3343C85.7224 37.5537 85.3335 39.6969 84.7461 41.7825C84.2325 43.5774 83.7123 45.3735 83.1673 47.1508C81.9051 51.2678 80.1624 55.0758 77.7543 58.453C77.6164 58.6392 77.4603 58.8055 77.3142 58.9854ZM21.142 76.2459C18.8298 75.9885 17.2296 74.4953 15.6948 72.7053C14.8525 71.7192 13.8442 70.8549 12.8058 70.1347C10.965 68.8612 9.05599 68.749 7.18849 69.64C7.00125 69.7269 6.85508 69.9068 6.57475 70.1335C7.39228 70.5993 8.08928 70.986 8.77468 71.3825C10.5567 72.4195 12.3437 73.4479 14.1107 74.5107C14.91 74.9875 15.6576 75.5736 16.4603 76.0343C18.0359 76.9456 19.5947 76.8724 21.1354 76.2471L21.142 76.2459ZM25.7958 66.4345C24.8918 65.0737 24.131 63.9268 23.3587 62.7588C21.8628 64.4022 21.7599 66.0633 23.2749 68.3274C24.1009 67.7041 24.9334 67.0797 25.7958 66.4345ZM25.9056 72.0077C26.2698 71.4424 26.5325 71.0414 26.7952 70.6405C27.264 69.9154 27.1662 69.1149 26.5016 68.2391C25.6318 68.6 24.7324 68.92 24.3298 70.1246C24.8078 70.704 25.3023 71.296 25.899 72.0089L25.9056 72.0077ZM99.519 5.30222C98.3397 5.19303 97.2781 5.49515 96.3298 6.12449C96.0595 6.30308 95.9225 6.7128 95.6382 7.14068C98.1052 7.13177 99.4922 6.464 99.5108 5.29597L99.519 5.30222ZM24.1097 57.5667C24.421 55.4139 24.2143 53.2518 23.7364 51.0756C23.4037 53.2245 23.7228 55.3977 24.1097 57.5667ZM24.1375 70.7832C23.7798 71.9104 23.79 72.896 23.7878 74.1075C24.5403 73.6822 25.1254 73.3712 25.4273 72.5854C25.0319 72.0377 24.6547 71.51 24.1359 70.7757L24.1375 70.7832ZM28.9346 68.5138C29.8359 69.1732 30.5456 69.2106 31.7717 68.6559C30.4196 68.2299 29.8836 68.2006 28.9346 68.5138ZM92.4903 11.6583C91.2043 11.9612 90.4442 12.4984 90.2101 13.2697C90.5899 12.9947 90.9332 12.7416 91.2715 12.4971C91.6048 12.2612 91.9398 12.0326 92.4903 11.6583ZM94.4644 9.46806L94.639 9.73054C95.0332 9.58418 95.4225 9.4464 95.926 9.26542C95.6113 8.86558 95.4119 8.61519 95.1746 8.31746C94.9719 8.58446 94.8224 8.74954 94.701 8.94827C94.6046 9.10405 94.5428 9.29232 94.4644 9.46806ZM49.8336 71.0461L49.8059 70.9198L49.2165 71.0233L49.2377 71.1198C49.438 71.0924 49.6399 71.0724 49.8336 71.0461Z" fill="#F3F3F3"/>
</svg>
