<svg width="51" height="41" viewBox="0 0 51 41" fill="none" xmlns="http://www.w3.org/2000/svg">
<path d="M18.0925 18.4497C15.2377 18.843 12.2657 19.34 9.33139 19.1934C9.20227 19.183 9.13786 18.9581 9.27341 18.9304C11.9911 18.4229 14.8388 18.3411 17.5882 17.9997C20.49 17.6479 23.3524 17.1093 26.2452 16.7611C26.3351 16.7507 26.3668 16.9168 26.2808 16.9376C23.6144 17.6631 20.8261 18.0668 18.0834 18.4532L18.0925 18.4497Z" fill="#F3F3F3"/>
<path d="M33.4253 8.6252C33.5295 8.59756 33.6043 8.79483 33.4961 8.81209C25.469 10.6669 17.9204 13.6467 10.4102 16.9205C10.3281 16.9516 10.2639 16.8097 10.342 16.7682C17.5261 12.8817 25.4918 10.397 33.4435 8.61829L33.4253 8.6252Z" fill="#F3F3F3"/>
<path d="M41.9457 11.9509C42.136 11.9025 42.3263 11.8541 42.5205 11.8161C42.6299 11.7747 42.7047 11.9719 42.5953 12.0134C39.7013 12.9915 36.6932 13.6685 33.7164 14.3455C33.6526 14.3697 33.6053 14.2451 33.6731 14.2312C35.22 13.7993 36.7629 13.3571 38.3098 12.9252C39.0448 12.7178 39.7876 12.5313 40.5226 12.324C40.881 12.2238 41.2549 12.0821 41.6329 12.0338C41.6825 12.0269 41.8037 12.0165 41.9289 12.0166C41.921 11.9958 41.9314 11.9682 41.9588 11.9578L41.9457 11.9509Z" fill="#F3F3F3"/>
<path d="M43.5449 13.4462C43.5435 13.3874 43.6243 13.3805 43.6388 13.4462C44.3838 17.1182 41.0984 20.3108 38.9854 22.3585C36.5522 24.7175 33.6387 26.8549 30.4777 27.9816C30.3683 28.0231 30.2583 27.8154 30.3729 27.7601C33.0819 26.294 35.6748 24.8244 38.0226 22.7353C40.624 20.4075 43.5137 17.5192 43.558 13.4531L43.5449 13.4462Z" fill="#F3F3F3"/>
<path d="M30.3062 28.4385C31.6541 28.2245 32.9597 27.789 34.112 27.0317C35.1159 26.3781 35.9746 25.5064 36.9864 24.8736C37.032 24.8563 37.096 24.9151 37.0583 24.9532C35.3386 26.828 33.2201 28.2009 30.7513 28.6498C27.7769 29.1952 24.5392 28.6886 21.5344 27.9156C21.4287 27.8844 21.4636 27.7287 21.5562 27.753C24.4938 28.1833 27.4163 28.9044 30.3193 28.4454L30.3062 28.4385Z" fill="#F3F3F3"/>
<path d="M28.8399 27.5692C28.939 27.5554 28.9785 27.7423 28.8834 27.7665C26.9647 28.1256 25.0124 28.0105 23.0477 27.6152C21.0256 27.206 18.7254 26.6409 16.8336 25.6123C16.7644 25.5673 16.8007 25.4704 16.8672 25.4809C18.8031 25.8277 20.7298 26.7006 22.6698 27.1409C24.7377 27.6159 26.7893 27.8002 28.849 27.5658L28.8399 27.5692Z" fill="#F3F3F3"/>
<path d="M17.1063 24.5709C17.0058 24.5258 17.0446 24.3805 17.1345 24.3702C18.4971 24.305 20.1334 24.8248 21.4826 25.1922C21.5622 25.2095 21.5638 25.3514 21.479 25.3479C20.1043 25.2158 18.4324 25.1251 17.1063 24.5709Z" fill="#F3F3F3"/>
<path d="M39.535 20.4523C37.6051 22.7631 34.8406 24.5233 32.0598 25.3872C31.996 25.4114 31.9658 25.3042 32.0205 25.2834C34.8265 24.0181 37.1349 22.4307 39.4631 20.3727C39.5008 20.3346 39.5727 20.4143 39.535 20.4523Z" fill="#F3F3F3"/>
<path d="M29.8075 25.8012C28.2905 26.1743 26.7458 26.3917 25.1574 26.3287C25.1039 26.3252 25.0946 26.2456 25.1442 26.2387C26.7127 26.1667 28.2406 26.0151 29.7524 25.6559C29.8345 25.6248 29.8936 25.7805 29.8075 25.8012Z" fill="#F3F3F3"/>
<path d="M39.762 13.7284C39.8441 13.6973 39.894 13.8565 39.8171 13.8738C36.8247 14.5923 33.8915 15.4666 30.9267 16.2577C30.8628 16.2819 30.8326 16.1746 30.8873 16.1539C33.7864 15.162 36.7879 14.44 39.7659 13.7388L39.762 13.7284Z" fill="#F3F3F3"/>
<path d="M37.4802 16.0775C38.5733 15.687 39.6992 15.3554 40.8042 14.9962C40.8954 14.9616 40.9585 15.1281 40.8673 15.1627C39.7584 15.5115 38.6482 15.8847 37.5327 16.1885C37.4688 16.2127 37.4254 16.0982 37.4893 16.074L37.4802 16.0775Z" fill="#F3F3F3"/>
<path d="M42.2448 15.7087C41.5171 15.8538 40.7465 16.0508 39.995 16.0505C39.8919 16.0539 39.8433 15.8704 39.9476 15.8428C40.6556 15.6457 41.4749 15.6322 42.2158 15.5771C42.2784 15.5772 42.3126 15.6949 42.2448 15.7087Z" fill="#F3F3F3"/>
<path d="M24.2607 33.4017C28.3227 33.4416 32.0516 32.052 35.2239 29.5791C37.4134 27.8706 39.4481 25.7813 41.2634 23.5259C42.614 22.2184 43.8418 20.7793 44.7352 19.1463C45.238 18.3264 45.6233 17.4442 45.8743 16.5653C46.3581 14.8145 46.0865 11.7587 44.2575 10.8132C44.1046 10.6574 43.9374 10.5189 43.761 10.3839C43.5155 10.2039 43.2229 10.5879 43.4113 10.8371C43.478 10.9306 43.5408 11.0136 43.6035 11.0967C43.5372 11.1694 43.514 11.2732 43.5925 11.3978C45.3371 14.2396 44.4684 17.0388 42.9403 19.4466C42.4437 20.1454 41.9002 20.8027 41.3551 21.4011C41.0299 21.7263 40.7046 22.0514 40.3963 22.3939C40.3729 22.4146 40.3573 22.4562 40.347 22.4838C38.765 24.1165 37.166 25.7319 35.4794 27.2261C33.8956 28.6338 32.3229 29.7405 30.3143 30.1099C30.0848 30.1375 29.8593 30.1755 29.6299 30.2031C29.5308 30.2169 29.4408 30.2272 29.3378 30.2306C27.0458 30.375 24.578 30.1109 22.2149 29.3797C22.2447 29.3209 22.2002 29.2309 22.1245 29.224C21.9198 29.2066 21.7111 29.1788 21.5115 29.1476C19.7771 28.5343 18.1008 27.6616 16.6273 26.4982C15.5836 25.6707 14.5639 24.549 13.5182 23.4136C13.8471 23.5383 14.2149 23.6007 14.5503 23.6874C14.656 23.7186 14.679 23.5317 14.5772 23.5109C14.2198 23.4208 13.8413 23.303 13.4853 23.2717C13.4409 23.2647 13.4306 23.2924 13.4332 23.327C13.1535 23.0293 12.8698 22.7212 12.5901 22.4235C14.9413 23.0404 17.4555 23.0969 19.7199 22.7968C19.8372 22.7761 19.8198 22.5927 19.7038 22.5892C17.0803 22.6572 14.5693 22.279 11.9876 21.7968C11.6347 21.4437 11.2806 21.1148 10.9213 20.7997C12.3785 21.0668 13.9094 21.116 15.3061 21.1685C17.484 21.2455 19.6221 21.0526 21.7482 20.7456C21.8655 20.7249 21.8494 20.5172 21.7321 20.5379C19.6684 20.762 17.5873 20.8026 15.4903 20.7187C13.6789 20.6452 11.8563 20.2672 10.0448 20.1107C9.9285 20.0242 9.80316 19.9411 9.67779 19.858C12.0738 20.1255 14.5365 19.8808 16.8846 19.6915C19.3539 19.4918 21.8033 19.1572 24.2264 18.7257C24.3346 18.7085 24.2872 18.5008 24.179 18.5181C21.74 18.825 19.2916 19.0523 16.8339 19.2001C14.3762 19.3478 11.8566 19.2222 9.42791 19.5014C9.36013 19.5152 9.31721 19.5671 9.30953 19.6294C9.05754 19.4874 8.81342 19.3662 8.55107 19.2519C8.39046 19.1584 8.22987 19.0649 8.06015 18.9748C8.52546 18.8816 8.98292 18.7676 9.44948 18.6501C11.3938 18.6614 13.35 18.1812 15.244 17.8671C17.0571 17.5599 18.8755 17.2389 20.6899 16.9074C24.5767 16.1824 28.4412 15.3708 32.261 14.3862C32.3157 14.3655 32.2842 14.2824 32.2256 14.2928C28.4104 15.0144 24.598 15.7706 20.7841 16.468C18.7755 16.8374 16.772 17.193 14.7568 17.5174C14.3149 17.5899 13.8782 17.6485 13.4324 17.7106C14.1831 17.5448 14.9338 17.379 15.6936 17.2098C18.7239 16.5363 21.7529 15.887 24.778 15.2274C27.88 14.5505 30.9886 13.9185 34.109 13.3177C35.6666 13.0243 37.2281 12.7412 38.7818 12.4373C40.0866 12.1922 41.8443 12.1791 42.9365 11.3733C42.9782 11.3456 42.9598 11.2695 42.9115 11.2521C41.5126 10.8086 39.7483 11.3823 38.3704 11.572C36.8478 11.7928 35.3371 12.0448 33.8303 12.3071C32.9282 12.459 32.0393 12.6178 31.1412 12.7801C34.1688 12.072 37.1963 11.3639 40.2109 10.6488C40.3738 10.6108 40.2715 10.3409 40.1177 10.3754C32.2857 12.002 24.4275 13.6146 16.6417 15.473C23.9736 12.9673 31.4094 10.8735 39.0723 9.40603C40.3106 9.75608 41.5488 10.1061 42.7948 10.3939C43.1484 10.4736 43.3257 9.89579 42.972 9.73299C39.9971 8.37865 36.682 7.64015 33.5631 7.17164C30.6569 6.74128 27.7319 6.67428 24.9166 7.25444C21.7715 7.9002 19.0079 9.47008 16.2929 11.1403C14.7967 12.0636 13.2914 12.9904 11.7952 13.9137C10.2482 14.8682 8.53662 15.7187 7.1794 16.9812C7.17028 16.9847 7.16509 16.9985 7.1599 17.0123C6.94764 17.1403 6.73932 17.2786 6.53493 17.4273C5.49198 17.5376 4.44134 17.7102 3.41557 17.9209C2.99174 17.9034 2.48065 17.9308 2.01015 18.0379C2.07224 18.3944 2.13432 18.7508 2.20553 19.1038C2.23289 19.0935 2.26024 19.0831 2.2876 19.0727C2.34895 19.097 2.41031 19.1212 2.46772 19.1351C2.38688 19.142 2.29692 19.1523 2.20697 19.1627C2.22809 19.2734 2.24526 19.3738 2.26637 19.4845C5.67036 20.3199 9.06826 21.3596 10.9623 25.1185C11.1771 25.5477 11.3828 25.9803 11.5794 26.4164C13.1994 27.7736 14.9662 28.8852 16.8236 29.7131C20.652 31.4208 25.5205 32.2949 29.4295 30.9678C30.0579 30.9196 30.6836 30.8368 31.2948 30.6883C31.1945 30.7263 31.093 30.7885 30.9966 30.8369C27.3101 32.531 23.0474 32.5672 19.0091 31.4616C16.9371 30.8932 14.8853 30.0202 13.2255 28.3931C12.6557 27.8253 12.1419 27.2126 11.6475 26.5687C12.3997 28.1955 13.1216 29.715 14.5441 30.8264C17.4745 32.6963 21.1233 33.3796 24.2607 33.4017ZM5.73364 20.0466C5.47771 19.8942 5.20747 19.7591 4.94117 19.6345C5.03506 19.6345 5.12503 19.6242 5.21498 19.6138C5.38739 19.7385 5.56767 19.8839 5.7297 20.0362L5.73364 20.0466ZM12.3562 16.9904C12.6481 16.8797 12.9399 16.7691 13.2357 16.6689C13.6241 16.593 14.0217 16.5135 14.4101 16.4376C13.7259 16.6137 13.0365 16.8038 12.3562 16.9904ZM7.08118 18.5384C6.8841 18.4587 6.69096 18.3894 6.49263 18.334C7.85028 17.8432 9.13491 16.7744 10.3316 16.024C11.7965 15.1007 13.2863 14.2154 14.7721 13.3198C16.8205 12.0922 18.8781 10.8611 20.9226 9.62315C22.0454 9.09072 23.2088 8.63791 24.4222 8.34429C26.007 7.95739 27.6431 7.78852 29.2927 7.79269C26.0437 8.63219 22.8661 9.90776 19.8179 11.2768C16.6459 12.7046 13.3437 14.2293 10.5135 16.3113C10.4302 16.3666 10.5062 16.5397 10.6026 16.4913C13.8055 14.8974 16.8617 13.0266 20.138 11.5711C23.3647 10.1225 26.6861 9.0062 30.0034 7.79645C31.2709 7.83852 32.5478 7.9602 33.8118 8.15799C35.3902 8.41475 36.9429 8.82375 38.4943 9.25698C30.0229 10.7102 21.6316 12.9525 13.6897 16.1881C13.2596 16.2917 12.8387 16.3919 12.4125 16.5059C12.2992 16.537 12.306 16.6651 12.3557 16.7412C11.8711 16.9486 11.3864 17.156 10.9058 17.3738C10.8966 17.3773 10.8875 17.3808 10.8823 17.3946C10.8276 17.4153 10.7729 17.4361 10.7143 17.4464C9.51664 17.7816 8.23283 18.0544 7.05901 18.5349L7.08118 18.5384ZM12.1494 25.3335C12.1494 25.3335 12.2082 25.4062 12.2383 25.4305C11.3564 24.6723 10.5186 23.8379 9.7199 22.9413C10.0204 23.1837 10.3208 23.426 10.6213 23.6684C11.1532 24.1912 11.6526 24.7381 12.1494 25.3335ZM14.2858 26.1269C13.581 25.8359 12.9548 25.147 12.3755 24.4166C12.4027 24.3232 12.4038 24.2159 12.3684 24.1225C12.703 24.4825 13.0376 24.8425 13.3683 25.1922C13.665 25.5072 13.9709 25.8188 14.2858 26.1269ZM18.4393 29.1601C17.2869 28.7063 16.1616 28.159 15.0778 27.5011C14.7266 27.2898 14.3805 27.0648 14.0527 26.8328C14.3698 26.9263 14.6997 26.9438 15.066 26.8643C16.1086 27.7991 17.245 28.6509 18.4393 29.1601ZM21.5684 30.1235C20.6578 29.9224 19.7548 29.659 18.8556 29.3229C19.2772 29.4719 19.6921 29.5759 20.1186 29.628C20.5963 29.8151 21.0752 29.9779 21.5684 30.1235Z" fill="#F3F3F3"/>
</svg>
